<svg width="636" height="371" viewBox="0 0 636 371" fill="none" xmlns="http://www.w3.org/2000/svg">
<path d="M20.0599 359.47C17.6999 359.47 15.4999 359.13 13.4599 358.45C11.4599 357.77 9.69992 356.83 8.17992 355.63C6.65992 354.47 5.45992 353.05 4.57992 351.37C3.73992 349.73 3.31992 347.91 3.31992 345.91C3.31992 345.11 3.37992 344.07 3.49992 342.79C3.65992 341.47 3.83992 339.99 4.03992 338.35C4.27992 336.71 4.53992 335.03 4.81992 333.31L9.85992 334.03C9.45992 336.67 9.11992 339.07 8.83992 341.23C8.59992 343.39 8.47992 344.93 8.47992 345.85C8.47992 347.61 8.95992 349.17 9.91992 350.53C10.9199 351.89 12.2799 352.95 13.9999 353.71C15.7599 354.47 17.7799 354.85 20.0599 354.85H37.0399C40.0399 354.85 42.2999 354.03 43.8199 352.39C45.3799 350.79 46.1599 348.35 46.1599 345.07C46.1599 343.47 45.8999 342.21 45.3799 341.29C44.8999 340.37 44.0399 339.61 42.7999 339.01C41.5599 338.37 39.7999 337.71 37.5199 337.03C35.3999 336.43 33.4999 335.85 31.8199 335.29C30.1799 334.69 28.7799 334.01 27.6199 333.25C26.4599 332.45 25.5799 331.47 24.9799 330.31C24.3799 329.11 24.0799 327.55 24.0799 325.63C24.0799 323.15 24.5999 321.09 25.6399 319.45C26.6799 317.81 28.1599 316.59 30.0799 315.79C32.0399 314.99 34.3999 314.59 37.1599 314.59C38.5199 314.59 40.0799 314.69 41.8399 314.89C43.6399 315.09 46.1199 315.43 49.2799 315.91L48.6799 320.23C45.8799 319.91 43.5399 319.67 41.6599 319.51C39.7799 319.31 38.2199 319.21 36.9799 319.21C35.1799 319.21 33.6999 319.43 32.5399 319.87C31.3799 320.31 30.5199 320.99 29.9599 321.91C29.3999 322.79 29.1199 323.95 29.1199 325.39C29.1199 326.55 29.3199 327.51 29.7199 328.27C30.1199 328.99 30.7399 329.59 31.5799 330.07C32.4199 330.55 33.4399 330.99 34.6399 331.39C35.8799 331.75 37.2999 332.15 38.8999 332.59C40.8199 333.15 42.5399 333.75 44.0599 334.39C45.5799 335.03 46.8599 335.81 47.8999 336.73C48.9799 337.65 49.7999 338.81 50.3599 340.21C50.9199 341.57 51.1999 343.27 51.1999 345.31C51.1999 348.07 50.6399 350.51 49.5199 352.63C48.4399 354.79 46.8399 356.47 44.7199 357.67C42.6399 358.87 40.0799 359.47 37.0399 359.47H20.0599ZM20.4799 370.69V365.11H25.5799V370.69H20.4799ZM29.0599 370.69V365.11H34.1599V370.69H29.0599ZM83.6791 344.59V339.97H90.1591V344.59H83.6791ZM69.2191 358.09C67.7791 358.09 66.2591 357.97 64.6591 357.73C63.0991 357.53 61.3791 357.23 59.4991 356.83L60.2791 352.69C62.3991 352.97 64.1591 353.17 65.5591 353.29C66.9991 353.41 68.2191 353.47 69.2191 353.47C72.4591 353.47 74.8191 352.85 76.2991 351.61C77.7791 350.37 78.5191 348.57 78.5191 346.21V317.65L80.8591 319.21H71.0791C68.8791 319.21 67.1591 319.49 65.9191 320.05C64.7191 320.57 63.8791 321.57 63.3991 323.05C62.9191 324.53 62.6791 326.71 62.6791 329.59C62.6791 332.47 62.8991 334.65 63.3391 336.13C63.8191 337.61 64.6791 338.63 65.9191 339.19C67.1591 339.71 68.8791 339.97 71.0791 339.97H78.5191V344.59H71.0791C67.6391 344.59 64.9191 344.07 62.9191 343.03C60.9591 341.95 59.5591 340.31 58.7191 338.11C57.9191 335.87 57.5191 333.03 57.5191 329.59C57.5191 326.19 57.9191 323.37 58.7191 321.13C59.5591 318.89 60.9591 317.25 62.9191 316.21C64.9191 315.13 67.6391 314.59 71.0791 314.59H83.6791V346.15C83.6791 348.67 83.0991 350.83 81.9391 352.63C80.7791 354.43 79.1191 355.79 76.9591 356.71C74.7991 357.63 72.2191 358.09 69.2191 358.09ZM90.1591 344.59V339.97C90.3991 339.97 90.5991 340.03 90.7591 340.15C90.9191 340.23 91.0391 340.37 91.1191 340.57C91.1991 340.77 91.2591 341.01 91.2991 341.29C91.3391 341.57 91.3591 341.89 91.3591 342.25C91.3591 342.61 91.3391 342.95 91.2991 343.27C91.2591 343.55 91.1991 343.79 91.1191 343.99C91.0391 344.19 90.9191 344.35 90.7591 344.47C90.5991 344.55 90.3991 344.59 90.1591 344.59ZM102.218 344.59V339.97H108.818V344.59H102.218ZM108.818 344.59V339.97C109.058 339.97 109.258 340.03 109.418 340.15C109.578 340.23 109.698 340.37 109.778 340.57C109.858 340.77 109.918 341.01 109.958 341.29C109.998 341.57 110.018 341.89 110.018 342.25C110.018 342.61 109.998 342.95 109.958 343.27C109.918 343.55 109.858 343.79 109.778 343.99C109.698 344.19 109.578 344.35 109.418 344.47C109.258 344.55 109.058 344.59 108.818 344.59ZM90.1582 344.59C89.9182 344.59 89.7182 344.55 89.5582 344.47C89.3982 344.35 89.2782 344.19 89.1982 343.99C89.1182 343.79 89.0582 343.55 89.0182 343.27C88.9782 342.95 88.9582 342.61 88.9582 342.25C88.9582 341.77 88.9982 341.37 89.0782 341.05C89.1182 340.73 89.2382 340.47 89.4382 340.27C89.5982 340.07 89.8382 339.97 90.1582 339.97V344.59ZM90.1582 344.59V339.97H99.5782L97.0582 342.01V314.59H102.218V344.59H90.1582ZM92.5582 355.69V350.11H97.6582V355.69H92.5582ZM101.138 355.69V350.11H106.238V355.69H101.138ZM140.891 344.59C139.491 344.59 138.111 344.33 136.751 343.81C135.391 343.25 134.111 342.41 132.911 341.29L136.211 337.81C137.131 338.57 137.951 339.13 138.671 339.49C139.391 339.81 140.131 339.97 140.891 339.97H151.631L149.471 342.13V327.91C149.471 327.23 149.391 326.23 149.231 324.91C149.111 323.59 148.911 322.11 148.631 320.47C148.391 318.79 148.091 317.11 147.731 315.43L152.771 314.59C153.051 315.99 153.331 317.55 153.611 319.27C153.891 320.99 154.131 322.63 154.331 324.19C154.531 325.75 154.631 326.99 154.631 327.91V344.59H140.891ZM108.791 344.59V339.97H117.551L116.291 341.23V320.59H121.331V344.59H108.791ZM121.331 344.59V339.97H127.871C129.231 339.97 130.251 339.77 130.931 339.37C131.651 338.97 132.151 338.17 132.431 336.97C132.711 335.77 132.851 334.01 132.851 331.69V317.59H137.951V331.69C137.951 334.85 137.611 337.39 136.931 339.31C136.251 341.19 135.171 342.55 133.691 343.39C132.211 344.19 130.271 344.59 127.871 344.59H121.331ZM108.791 344.59C108.551 344.59 108.351 344.55 108.191 344.47C108.031 344.35 107.911 344.19 107.831 343.99C107.751 343.79 107.691 343.55 107.651 343.27C107.611 342.95 107.591 342.61 107.591 342.25C107.591 341.77 107.631 341.37 107.711 341.05C107.751 340.73 107.871 340.47 108.071 340.27C108.231 340.07 108.471 339.97 108.791 339.97V344.59ZM161.464 344.59V339.97H190.984L188.164 342.85V301.63H193.324V344.59H161.464ZM170.884 339.97V310.15H175.984V339.97H170.884ZM167.764 306.13L165.724 304.51L168.424 300.73H171.724C172.124 301.21 172.664 301.57 173.344 301.81C174.064 302.05 174.744 302.17 175.384 302.17C176.104 302.17 176.764 302.07 177.364 301.87C178.004 301.63 178.544 301.29 178.984 300.85L180.724 302.29C180.324 302.93 179.824 303.53 179.224 304.09C178.664 304.61 178.004 305.03 177.244 305.35C176.484 305.67 175.624 305.83 174.664 305.83C173.784 305.83 172.904 305.69 172.024 305.41C171.184 305.09 170.464 304.65 169.864 304.09L167.764 306.13ZM203.788 344.59V301.63H208.888V344.59H203.788ZM259.235 344.59V339.97H265.715V344.59H259.235ZM253.595 358.33L254.375 362.47C252.495 362.87 250.755 363.17 249.155 363.37C247.595 363.61 246.095 363.73 244.655 363.73C241.695 363.73 239.115 363.27 236.915 362.35C234.755 361.43 233.095 360.07 231.935 358.27C230.775 356.47 230.195 354.31 230.195 351.79C230.195 349.27 230.775 347.13 231.935 345.37C233.095 343.61 234.755 342.27 236.915 341.35C239.115 340.43 241.715 339.97 244.715 339.97H254.195V344.59H244.715C241.475 344.59 239.095 345.19 237.575 346.39C236.095 347.63 235.355 349.45 235.355 351.85C235.355 354.21 236.095 356.01 237.575 357.25C239.095 358.49 241.455 359.11 244.655 359.11C245.655 359.11 246.875 359.05 248.315 358.93C249.755 358.81 251.515 358.61 253.595 358.33ZM233.795 320.29L233.255 316.09C234.895 315.69 236.695 315.35 238.655 315.07C240.615 314.75 242.515 314.59 244.355 314.59C247.395 314.59 250.035 315.07 252.275 316.03C254.515 316.99 256.235 318.39 257.435 320.23C258.635 322.07 259.235 324.33 259.235 327.01V344.59H254.195V327.01C254.195 324.41 253.375 322.47 251.735 321.19C250.095 319.91 247.635 319.27 244.355 319.27C243.315 319.27 241.835 319.37 239.915 319.57C237.995 319.73 235.955 319.97 233.795 320.29ZM265.715 344.59V339.97C265.955 339.97 266.155 340.03 266.315 340.15C266.475 340.23 266.595 340.37 266.675 340.57C266.755 340.77 266.815 341.01 266.855 341.29C266.895 341.57 266.915 341.89 266.915 342.25C266.915 342.61 266.895 342.95 266.855 343.27C266.815 343.55 266.755 343.79 266.675 343.99C266.595 344.19 266.475 344.35 266.315 344.47C266.155 344.55 265.955 344.59 265.715 344.59ZM241.775 310.15V304.57H246.935V310.15H241.775ZM277.285 344.59V339.97H283.765V344.59H277.285ZM265.705 344.59C265.465 344.59 265.265 344.55 265.105 344.47C264.945 344.35 264.825 344.19 264.745 343.99C264.665 343.79 264.605 343.55 264.565 343.27C264.525 342.95 264.505 342.61 264.505 342.25C264.505 341.77 264.545 341.37 264.625 341.05C264.665 340.73 264.785 340.47 264.985 340.27C265.145 340.07 265.385 339.97 265.705 339.97V344.59ZM265.705 344.59V339.97H274.645L272.185 342.01V314.59H277.285V344.59H265.705ZM283.765 344.59V339.97C284.005 339.97 284.205 340.03 284.365 340.15C284.525 340.23 284.645 340.37 284.725 340.57C284.805 340.77 284.865 341.01 284.905 341.29C284.945 341.57 284.965 341.89 284.965 342.25C284.965 342.61 284.945 342.95 284.905 343.27C284.865 343.55 284.805 343.79 284.725 343.99C284.645 344.19 284.525 344.35 284.365 344.47C284.205 344.55 284.005 344.59 283.765 344.59ZM272.185 355.69V350.11H277.345V355.69H272.185ZM322.692 344.59V339.97H329.112V344.59H322.692ZM283.752 344.59V339.97H323.832L319.152 344.11V330.25C319.152 327.77 318.812 325.73 318.132 324.13C317.452 322.49 316.432 321.27 315.072 320.47C313.752 319.63 312.072 319.21 310.032 319.21C308.272 319.21 306.632 319.51 305.112 320.11C303.632 320.71 302.252 321.49 300.972 322.45C299.692 323.41 298.492 324.47 297.372 325.63C296.292 326.75 295.292 327.89 294.372 329.05C293.452 330.21 292.612 331.27 291.852 332.23L290.292 327.73C291.572 326.09 292.852 324.49 294.132 322.93C295.452 321.37 296.872 319.97 298.392 318.73C299.912 317.49 301.632 316.49 303.552 315.73C305.472 314.97 307.672 314.59 310.152 314.59C312.992 314.59 315.312 315.07 317.112 316.03C318.952 316.95 320.392 318.21 321.432 319.81C322.472 321.37 323.192 323.07 323.592 324.91C324.032 326.71 324.252 328.49 324.252 330.25V344.59H283.752ZM287.712 339.97V301.63H292.872V339.97H287.712ZM283.752 344.59C283.512 344.59 283.312 344.55 283.152 344.47C282.992 344.35 282.872 344.19 282.792 343.99C282.712 343.79 282.652 343.55 282.612 343.27C282.572 342.95 282.552 342.61 282.552 342.25C282.552 341.77 282.592 341.37 282.672 341.05C282.712 340.73 282.832 340.47 283.032 340.27C283.192 340.07 283.432 339.97 283.752 339.97V344.59ZM329.112 344.59V339.97C329.352 339.97 329.552 340.03 329.712 340.15C329.872 340.23 329.992 340.37 330.072 340.57C330.152 340.77 330.212 341.01 330.252 341.29C330.292 341.57 330.312 341.89 330.312 342.25C330.312 342.61 330.292 342.95 330.252 343.27C330.212 343.55 330.152 343.79 330.072 343.99C329.992 344.19 329.872 344.35 329.712 344.47C329.552 344.55 329.352 344.59 329.112 344.59ZM363.304 344.59V339.97H369.784V344.59H363.304ZM329.104 344.59C328.864 344.59 328.664 344.55 328.504 344.47C328.344 344.35 328.224 344.19 328.144 343.99C328.064 343.79 328.004 343.55 327.964 343.27C327.924 342.95 327.904 342.61 327.904 342.25C327.904 341.77 327.944 341.37 328.024 341.05C328.064 340.73 328.184 340.47 328.384 340.27C328.544 340.07 328.784 339.97 329.104 339.97V344.59ZM329.104 344.59V339.97H361.684L358.204 342.49V329.89C358.204 327.17 357.884 325.03 357.244 323.47C356.644 321.91 355.584 320.81 354.064 320.17C352.584 319.53 350.564 319.21 348.004 319.21C346.324 319.21 344.664 319.33 343.024 319.57C341.384 319.77 340.104 320.07 339.184 320.47L342.304 317.35C342.064 318.31 341.824 319.53 341.584 321.01C341.344 322.45 341.144 324.01 340.984 325.69C340.824 327.33 340.744 328.97 340.744 330.61C340.744 332.29 340.824 333.95 340.984 335.59C341.144 337.23 341.324 338.65 341.524 339.85C341.724 341.01 341.884 341.83 342.004 342.31L337.144 343.69C336.984 343.17 336.784 342.27 336.544 340.99C336.304 339.71 336.084 338.17 335.884 336.37C335.724 334.57 335.644 332.65 335.644 330.61C335.644 328.65 335.744 326.75 335.944 324.91C336.144 323.03 336.364 321.33 336.604 319.81C336.884 318.29 337.144 317.07 337.384 316.15C338.264 315.79 339.664 315.43 341.584 315.07C343.544 314.71 345.684 314.53 348.004 314.53C351.404 314.53 354.244 315.03 356.524 316.03C358.804 317.03 360.504 318.65 361.624 320.89C362.744 323.13 363.304 326.13 363.304 329.89V344.59H329.104ZM369.784 344.59V339.97C370.024 339.97 370.224 340.03 370.384 340.15C370.544 340.23 370.664 340.37 370.744 340.57C370.824 340.77 370.884 341.01 370.924 341.29C370.964 341.57 370.984 341.89 370.984 342.25C370.984 342.61 370.964 342.95 370.924 343.27C370.884 343.55 370.824 343.79 370.744 343.99C370.664 344.19 370.544 344.35 370.384 344.47C370.224 344.55 370.024 344.59 369.784 344.59ZM376.968 344.59V301.63H382.128V344.59H376.968ZM369.768 344.59V339.97H376.968V344.59H369.768ZM369.768 344.59C369.528 344.59 369.328 344.55 369.168 344.47C369.008 344.35 368.888 344.19 368.808 343.99C368.728 343.79 368.668 343.55 368.628 343.27C368.588 342.95 368.568 342.61 368.568 342.25C368.568 341.77 368.608 341.37 368.688 341.05C368.728 340.73 368.848 340.47 369.048 340.27C369.208 340.07 369.448 339.97 369.768 339.97V344.59ZM392.343 344.59V301.63H397.443V344.59H392.343ZM441.31 344.59V314.59H446.47V342.01L443.95 339.97H452.89V344.59H441.31ZM428.41 325.15V320.47H441.31V325.15H428.41ZM417.13 358.09C416.61 358.09 416.07 358.05 415.51 357.97C414.91 357.93 414.33 357.89 413.77 357.85L414.25 353.23C414.81 353.27 415.35 353.31 415.87 353.35C416.35 353.43 416.77 353.47 417.13 353.47C418.97 353.47 420.45 352.77 421.57 351.37C422.69 349.97 423.25 348.03 423.25 345.55V314.59H428.41V345.55C428.41 348.03 427.93 350.21 426.97 352.09C426.01 354.01 424.67 355.49 422.95 356.53C421.27 357.57 419.33 358.09 417.13 358.09ZM452.89 344.59V339.97C453.13 339.97 453.33 340.03 453.49 340.15C453.65 340.23 453.77 340.37 453.85 340.57C453.93 340.77 453.99 341.01 454.03 341.29C454.07 341.57 454.09 341.89 454.09 342.25C454.09 342.61 454.07 342.95 454.03 343.27C453.99 343.55 453.93 343.79 453.85 343.99C453.77 344.19 453.65 344.35 453.49 344.47C453.33 344.55 453.13 344.59 452.89 344.59ZM441.31 355.69V350.11H446.47V355.69H441.31ZM465.692 344.29C463.532 342.45 461.892 340.35 460.772 337.99C459.652 335.63 459.092 333.13 459.092 330.49C459.092 328.21 459.492 326.11 460.292 324.19C461.132 322.23 462.252 320.53 463.652 319.09C465.092 317.65 466.772 316.55 468.692 315.79C470.612 314.99 472.672 314.59 474.872 314.59C476.072 314.59 477.332 314.71 478.652 314.95C479.972 315.19 481.252 315.53 482.492 315.97L480.812 320.29C479.812 319.97 478.812 319.71 477.812 319.51C476.812 319.31 475.872 319.21 474.992 319.21C472.912 319.21 471.052 319.69 469.412 320.65C467.772 321.61 466.492 322.95 465.572 324.67C464.692 326.35 464.252 328.29 464.252 330.49C464.252 332.49 464.652 334.37 465.452 336.13C466.292 337.89 467.512 339.47 469.112 340.87L465.692 344.29ZM452.912 344.59V339.97H483.212V344.59H452.912ZM452.912 344.59C452.672 344.59 452.472 344.55 452.312 344.47C452.152 344.35 452.032 344.19 451.952 343.99C451.872 343.79 451.812 343.55 451.772 343.27C451.732 342.95 451.712 342.61 451.712 342.25C451.712 341.77 451.752 341.37 451.832 341.05C451.872 340.73 451.992 340.47 452.192 340.27C452.352 340.07 452.592 339.97 452.912 339.97V344.59ZM517.446 344.59C514.006 344.59 511.286 344.07 509.286 343.03C507.326 341.95 505.926 340.31 505.086 338.11C504.286 335.87 503.886 333.03 503.886 329.59C503.886 326.19 504.286 323.37 505.086 321.13C505.926 318.89 507.326 317.25 509.286 316.21C511.286 315.13 514.006 314.59 517.446 314.59H530.046V342.01H524.886V317.23L527.226 319.21H517.446C515.246 319.21 513.526 319.49 512.286 320.05C511.086 320.57 510.246 321.57 509.766 323.05C509.286 324.53 509.046 326.71 509.046 329.59C509.046 332.47 509.266 334.65 509.706 336.13C510.186 337.61 511.046 338.63 512.286 339.19C513.526 339.71 515.246 339.97 517.446 339.97H536.526V344.59H517.446ZM536.526 344.59V339.97C536.766 339.97 536.966 340.03 537.126 340.15C537.286 340.23 537.406 340.37 537.486 340.57C537.566 340.77 537.626 341.01 537.666 341.29C537.706 341.57 537.726 341.89 537.726 342.25C537.726 342.61 537.706 342.95 537.666 343.27C537.626 343.55 537.566 343.79 537.486 343.99C537.406 344.19 537.286 344.35 537.126 344.47C536.966 344.55 536.766 344.59 536.526 344.59ZM511.266 309.19V303.61H516.366V309.19H511.266ZM519.846 309.19V303.61H524.946V309.19H519.846ZM548.885 344.59V339.97H555.305V344.59H548.885ZM536.525 344.59C536.285 344.59 536.085 344.55 535.925 344.47C535.765 344.35 535.645 344.19 535.565 343.99C535.485 343.79 535.425 343.55 535.385 343.27C535.345 342.95 535.325 342.61 535.325 342.25C535.325 341.77 535.365 341.37 535.445 341.05C535.485 340.73 535.605 340.47 535.805 340.27C535.965 340.07 536.205 339.97 536.525 339.97V344.59ZM543.725 344.59V301.63H548.885V344.59H543.725ZM536.525 344.59V339.97H543.725V344.59H536.525ZM555.305 344.59V339.97C555.545 339.97 555.745 340.03 555.905 340.15C556.065 340.23 556.185 340.37 556.265 340.57C556.345 340.77 556.405 341.01 556.445 341.29C556.485 341.57 556.505 341.89 556.505 342.25C556.505 342.61 556.485 342.95 556.445 343.27C556.405 343.55 556.345 343.79 556.265 343.99C556.185 344.19 556.065 344.35 555.905 344.47C555.745 344.55 555.545 344.59 555.305 344.59ZM555.334 344.59V339.97H581.674L580.114 341.35V327.01C580.114 324.41 579.294 322.47 577.654 321.19C576.054 319.91 573.614 319.27 570.334 319.27C569.294 319.27 567.814 319.37 565.894 319.57C564.014 319.73 562.014 319.95 559.894 320.23L559.294 316.09C560.934 315.69 562.714 315.35 564.634 315.07C566.594 314.75 568.494 314.59 570.334 314.59C573.374 314.59 576.014 315.07 578.254 316.03C580.494 316.99 582.214 318.39 583.414 320.23C584.614 322.07 585.214 324.33 585.214 327.01V344.59H555.334ZM555.334 344.59C555.094 344.59 554.894 344.55 554.734 344.47C554.574 344.35 554.454 344.19 554.374 343.99C554.294 343.79 554.234 343.55 554.194 343.27C554.154 342.95 554.134 342.61 554.134 342.25C554.134 341.77 554.174 341.37 554.254 341.05C554.294 340.73 554.414 340.47 554.614 340.27C554.774 340.07 555.014 339.97 555.334 339.97V344.59ZM589.571 358.09C589.051 358.09 588.511 358.05 587.951 357.97C587.351 357.93 586.771 357.89 586.211 357.85L586.691 353.23C587.251 353.27 587.791 353.31 588.311 353.35C588.791 353.43 589.211 353.47 589.571 353.47C591.411 353.47 592.891 352.77 594.011 351.37C595.131 349.97 595.691 348.03 595.691 345.55V314.59H600.851V345.55C600.851 348.03 600.371 350.21 599.411 352.09C598.451 354.01 597.111 355.49 595.391 356.53C593.711 357.57 591.771 358.09 589.571 358.09Z" fill="#7E7E7E"/>
<path d="M166.513 215.969H127.691C124.73 234.064 117.821 248.54 106.306 260.055C93.804 272.886 78.012 279.137 58.601 279.137C41.822 279.137 28.991 276.176 20.108 270.583L6.29 240.315C24.714 248.54 41.822 252.488 57.943 251.83C78.67 251.501 93.804 235.38 96.436 215.969H70.774C48.731 215.64 31.623 209.06 19.779 196.229C8.593 184.385 3 168.593 3 148.853C3 127.139 7.935 109.702 17.476 96.2131C28.991 80.0921 46.099 71.8671 68.471 71.8671C110.254 71.8671 131.31 97.5291 131.31 148.853C131.31 159.052 130.981 172.541 130.652 188.991H166.513V215.969ZM100.055 148.853C100.055 133.39 98.739 122.533 95.778 115.624C91.172 104.767 81.96 99.1741 68.471 99.1741C45.77 99.1741 34.255 115.624 34.255 148.853C34.255 175.502 46.428 188.991 70.774 188.991H99.726L100.055 148.853Z" fill="#5D3D22"/>
<path d="M245.861 157.736C245.861 174.515 240.268 188.662 229.082 199.519C217.896 210.376 202.762 215.969 184.009 215.969H158.676V188.991H182.364C204.078 188.991 214.935 177.805 214.935 155.433V76.8021L245.861 67.5901V157.736ZM238.952 262.029C238.952 271.241 231.385 279.137 222.173 279.137C212.632 279.137 204.736 271.241 204.736 262.029C204.736 252.817 212.632 245.25 222.173 245.25C231.385 245.25 238.952 252.817 238.952 262.029ZM194.537 262.029C194.537 271.241 186.641 279.137 177.758 279.137C168.546 279.137 160.65 271.241 160.65 262.029C160.65 252.817 168.546 245.25 177.758 245.25C186.641 245.25 194.537 252.817 194.537 262.029Z" fill="#5D3D22"/>
<path d="M294.949 159.289C294.949 159.289 293.8 157.652 294.744 156.472C295.616 155.298 297.124 156.094 298.318 157.069C299.482 158.033 310.45 165.789 312.738 166.735C314.995 167.669 317.805 169.705 316.073 172.476C315.205 173.91 308.526 171.591 302.282 166.425C295.997 161.277 294.949 159.289 294.949 159.289Z" fill="#427037"/>
<path d="M292.122 146.078C292.122 146.078 291.092 144.226 292.163 142.445C293.212 140.721 295.662 142.241 296.959 143.221C298.257 144.2 309.438 152.129 312.889 154.038C316.341 155.948 324.024 158.56 322.206 161.915C320.377 165.297 312.605 163.008 307.282 159.526C301.948 156.073 293.814 147.844 292.122 146.078Z" fill="#427037"/>
<path d="M293.4 138.594C293.4 138.594 292.144 136.693 292.68 135.303C293.392 133.458 294.511 133.632 297.684 134.635C300.846 135.667 313.453 140.714 318.891 141.364C324.33 142.013 330.189 143.652 328.632 146.422C327.106 149.202 318.502 150.425 308.056 146.019C297.59 141.574 293.4 138.594 293.4 138.594Z" fill="#427037"/>
<path d="M294.852 130.589C294.852 130.589 292.067 129.305 292.693 127.14C293.36 124.957 293.834 124.996 296.498 125.237C299.173 125.449 319.17 126.904 323.891 126.878C328.613 126.852 336.075 125.512 336.217 129.759C336.328 133.995 325.625 137.31 312.807 135.254C300 133.169 294.852 130.589 294.852 130.589Z" fill="#427037"/>
<path d="M293.895 121.757C293.895 121.757 291.121 121.348 291.164 119.427C291.238 117.517 291.511 116.807 293.439 116.333C295.367 115.859 308.152 113.481 314.514 112.006C320.887 110.504 329.346 105.226 332.136 108.578C334.926 111.931 329.122 118.833 317.383 120.584C305.716 122.328 300.952 123.275 293.895 121.757Z" fill="#427037"/>
<path d="M293.112 113.021C293.112 113.021 289.239 112.93 289.111 109.914C288.685 107.309 292.16 106.806 293.343 106.453C294.526 106.101 302.643 103.155 307.544 101.127C307.544 101.127 316.495 97.7357 320.55 94.8247C324.616 91.8854 329.59 92.5628 328.772 97.3068C327.943 102.079 312.842 109.829 304.736 111.391C296.609 112.913 293.112 113.021 293.112 113.021Z" fill="#427037"/>
<path d="M290.789 102.217C290.789 102.217 286.735 102.32 286.818 99.1209C286.88 95.8828 291.683 95.4661 295.598 93.7319C299.544 92.0087 313.06 85.4693 315.785 82.568C320.267 78.0984 326.291 80.6678 324.108 86.0545C319.594 91.5132 308.586 97.8825 302.48 99.8679C296.374 101.853 290.789 102.217 290.789 102.217Z" fill="#427037"/>
<path d="M289.158 92.7891C289.158 92.7891 282.354 92.7824 286.619 87.4283C291.039 83.3888 300.011 80.4892 305.519 74.8045C310.998 69.1087 314.014 66.9893 316.182 70.9589C318.381 74.9395 310.59 82.1985 303.474 86.4384C296.359 90.6783 289.931 92.7746 289.158 92.7891Z" fill="#427037"/>
<path d="M285.591 83.9315C285.591 83.9315 282.679 84.6033 281.338 82.8333C279.996 81.0633 281.157 79.4116 283.236 77.7323C285.315 76.0531 296.85 66.8697 299.973 61.8507C303.763 54.1969 311.663 56.79 309.41 62.9911C308.409 68.5734 292.985 80.598 285.591 83.9315Z" fill="#427037"/>
<path d="M281.557 73.5821C281.557 73.5821 278.177 75.378 277.28 72.1848C276.352 68.9807 283.61 66.1799 286.667 60.4271C290.782 54.3742 293.848 47.3332 296.931 48.6594C300.014 49.9857 300.889 52.7836 296.555 58.9521C292.19 65.1097 285.279 72.1665 281.557 73.5821Z" fill="#427037"/>
<path d="M277.547 63.531C277.547 63.531 274.443 64.5215 273.204 62.756C271.966 60.9905 273.85 59.7259 275.554 57.7515C277.258 55.7771 280.764 51.5729 282.667 48.0878C284.601 44.6135 285.814 40.656 288.893 42.1744C291.971 43.6928 291.337 48.0505 288.628 52.5393C285.95 57.039 279.595 62.7448 277.547 63.531Z" fill="#427037"/>
<path d="M273.765 55.3381C273.765 55.3381 272.153 56.8934 269.942 55.7492C267.761 54.616 269.708 52.8252 271.2 49.7742C272.702 46.6947 275.383 37.483 275.842 34.9353C276.291 32.4159 283.477 30.0736 282.721 38.4553C281.966 46.8371 274.278 55.0045 273.765 55.3381Z" fill="#427037"/>
<path d="M268.012 45.538C268.012 45.538 266.078 47.2043 264.294 45.8575C262.677 44.893 263.883 42.1277 265.033 38.6963C266.193 35.2366 266.687 30.6998 266.556 27.7803C266.426 24.8608 266.259 22.6706 268.24 22.6027C270.221 22.5347 273.994 24.3333 272.621 33.1402C271.247 41.9472 268.012 45.538 268.012 45.538Z" fill="#427037"/>
<path d="M259.518 35.5336C259.518 35.5336 255.145 36.5555 255.137 33.2278C255.13 29.9002 255.312 24.09 254.468 20.8511C253.623 17.6121 252.472 15.6196 252.472 15.6196C252.472 15.6196 251.244 11.5658 255.337 12.4454C259.441 13.2967 260.606 18.3286 261.603 25.7863C262.752 33.8468 259.518 35.5336 259.518 35.5336Z" fill="#427037"/>
<path d="M286.551 160.409C286.551 160.409 285.754 164.321 283.916 163.958C282.069 163.616 282.938 160.339 283.97 157.731C285.256 153.579 286.835 147.433 286.981 146.167C287.126 144.901 287.764 142.153 288.531 143.036C289.282 143.963 288.168 155.74 286.551 160.409Z" fill="#427037"/>
<path d="M285.408 134.65C285.408 134.65 283.743 138.692 281.656 141.436C279.568 144.18 278.012 146.503 279.972 149.082C281.932 151.66 285.762 143.511 286.184 140.295C286.616 137.057 287.291 135.444 285.408 134.65Z" fill="#427037"/>
<path d="M281.678 136.931C281.678 136.931 278.156 139.7 276.702 137.18C275.247 134.66 277.312 133.274 279.216 132.099C281.128 130.903 283.1 128.459 283.512 127.46C283.915 126.482 285.894 126.822 284.705 130.862C283.578 134.876 281.678 136.931 281.678 136.931Z" fill="#427037"/>
<path d="M270.293 122.051C270.293 122.051 275.704 119.786 277.389 118.224C279.073 116.662 282.331 116.179 280.996 120.996C279.661 125.814 274.205 131.905 271.457 129.439C268.689 126.934 268.482 123.309 270.293 122.051Z" fill="#427037"/>
<path d="M278.528 111.917C278.528 111.917 275.437 116.398 271.35 114.779C267.264 113.159 266.609 106.985 269.565 107.104C272.54 107.262 276.725 106.818 277.579 106.413C278.454 106.047 280.682 106.875 278.528 111.917Z" fill="#427037"/>
<path d="M277.661 102.051C277.661 102.051 275.355 106.942 270.172 104.092C265.001 101.213 264.744 92.9222 267.155 94.3635C269.565 95.8048 273.661 98.3963 275.736 98.2652C277.739 98.1405 277.963 100.997 277.661 102.051Z" fill="#427037"/>
<path d="M272.099 94.578C272.099 94.578 276.418 95.0539 275.508 91.9852C274.598 88.9165 272.402 89.3598 270.007 87.2459C267.611 85.1321 264.26 81.5151 264.914 85.4286C265.568 89.3421 268.315 93.7118 272.099 94.578Z" fill="#427037"/>
<path d="M270.953 85.3243C270.953 85.3243 274.376 85.771 273.236 82.8461C272.095 79.9213 269.365 79.8509 267.598 77.2835C265.843 74.6878 263.671 73.6222 264.364 77.1624C265.038 80.6632 267.728 84.3669 270.953 85.3243Z" fill="#427037"/>
<path d="M269.243 76.5479C269.243 76.5479 273.035 78.4819 271.193 74.2091C269.382 69.9473 265.978 67.732 264.792 64.1128C263.594 60.5219 262.221 62.9049 263.458 67.0265C264.684 71.1763 267.959 75.896 269.243 76.5479Z" fill="#427037"/>
<path d="M270.189 65.7798C270.189 65.7798 272.481 70.6971 269.423 68.67C266.366 66.6428 261.321 56.288 262.972 52.0995C263.866 50.8689 264.113 55.0243 266.053 58.5897C267.993 62.1551 270.189 65.7798 270.189 65.7798Z" fill="#427037"/>
<path d="M259.146 46.1829C259.146 46.1829 260.902 49.6826 260.734 46.5884C260.567 43.4942 256.862 37.2653 255.993 33.7272C255.125 30.189 253.669 28.443 254.517 33.8458C255.364 39.2487 259.146 46.1829 259.146 46.1829Z" fill="#427037"/>
<path d="M250.627 26.5505C250.627 26.5505 251.76 27.5036 251.562 23.9465C251.364 20.3894 250.134 18.2396 249.9 14.4116C249.678 10.5553 249.851 4.67751 248.463 5.9251C247.074 7.1727 248.177 16.7987 248.879 19.5026C249.611 22.2174 249.827 25.9099 250.627 26.5505Z" fill="#427037"/>
<path d="M293.315 153.572C293.315 153.572 297.9 157.79 302.77 161.723C303.995 162.709 305.231 163.667 306.397 164.535C306.995 164.974 307.574 165.374 308.122 165.764C308.68 166.124 309.198 166.503 309.706 166.813C310.215 167.124 310.662 167.412 311.1 167.633C311.538 167.854 311.915 168.053 312.211 168.191C312.844 168.45 313.243 168.592 313.243 168.592C313.243 168.592 312.875 168.461 312.2 168.22C311.873 168.071 311.497 167.872 311.058 167.651C310.62 167.43 310.173 167.141 309.654 166.859C309.145 166.548 308.617 166.199 308.027 165.827C307.48 165.438 306.87 165.026 306.261 164.615C305.054 163.765 303.776 162.825 302.54 161.867C297.565 158.026 292.833 153.916 292.833 153.916L293.315 153.572Z" fill="#70AC44"/>
<path d="M290.768 139.815C290.768 139.815 292.219 141.301 294.562 143.461C296.905 145.621 300.089 148.403 303.453 150.992C304.284 151.643 305.156 152.277 305.998 152.901C306.839 153.524 307.703 154.09 308.536 154.646C310.243 155.739 311.84 156.664 313.309 157.382C314.043 157.741 314.727 158.049 315.329 158.297C315.943 158.515 316.495 158.713 316.966 158.848C317.396 159.002 317.786 159.076 318.042 159.136C318.298 159.195 318.421 159.239 318.421 159.239C318.421 159.239 318.287 159.223 318.031 159.164C317.775 159.105 317.415 159.041 316.944 158.905C316.504 158.78 315.941 158.612 315.296 158.382C314.694 158.134 313.999 157.854 313.254 157.524C311.775 156.834 310.136 155.927 308.417 154.862C307.574 154.335 306.68 153.757 305.827 153.162C304.975 152.568 304.102 151.934 303.23 151.3C296.325 146.22 290.232 140.301 290.232 140.301L290.768 139.815Z" fill="#70AC44"/>
<path d="M289.283 132.346C289.283 132.346 291.359 133.57 294.609 135.279C297.828 136.976 302.243 139.101 306.79 140.885C307.945 141.329 309.08 141.735 310.215 142.14C311.351 142.545 312.508 142.893 313.614 143.191C314.721 143.489 315.797 143.776 316.833 143.985C317.87 144.193 318.845 144.38 319.761 144.448C320.685 144.585 321.509 144.62 322.272 144.634C322.622 144.63 322.973 144.626 323.323 144.622C323.643 144.607 323.932 144.581 324.191 144.544C324.728 144.51 325.142 144.432 325.411 144.367C325.122 144.392 324.728 144.51 324.191 144.544C323.913 144.542 323.643 144.607 323.323 144.622C323.003 144.637 322.653 144.641 322.272 144.634C321.54 144.631 320.685 144.585 319.78 144.488C318.875 144.391 317.889 144.232 316.842 144.052C315.805 143.844 314.719 143.585 313.601 143.316C312.494 143.017 311.338 142.669 310.211 142.332C309.065 141.955 307.899 141.539 306.734 141.123C302.123 139.413 297.686 137.345 294.414 135.694C291.142 134.042 289.025 132.834 289.025 132.834L289.283 132.346Z" fill="#70AC44"/>
<path d="M286.947 124.022C286.947 124.022 287.037 124.151 287.25 124.323C287.493 124.507 287.879 124.774 288.398 125.056C288.663 125.183 288.948 125.349 289.275 125.498C289.612 125.618 289.969 125.778 290.357 125.949C291.155 126.234 292.064 126.59 293.079 126.856C294.082 127.149 295.2 127.419 296.39 127.682C297.58 127.945 298.822 128.163 300.126 128.402C301.421 128.574 302.755 128.824 304.164 128.971C305.542 129.108 306.94 129.284 308.36 129.404C309.749 129.512 311.169 129.631 312.558 129.74C313.928 129.809 315.297 129.878 316.636 129.936C317.964 130.022 319.222 130.019 320.427 130.062C321.632 130.104 322.775 130.125 323.847 130.153C328.073 130.144 330.867 130.14 330.867 130.14C330.867 130.14 328.063 130.172 323.845 130.249C322.773 130.221 321.649 130.24 320.433 130.226C319.217 130.211 317.96 130.214 316.621 130.156C315.313 130.109 313.932 130.068 312.552 130.028C311.182 129.959 309.763 129.839 308.362 129.759C306.962 129.679 305.534 129.492 304.145 129.384C302.766 129.247 301.39 129.015 300.084 128.871C298.77 128.66 297.527 128.443 296.296 128.197C295.106 127.934 293.977 127.693 292.943 127.388C291.929 127.123 290.978 126.784 290.18 126.499C289.792 126.328 289.393 126.186 289.067 126.037C288.71 125.877 288.394 125.7 288.129 125.573C287.579 125.28 287.162 125.002 286.858 124.797C286.595 124.574 286.444 124.423 286.433 124.451L286.947 124.022Z" fill="#70AC44"/>
<path d="M285.272 118.776C285.272 118.776 285.973 118.768 287.189 118.782C288.405 118.797 290.116 118.794 292.2 118.731C296.326 118.621 301.847 118.332 307.265 117.586C308.619 117.424 309.965 117.193 311.31 116.963C312.625 116.722 313.919 116.442 315.173 116.179C316.406 115.877 317.609 115.563 318.72 115.217C319.83 114.871 320.869 114.532 321.785 114.148C322.731 113.776 323.544 113.388 324.284 113.007C324.639 112.81 324.952 112.632 325.266 112.453C325.579 112.274 325.82 112.102 326.061 111.93C326.563 111.624 326.889 111.321 327.13 111.149C327.382 110.948 327.487 110.857 327.487 110.857C327.487 110.857 327.351 110.937 327.13 111.149C326.889 111.321 326.552 111.653 326.061 111.93C325.831 112.074 325.548 112.263 325.266 112.453C324.952 112.632 324.639 112.81 324.284 113.007C323.544 113.388 322.751 113.815 321.804 114.188C320.889 114.571 319.839 114.939 318.748 115.324C317.637 115.67 316.454 116.023 315.221 116.325C313.987 116.628 312.693 116.908 311.367 117.177C310.052 117.418 308.696 117.677 307.331 117.868C301.891 118.67 296.398 119.067 292.25 119.233C290.197 119.307 288.434 119.356 287.248 119.352C286.052 119.377 285.351 119.385 285.351 119.385L285.272 118.776Z" fill="#70AC44"/>
<path d="M283.314 110.913C283.314 110.913 285.95 110.595 289.902 109.939C290.875 109.77 291.931 109.565 293.06 109.355C294.168 109.105 295.358 108.916 296.58 108.642C297.803 108.368 299.056 108.105 300.301 107.775C301.565 107.483 302.851 107.135 304.117 106.748C305.392 106.428 306.639 106.001 307.875 105.603C309.11 105.204 310.265 104.745 311.439 104.325C312.583 103.893 313.676 103.412 314.716 102.976C315.737 102.501 316.686 102.033 317.551 101.599C318.417 101.165 319.14 100.649 319.838 100.285C320.537 99.9208 321.052 99.4911 321.523 99.175C322.404 98.5208 322.938 98.1305 322.938 98.1305C322.938 98.1305 322.404 98.5208 321.554 99.1859C321.113 99.513 320.599 99.9427 319.889 100.335C319.21 100.738 318.487 101.255 317.621 101.689C316.756 102.122 315.827 102.63 314.806 103.105C313.766 103.541 312.703 104.033 311.549 104.493C310.374 104.913 309.209 105.401 307.973 105.799C306.738 106.198 305.48 106.653 304.194 107.001C302.928 107.388 301.672 107.747 300.397 108.067C299.142 108.426 297.878 108.718 296.655 108.991C295.422 109.294 294.252 109.522 293.143 109.772C292.015 109.983 290.948 110.215 289.975 110.385C286.031 111.108 283.385 111.454 283.385 111.454L283.314 110.913Z" fill="#70AC44"/>
<path d="M281.004 101.245C281.004 101.245 281.677 101.13 282.858 100.873C284.039 100.617 285.697 100.208 287.709 99.699C288.694 99.4052 289.772 99.1443 290.914 98.8091C292.055 98.474 293.238 98.1214 294.443 97.7121C295.668 97.3421 296.926 96.887 298.183 96.4319C299.46 96.0161 300.689 95.454 301.958 94.9705C303.207 94.4477 304.436 93.8856 305.684 93.3628C306.883 92.7897 308.05 92.2057 309.157 91.5997C310.232 90.9829 311.328 90.4053 312.3 89.784C313.273 89.1626 314.193 88.5871 315.01 88.0071C315.808 87.3878 316.511 86.8317 317.15 86.3497C317.308 86.2123 317.455 86.1033 317.602 85.9943C317.748 85.8853 317.875 85.7369 318.022 85.6279C318.254 85.3879 318.476 85.1763 318.697 84.9647C319.529 84.1642 320.013 83.7236 320.013 83.7236C320.013 83.7236 319.529 84.1642 318.728 84.9757C318.506 85.1873 318.285 85.3989 318.053 85.6388C317.937 85.7588 317.779 85.8962 317.663 86.0162C317.516 86.1252 317.358 86.2626 317.212 86.3716C316.592 86.8929 315.889 87.449 315.091 88.0683C314.274 88.6483 313.385 89.2348 312.432 89.8955C311.459 90.5168 310.395 91.1053 309.308 91.7506C308.202 92.3565 307.034 92.9405 305.855 93.5529C304.626 94.115 303.397 94.6772 302.179 95.2109C300.9 95.7228 299.671 96.2849 298.413 96.74C297.145 97.2235 295.929 97.6612 294.682 98.0879C293.477 98.4972 292.283 98.8782 291.172 99.2242C290.02 99.5877 288.973 99.8597 287.956 100.143C285.965 100.691 284.295 101.128 283.114 101.385C281.923 101.669 281.25 101.784 281.25 101.784L281.004 101.245Z" fill="#70AC44"/>
<path d="M278.354 92.3886C278.354 92.3886 278.499 92.3757 278.799 92.3214C279.088 92.2955 279.502 92.2173 280.03 92.1152C280.558 92.0131 281.2 91.887 281.967 91.7088C282.703 91.5195 283.542 91.3348 284.445 91.0758C284.912 90.9518 285.378 90.8278 285.856 90.6754C286.334 90.5231 286.811 90.3707 287.33 90.2009C288.358 89.8897 289.399 89.454 290.49 89.0686C291.031 88.842 291.572 88.6155 292.113 88.3889C292.654 88.1624 293.237 87.9184 293.758 87.6525C294.843 87.1034 295.947 86.5935 297.022 85.9766C297.555 85.6824 298.087 85.3881 298.619 85.0939C299.132 84.7603 299.645 84.4268 300.146 84.1216C300.628 83.777 301.161 83.4828 301.612 83.1273C302.063 82.7719 302.545 82.4273 302.985 82.1002C303.938 81.4396 304.707 80.7132 305.465 80.0153C305.844 79.6663 306.223 79.3173 306.58 79.0251C306.917 78.6935 307.224 78.351 307.531 78.0085C308.133 77.3518 308.702 76.7803 309.2 76.2153C309.625 75.6567 310.028 75.1549 310.325 74.7447C310.952 73.9352 311.344 73.4618 311.344 73.4618C311.344 73.4618 310.993 73.9178 310.356 74.7557C310.058 75.1659 309.655 75.6677 309.219 76.2546C308.764 76.8022 308.183 77.4021 307.612 78.0697C307.316 78.3838 306.998 78.7547 306.661 79.0863C306.324 79.4178 305.945 79.7668 305.566 80.1158C304.808 80.8138 304.028 81.5685 303.106 82.2401C302.655 82.5956 302.203 82.951 301.752 83.3065C301.29 83.6904 300.788 83.9956 300.306 84.3401C299.794 84.6736 299.312 85.0182 298.799 85.3517C298.267 85.646 297.754 85.9795 297.222 86.2738C296.177 86.9016 295.062 87.4398 293.977 87.989C293.445 88.2833 292.873 88.4989 292.321 88.7538C291.78 88.9803 291.228 89.2353 290.687 89.4618C289.585 89.8756 288.544 90.3113 287.517 90.6225C286.998 90.7923 286.509 90.973 286.031 91.1254C285.554 91.2778 285.087 91.4018 284.609 91.5542C283.696 91.8415 282.857 92.0263 282.121 92.2155C281.365 92.3654 280.701 92.5482 280.173 92.6503C279.634 92.7807 279.189 92.848 278.889 92.9023C278.589 92.9566 278.414 92.9586 278.414 92.9586L278.354 92.3886Z" fill="#70AC44"/>
<path d="M275.765 85.0729C275.765 85.0729 277.962 84.0815 281.103 82.3619C281.877 81.8953 282.742 81.4617 283.62 80.9036C284.07 80.6442 284.519 80.3848 284.979 80.097C285.439 79.8092 285.899 79.5215 286.37 79.2053C287.331 78.6124 288.254 77.9408 289.207 77.2801C290.16 76.6194 291.073 75.8801 292.037 75.1911C292.95 74.4518 293.864 73.7125 294.747 72.9622C295.178 72.5674 295.599 72.201 295.999 71.7953C296.42 71.4289 296.852 71.0341 297.211 70.6458C297.601 70.2684 297.991 69.8911 298.35 69.5027C298.74 69.1254 299.088 68.7654 299.375 68.3836C300.021 67.6135 300.665 66.9394 301.175 66.2499C301.686 65.5604 302.143 64.9168 302.549 64.3189C302.973 63.7603 303.223 63.2038 303.49 62.7826C303.994 61.9294 304.294 61.4231 304.294 61.4231C304.294 61.4231 304.025 61.9403 303.521 62.7936C303.254 63.2147 303.004 63.7713 302.599 64.3691C302.205 64.9386 301.736 65.6107 301.256 66.3111C300.746 67.0006 300.122 67.714 299.506 68.4951C299.178 68.8944 298.86 69.2653 298.47 69.6426C298.111 70.0309 297.721 70.4083 297.351 70.825C296.992 71.2133 296.56 71.6081 296.17 71.9854C295.77 72.3912 295.349 72.7576 294.918 73.1524C294.054 73.9419 293.141 74.6812 292.258 75.4315C291.314 76.1599 290.401 76.8992 289.448 77.5598C288.484 78.2489 287.562 78.9205 286.631 79.5244C286.16 79.8405 285.7 80.1283 285.24 80.4161C284.78 80.7038 284.319 80.9916 283.901 81.2619C283.023 81.8201 282.177 82.293 281.404 82.7596C278.271 84.5469 276.093 85.5776 276.093 85.5776L275.765 85.0729Z" fill="#70AC44"/>
<path d="M272.606 76.0691C272.606 76.0691 274.352 74.9813 276.775 73.1342C277.373 72.6697 278.023 72.1594 278.696 71.5924C279.388 71.0647 280.052 70.4299 280.807 69.828C281.502 69.2042 282.238 68.563 282.965 67.8541C283.681 67.1735 284.439 66.4756 285.105 65.7447L286.15 64.6649C286.498 64.305 286.816 63.9341 287.164 63.5742C287.482 63.2033 287.83 62.8434 288.148 62.4725C288.465 62.1016 288.752 61.7198 289.059 61.3773C289.376 61.0064 289.652 60.6529 289.928 60.2995C290.204 59.946 290.449 59.5816 290.714 59.2565C291.225 58.567 291.713 57.9343 292.099 57.2971C292.515 56.6708 292.878 56.0904 293.209 55.5951C293.509 55.0888 293.767 54.5999 293.982 54.2246C294.411 53.4739 294.648 53.0418 294.648 53.0418C294.648 53.0418 294.411 53.4739 294.013 54.2355C293.798 54.6109 293.551 55.0714 293.27 55.617C292.97 56.1232 292.607 56.7037 292.191 57.3299C291.805 57.9671 291.337 58.6392 290.826 59.3287C290.581 59.6931 290.305 60.0465 290.06 60.411C289.784 60.7644 289.497 61.1462 289.221 61.4997C288.934 61.8815 288.616 62.2524 288.329 62.6342C288.012 63.0051 287.694 63.376 287.377 63.7469C287.059 64.1178 286.741 64.4887 286.382 64.877L285.357 65.9961C284.68 66.7553 283.953 67.4642 283.268 68.1557C282.582 68.8472 281.835 69.5168 281.13 70.169C280.405 70.7818 279.741 71.4166 279.068 71.9836C278.396 72.5507 277.776 73.0719 277.167 73.5648C274.784 75.4905 273.027 76.6067 273.027 76.6067L272.606 76.0691Z" fill="#70AC44"/>
<path d="M269.256 65.5764C269.256 65.5764 269.622 65.3518 270.229 64.955C270.836 64.5582 271.725 63.9718 272.711 63.226C273.204 62.8531 273.749 62.4344 274.306 61.9873C274.862 61.5403 275.44 61.0364 276.019 60.5326C276.597 60.0288 277.197 59.4682 277.797 58.9076C278.367 58.3361 278.998 57.7865 279.517 57.1647C280.067 56.5539 280.647 55.954 281.135 55.3213C281.389 55.0246 281.655 54.6995 281.909 54.4028C282.132 54.0951 282.366 53.7591 282.62 53.4624C282.844 53.1547 283.067 52.8471 283.291 52.5394C283.514 52.2318 283.696 51.9415 283.888 51.6229C284.252 51.0425 284.646 50.473 284.885 49.9448C285.165 49.3992 285.454 48.9213 285.66 48.4782C285.866 48.0352 286.019 47.638 286.151 47.2975C286.433 46.6558 286.586 46.2585 286.586 46.2585C286.586 46.2585 286.444 46.6274 286.192 47.28C286.061 47.6205 285.908 48.0178 285.702 48.4608C285.496 48.9039 285.238 49.3927 284.957 49.9383C284.708 50.4949 284.355 51.0469 283.981 51.6558C283.799 51.946 283.637 52.2756 283.413 52.5832C283.221 52.9018 282.967 53.1985 282.774 53.5171C282.55 53.8248 282.347 54.1717 282.093 54.4685C281.869 54.7761 281.604 55.1012 281.35 55.3979C280.851 56.059 280.301 56.6698 279.782 57.2916C279.252 57.9418 278.652 58.5024 278.102 59.1132C277.532 59.6847 276.932 60.2453 276.374 60.7884C275.784 61.3206 275.237 61.8354 274.68 62.2825C274.155 62.7405 273.609 63.1592 273.105 63.5604C272.109 64.3346 271.25 64.932 270.632 65.3572C270.014 65.7824 269.649 66.0069 269.649 66.0069L269.256 65.5764Z" fill="#70AC44"/>
<path d="M266.288 59.6108C266.288 59.6108 267.432 58.2757 268.954 56.1395C269.72 55.0572 270.583 53.8157 271.47 52.4213C271.908 51.7383 272.338 50.9876 272.756 50.2653C273.185 49.5146 273.584 48.7529 273.982 47.9913C274.35 47.2187 274.76 46.4286 275.097 45.6451C275.434 44.8615 275.802 44.0889 276.056 43.3402C276.321 42.5632 276.636 41.8364 276.837 41.1335C277.039 40.4306 277.301 39.7496 277.409 39.1099C277.546 38.4812 277.673 37.8809 277.798 37.3766C277.923 36.8723 277.934 36.392 278.004 36.0296C277.964 36.4029 277.923 36.8723 277.829 37.3876C277.735 37.9028 277.608 38.5031 277.47 39.1318C277.363 39.7715 277.142 40.4351 276.929 41.1663C276.759 41.8802 276.474 42.6179 276.209 43.395C275.975 44.183 275.618 44.9272 275.301 45.7501C274.963 46.5336 274.585 47.3346 274.247 48.1182C273.838 48.9082 273.47 49.6808 273.041 50.4315C272.612 51.1822 272.213 51.9438 271.775 52.6268C270.949 54.0431 270.106 55.324 269.37 56.4172C267.868 58.5927 266.744 59.9672 266.744 59.9672L266.288 59.6108Z" fill="#70AC44"/>
<path d="M261.411 49.8005C261.411 49.8005 262.355 48.6202 263.483 46.6015C263.783 46.0952 264.033 45.5387 264.355 44.9757C264.615 44.3908 264.928 43.76 265.211 43.1183C265.504 42.4483 265.767 41.7673 265.999 41.0754C266.1 40.7239 266.242 40.355 266.343 40.0036L266.656 38.9209C266.868 38.1896 267.019 37.4365 267.19 36.7226C267.371 35.9804 267.439 35.2621 267.568 34.5657C267.697 33.8693 267.723 33.1684 267.8 32.5178C267.876 31.8672 267.869 31.2514 267.882 30.675C267.895 30.0986 267.928 29.5614 267.897 29.0985C267.866 28.6356 267.855 28.212 267.842 27.8844C267.785 27.2184 267.793 26.8341 267.793 26.8341C267.793 26.8341 267.815 27.2293 267.873 27.8954C267.917 28.2339 267.939 28.6291 267.969 29.092C268 29.555 267.968 30.0921 267.985 30.6795C267.972 31.2559 267.979 31.8716 267.933 32.5332C267.857 33.1838 267.861 33.8956 267.763 34.603C267.665 35.3104 267.586 36.0571 267.446 36.7818C267.306 37.5066 267.186 38.2707 266.973 39.002L266.68 40.124C266.579 40.4755 266.468 40.8553 266.336 41.1958C266.124 41.9271 265.861 42.608 265.599 43.289C265.336 43.97 265.053 44.6117 264.793 45.1966C264.502 45.7706 264.272 46.3665 263.972 46.8728C262.894 48.9417 261.959 50.1897 261.959 50.1897L261.411 49.8005Z" fill="#70AC44"/>
<path d="M257.274 40.4468C257.274 40.4468 257.534 38.9579 257.647 36.6741C257.691 36.1086 257.684 35.4928 257.699 34.8203C257.704 34.1762 257.699 33.4644 257.694 32.7525C257.655 31.3179 257.545 29.7937 257.362 28.276C257.307 27.5139 257.149 26.7473 257.053 26.0027C256.956 25.258 256.787 24.5198 256.679 23.8035C256.572 23.0872 256.381 22.4058 256.21 21.7636C256.081 21.1041 255.888 20.5187 255.756 19.9552C255.583 19.4092 255.471 18.885 255.306 18.4067C255.161 17.9677 255.036 17.568 254.92 17.236C254.718 16.5829 254.583 16.2115 254.583 16.2115C254.583 16.2115 254.718 16.5829 254.931 17.2076C255.058 17.5112 255.183 17.9109 255.359 18.3609C255.504 18.7999 255.646 19.335 255.819 19.8811C255.993 20.4271 256.175 21.0409 256.346 21.683C256.517 22.3251 256.708 23.0066 256.846 23.7338C256.984 24.461 257.164 25.1709 257.291 25.9265C257.419 26.6821 257.577 27.4487 257.673 28.1933C257.886 29.722 258.027 31.2572 258.098 32.7027C258.133 33.4255 258.148 34.1089 258.164 34.7924C258.16 35.4365 258.186 36.0916 258.143 36.6571C258.121 38.9738 257.881 40.502 257.881 40.502L257.274 40.4468Z" fill="#70AC44"/>
<path d="M288.354 132.748C288.354 132.748 288.061 133.644 287.571 134.982C287.338 135.655 287.017 136.419 286.702 137.233C286.38 138.07 285.971 138.924 285.609 139.795C285.388 140.229 285.2 140.65 285.011 141.07C284.799 141.483 284.611 141.903 284.407 142.294C283.977 143.068 283.586 143.807 283.237 144.439C282.454 145.648 281.961 146.447 281.961 146.447C281.961 146.447 282.454 145.648 283.167 144.414C283.493 143.774 283.852 143.048 284.245 142.236C284.448 141.846 284.614 141.417 284.802 140.996C284.991 140.575 285.188 140.133 285.353 139.704C285.693 138.825 286.055 137.954 286.355 137.109C286.646 136.286 286.92 135.506 287.154 134.833C287.612 133.508 287.859 132.596 287.859 132.596L288.354 132.748Z" fill="#70AC44"/>
<path d="M286.3 124.672C286.3 124.672 286.272 124.881 286.163 125.233C286.12 125.413 286.061 125.635 285.969 125.871C285.878 126.107 285.802 126.373 285.687 126.673C285.556 126.943 285.432 127.265 285.284 127.579C285.16 127.9 284.982 128.227 284.795 128.575C284.608 128.923 284.42 129.271 284.233 129.619C284 129.95 283.782 130.312 283.548 130.643C283.315 130.975 283.119 131.344 282.863 131.667C282.606 131.99 282.35 132.314 282.101 132.615C281.876 132.925 281.628 133.227 281.419 133.494C281.179 133.775 280.956 134.012 280.732 134.25C279.878 135.165 279.304 135.765 279.304 135.765C279.304 135.765 279.863 135.135 280.671 134.203C280.871 133.958 281.095 133.72 281.335 133.44C281.552 133.151 281.769 132.863 282.002 132.531C282.227 132.221 282.461 131.89 282.717 131.566C282.951 131.235 283.146 130.866 283.356 130.526C283.575 130.165 283.785 129.825 283.972 129.477C284.136 129.12 284.323 128.772 284.51 128.424C284.697 128.076 284.844 127.763 284.953 127.412C285.077 127.09 285.216 126.798 285.332 126.498C285.44 126.219 285.516 125.953 285.584 125.709C285.675 125.473 285.703 125.264 285.761 125.113C285.838 124.775 285.866 124.566 285.866 124.566L286.3 124.672Z" fill="#70AC44"/>
<path d="M284.009 113.096C284.009 113.096 283.922 113.323 283.738 113.709C283.661 113.907 283.532 114.152 283.403 114.396C283.263 114.669 283.112 114.97 282.93 115.261C282.737 115.579 282.514 115.887 282.299 116.262C282.085 116.637 281.82 116.963 281.533 117.344C281.257 117.698 281 118.091 280.683 118.462C280.365 118.832 280.048 119.203 279.73 119.574C279.412 119.945 279.095 120.316 278.758 120.647C278.42 120.979 278.083 121.311 277.776 121.653C277.439 121.985 277.143 122.299 276.848 122.613C276.532 122.888 276.247 123.174 275.984 123.403C274.9 124.404 274.164 125.045 274.164 125.045C274.164 125.045 274.88 124.364 275.903 123.341C276.177 123.084 276.462 122.798 276.747 122.512C277.042 122.198 277.338 121.884 277.614 121.531C277.921 121.188 278.227 120.846 278.545 120.475C278.893 120.115 279.149 119.722 279.467 119.351C279.754 118.969 280.041 118.588 280.358 118.217C280.645 117.835 280.902 117.442 281.147 117.078C281.392 116.713 281.668 116.36 281.841 116.002C282.045 115.655 282.248 115.308 282.43 115.018C282.612 114.727 282.732 114.415 282.873 114.143C283.002 113.898 283.1 113.643 283.166 113.472C283.308 113.104 283.396 112.877 283.396 112.877L284.009 113.096Z" fill="#70AC44"/>
<path d="M281.802 105.787C281.802 105.787 281.458 106.407 280.77 107.195C280.591 107.389 280.4 107.611 280.21 107.834C280.019 108.056 279.767 108.257 279.504 108.486C278.99 108.916 278.433 109.363 277.837 109.731C277.524 109.91 277.241 110.1 276.898 110.267C276.584 110.446 276.262 110.557 275.929 110.697C275.627 110.847 275.285 110.919 275.005 111.012C274.849 111.054 274.724 111.106 274.569 111.147C274.413 111.189 274.269 111.202 274.155 111.225C273.896 111.262 273.627 111.328 273.41 111.347C273.193 111.366 272.976 111.386 272.831 111.399C272.511 111.414 272.325 111.444 272.325 111.444C272.325 111.444 272.511 111.414 272.811 111.36C272.956 111.347 273.173 111.327 273.401 111.279C273.618 111.26 273.857 111.184 274.126 111.118C274.282 111.077 274.396 111.053 274.551 111.012C274.676 110.96 274.832 110.918 274.956 110.866C275.237 110.772 275.559 110.661 275.861 110.511C276.153 110.389 276.486 110.25 276.768 110.06C277.071 109.91 277.353 109.72 277.647 109.502C278.212 109.122 278.738 108.664 279.191 108.213C279.412 108.001 279.644 107.761 279.804 107.528C279.995 107.305 280.174 107.111 280.323 106.906C280.95 106.097 281.21 105.512 281.21 105.512L281.802 105.787Z" fill="#70AC44"/>
<path d="M280.087 99.9134C280.087 99.9134 280.045 99.9308 279.962 99.9657C279.879 100.001 279.743 100.081 279.607 100.162C279.305 100.312 278.847 100.504 278.275 100.72C277.995 100.813 277.673 100.924 277.362 101.007C277.009 101.107 276.678 101.15 276.295 101.239C275.922 101.3 275.519 101.35 275.138 101.343C274.746 101.365 274.323 101.375 273.922 101.329C273.716 101.32 273.51 101.311 273.315 101.274C273.12 101.236 272.925 101.199 272.73 101.162C272.329 101.115 271.961 100.984 271.592 100.853C271.244 100.761 270.898 100.572 270.591 100.463C270.254 100.343 270.01 100.159 269.756 100.004C269.502 99.8484 269.267 99.7324 269.085 99.5706C268.893 99.4373 268.73 99.3148 268.599 99.2033C268.336 98.9804 268.163 98.8863 268.163 98.8863C268.163 98.8863 268.325 99.0087 268.599 99.2033C268.772 99.2974 268.934 99.4198 269.127 99.5532C269.32 99.6866 269.585 99.8135 269.82 99.9295C270.085 100.056 270.37 100.223 270.676 100.332C270.983 100.442 271.31 100.59 271.658 100.682C272.017 100.746 272.386 100.877 272.787 100.924C272.982 100.961 273.157 100.959 273.352 100.996C273.547 101.034 273.733 101.003 273.939 101.012C274.351 101.03 274.713 100.998 275.105 100.976C275.466 100.944 275.839 100.883 276.181 100.811C276.522 100.74 276.864 100.668 277.186 100.557C277.497 100.474 277.789 100.352 278.038 100.248C279.11 99.8229 279.686 99.4152 279.686 99.4152L280.087 99.9134Z" fill="#70AC44"/>
<path d="M278.031 92.4015C278.031 92.4015 277.989 92.4189 277.886 92.4145C277.772 92.4384 277.628 92.4513 277.441 92.4817C277.069 92.5425 276.501 92.566 275.842 92.5566C275.182 92.5472 274.431 92.505 273.609 92.3731C273.219 92.2985 272.768 92.202 272.358 92.088C271.959 91.9457 271.519 91.8208 271.131 91.6501C270.927 91.5451 270.743 91.4794 270.539 91.3744C270.335 91.2694 270.173 91.147 269.969 91.042C269.592 90.8429 269.279 90.5696 268.955 90.3248C268.63 90.0799 268.4 89.7718 268.137 89.5488C267.885 89.2975 267.686 89.0003 267.506 88.7425C267.326 88.4846 267.124 88.2836 267.037 88.0586C266.938 87.862 266.809 87.6544 266.73 87.4971C266.809 87.6544 266.918 87.8226 267.048 88.0302C267.135 88.2552 267.368 88.4672 267.558 88.6967C267.749 88.9261 267.949 89.2233 268.212 89.4463C268.475 89.6692 268.705 89.9773 269.04 90.1938C269.375 90.4103 269.658 90.6726 270.035 90.8717C270.208 90.9658 270.381 91.0598 270.585 91.1648C270.758 91.2589 270.973 91.3355 271.188 91.4122C271.576 91.5829 271.985 91.6968 272.364 91.7998C272.774 91.9138 273.164 91.9884 273.565 92.0346C274.336 92.1162 275.088 92.1584 275.697 92.1175C276.977 92.0577 277.724 91.8401 277.724 91.8401L278.031 92.4015Z" fill="#70AC44"/>
<path d="M274.819 83.6368C274.819 83.6368 274.631 83.7633 274.298 83.9027C274.131 83.9724 273.903 84.0202 273.665 84.0964C273.54 84.1487 273.406 84.1332 273.261 84.1462C273.117 84.1592 272.972 84.1721 272.797 84.1741C272.477 84.1891 272.148 84.1364 271.789 84.0727C271.441 83.9806 271.062 83.8776 270.704 83.7179C270.347 83.5581 270.001 83.37 269.666 83.1535C269.33 82.937 269.017 82.6638 268.723 82.4298C268.41 82.1566 268.169 81.8769 267.886 81.6146C267.614 81.3239 267.415 81.0267 267.174 80.747C266.932 80.4673 266.764 80.1811 266.553 79.9123C266.374 79.6545 266.194 79.3966 266.045 79.1497C265.479 78.1732 265.102 77.5221 265.102 77.5221C265.102 77.5221 265.51 78.1841 266.128 79.1149C266.288 79.3334 266.468 79.5912 266.678 79.86C266.889 80.1288 267.099 80.3976 267.32 80.638C267.561 80.9177 267.803 81.1974 268.085 81.4597C268.368 81.722 268.651 81.9843 268.944 82.2183C269.249 82.4238 269.532 82.6861 269.878 82.8742C270.213 83.0907 270.529 83.2679 270.877 83.36C271.204 83.5088 271.563 83.5724 271.85 83.6426C272.19 83.6669 272.488 83.7087 272.777 83.6828C272.911 83.6982 273.036 83.646 273.169 83.6614C273.283 83.6375 273.397 83.6136 273.511 83.5896C273.708 83.5309 273.905 83.4721 274.041 83.3915C274.302 83.2585 274.438 83.1779 274.438 83.1779L274.819 83.6368Z" fill="#70AC44"/>
<path d="M272.127 75.3176C272.127 75.3176 272.086 75.3351 271.983 75.3306C271.869 75.3545 271.755 75.3784 271.58 75.3804C271.393 75.4108 271.187 75.4019 270.951 75.382C270.714 75.3621 270.447 75.3313 270.16 75.2611C269.873 75.1909 269.577 75.0531 269.281 74.9152C268.996 74.749 268.711 74.5828 268.407 74.3772C268.133 74.1826 267.881 73.9313 267.598 73.669C267.346 73.4176 267.146 73.1205 266.905 72.8407C266.695 72.572 266.506 72.2464 266.296 71.9776C266.127 71.6914 265.969 71.3769 265.831 71.1016C265.494 70.5292 265.331 69.9548 265.125 69.4938C264.765 68.5262 264.553 67.9015 264.553 67.9015C264.553 67.9015 264.827 68.5481 265.208 69.459C265.456 69.9025 265.691 70.4704 266.039 71.0145C266.208 71.3007 266.377 71.5869 266.557 71.8447C266.767 72.1135 266.966 72.4106 267.177 72.6794C267.398 72.9198 267.639 73.1996 267.872 73.4116C268.135 73.6346 268.398 73.8575 268.641 74.0412C268.915 74.2358 269.18 74.3627 269.445 74.4896C269.721 74.5881 269.997 74.6867 270.254 74.7459C270.51 74.8051 270.716 74.814 270.922 74.823C271.128 74.8319 271.314 74.8015 271.459 74.7886C271.573 74.7647 271.717 74.7517 271.759 74.7343C271.831 74.7278 271.873 74.7104 271.873 74.7104L272.127 75.3176Z" fill="#70AC44"/>
<path d="M247.4 25.8829C247.4 25.8829 241.352 20.7544 235.82 17.3601C230.289 13.9658 225.424 10.7447 230.895 9.50114C236.407 8.24015 244.536 15.7573 247.206 19.8737C249.917 23.9726 250.952 26.5371 247.4 25.8829Z" fill="#427037"/>
<path d="M249.257 27.0303C249.257 27.0303 249.249 26.9626 249.2 26.8163C249.141 26.6983 249.073 26.5127 248.955 26.2767C248.836 26.0408 248.698 25.7655 248.51 25.44C248.321 25.1145 248.113 24.7496 247.874 24.3738C247.604 23.9871 247.346 23.572 246.984 23.1524C246.695 22.7263 246.302 22.2958 245.921 21.8368C245.529 21.4063 245.106 20.9648 244.652 20.5124C244.187 20.0883 243.764 19.6468 243.269 19.2118C242.763 18.8052 242.309 18.3528 241.823 17.9854C241.305 17.6072 240.86 17.2224 240.332 16.8726C239.835 16.5336 239.368 16.2056 238.901 15.8777C238.423 15.578 237.976 15.2894 237.58 15.051C236.767 14.5349 236.033 14.176 235.555 13.8764C235.035 13.5942 234.781 13.439 234.781 13.439C234.781 13.439 235.066 13.6052 235.566 13.8481C236.054 14.1193 236.83 14.4607 237.643 14.9768C238.071 15.2261 238.529 15.4864 239.006 15.7861C239.484 16.0857 239.982 16.4246 240.479 16.7635C240.987 17.0741 241.494 17.4807 242.011 17.859C242.528 18.2373 243.034 18.6439 243.541 19.0505C244.047 19.4571 244.501 19.9096 244.976 20.3053C245.441 20.7293 245.895 21.1818 246.287 21.6123C246.679 22.0428 247.102 22.4843 247.422 22.9213C247.784 23.3409 248.073 23.767 248.354 24.1254C248.623 24.5121 248.862 24.8879 249.051 25.2135C249.27 25.5499 249.408 25.8252 249.546 26.1004C249.654 26.3648 249.763 26.533 249.812 26.6793C249.86 26.8257 249.899 26.9043 249.899 26.9043L249.257 27.0303Z" fill="#70AC44"/>
<path d="M249.333 25.0547C249.474 25.2592 304.393 105.237 297.675 192.636L285.128 187.47C288.335 155.521 287.562 96.622 248.757 26.0117L249.333 25.0547Z" fill="#5D3D22"/>
<path d="M346.496 216.795H311.622C284.997 216.795 283 205.09 285.997 174.59L286.102 173.59H293.194H298.199C298 189.09 304.713 189.159 315.57 189.159H346.496V216.795Z" fill="#5D3D22"/>
<path d="M601.738 160.207C601.738 194.094 577.721 216.795 539.886 216.795H338.867V189.159H377.689V105.922L408.944 97.0392V189.817H473.428V91.7752L504.683 82.5632V189.159H538.241C559.626 189.159 570.483 178.302 570.483 156.917V77.2992L601.738 67.7582V160.207Z" fill="#5D3D22"/>
<path d="M615.243 55.9211H612.364V38.1013H618.539C620.721 38.1013 622.259 38.2771 623.153 38.6287C624.061 38.9656 624.786 39.5369 625.328 40.3425C625.87 41.1482 626.141 42.0051 626.141 42.9133C626.141 44.2756 625.665 45.4255 624.713 46.363C623.761 47.3005 622.538 47.8279 621.043 47.9451C621.717 48.2234 622.347 48.6848 622.933 49.3293C623.534 49.9592 624.288 50.9993 625.196 52.4495L627.35 55.9211H623.834L622.274 53.1306C621.146 51.1238 620.252 49.8274 619.593 49.2415C618.934 48.6409 618.055 48.3406 616.957 48.3406H615.243V55.9211ZM615.243 40.5183V45.8796H618.758C620.252 45.8796 621.344 45.6672 622.032 45.2424C622.721 44.803 623.065 44.1145 623.065 43.177C623.065 42.1956 622.728 41.5071 622.054 41.1116C621.395 40.7161 620.223 40.5183 618.539 40.5183H615.243ZM619 30.4548C621.959 30.4548 624.72 31.2019 627.284 32.696C629.847 34.1755 631.869 36.197 633.348 38.7605C634.842 41.3093 635.589 44.0632 635.589 47.0222C635.589 49.9958 634.85 52.7571 633.37 55.3059C631.891 57.8547 629.869 59.8689 627.306 61.3484C624.742 62.8279 621.974 63.5676 619 63.5676C616.012 63.5676 613.236 62.8352 610.672 61.3704C608.109 59.8909 606.087 57.8767 604.608 55.3279C603.128 52.7644 602.389 49.9958 602.389 47.0222C602.389 44.0486 603.128 41.2874 604.608 38.7385C606.102 36.175 608.131 34.1536 610.694 32.6741C613.258 31.1946 616.026 30.4548 619 30.4548ZM619 33.2014C615.191 33.2014 611.932 34.5564 609.222 37.2664C606.527 39.9617 605.179 43.2136 605.179 47.0222C605.179 50.8455 606.527 54.1047 609.222 56.8C611.917 59.4807 615.177 60.821 619 60.821C622.809 60.821 626.061 59.4734 628.756 56.7781C631.451 54.0828 632.799 50.8308 632.799 47.0222C632.799 43.2136 631.444 39.9617 628.734 37.2664C626.039 34.5564 622.794 33.2014 619 33.2014Z" fill="#7E7E7E"/>
</svg>
