<svg width="792" height="376" viewBox="0 0 792 376" fill="none" xmlns="http://www.w3.org/2000/svg">
<path d="M3.69999 339.72H10.74C13.98 339.72 16.5 339.72 18.78 342.04C19.98 343.24 20.9 344.96 20.9 347.44C20.9 348.8 20.66 351 18.62 352.96C16.9 354.6 14.74 355.16 10.5 355.16H7.61999V367H3.69999V339.72ZM10.58 343.16H7.61999V351.68H10.74C12.3 351.68 13.9 351.68 15.06 350.96C16.14 350.32 16.86 349.08 16.86 347.36C16.86 346.4 16.62 345.2 15.66 344.32C14.46 343.16 13.38 343.16 10.58 343.16ZM49.7581 339.56L61.9581 367H57.9581L54.3181 358.96H42.7181L39.2781 367H35.2781L46.9981 339.56H49.7581ZM44.2381 355.44H52.7181L48.3181 345.56L44.2381 355.44ZM107.158 339.72V367H103.798L85.5578 346V367H81.8778V339.72H85.0378L103.438 360.88V339.72H107.158ZM169.221 339.56L181.421 367H177.421L173.781 358.96H162.181L158.741 367H154.741L166.461 339.56H169.221ZM163.701 355.44H172.181L167.781 345.56L163.701 355.44ZM214.571 341.28V345.72C212.251 343.48 210.011 342.88 208.171 342.88C205.491 342.88 203.851 344.32 203.851 346.04C203.851 348.36 205.451 349.32 210.651 352.36C211.811 353.04 213.131 354 214.171 355.4C215.011 356.48 215.651 357.96 215.651 359.92C215.651 364.2 212.571 367.36 207.731 367.36C205.051 367.36 202.491 366.44 200.371 364.84V359.88C201.171 360.88 203.611 363.88 207.731 363.88C209.771 363.88 211.971 362.6 211.971 360.28C211.971 358 209.651 356.32 208.371 355.56C204.051 352.96 202.811 352.2 201.611 350.68C200.771 349.6 200.251 348.32 200.251 346.6C200.251 342.48 203.371 339.36 208.291 339.36C210.531 339.36 212.691 340.04 214.571 341.28ZM240.691 339.72V367H236.771V339.72H240.691ZM275.011 339.56L287.211 367H283.211L279.571 358.96H267.971L264.531 367H260.531L272.251 339.56H275.011ZM269.491 355.44H277.971L273.571 345.56L269.491 355.44ZM332.411 339.72V367H329.051L310.811 346V367H307.131V339.72H310.291L328.691 360.88V339.72H332.411ZM383.114 339.72H389.954C391.234 339.72 392.914 339.84 394.634 340.6C397.554 341.84 398.914 344.56 398.914 347.32C398.914 350.48 397.314 352.88 394.354 354.04C396.834 355.68 398.354 358.2 400.434 361.56C401.594 363.44 402.274 364.36 404.154 367H399.514C398.594 365.68 394.794 359.72 393.914 358.56C391.234 355.12 389.914 355.12 388.034 355.12H386.994V367H383.114V339.72ZM388.194 343.04H386.994V351.64H388.514C389.114 351.64 391.234 351.64 392.314 351.24C394.154 350.52 394.914 348.8 394.914 347.32C394.914 345.76 394.114 344.28 392.834 343.68C391.834 343.2 390.554 343.04 388.194 343.04ZM439.414 339.72V343.2H427.854V351.52H439.014V355H427.854V363.48H439.774V367H423.934V339.72H439.414ZM474.554 341.28V345.72C472.234 343.48 469.994 342.88 468.154 342.88C465.474 342.88 463.834 344.32 463.834 346.04C463.834 348.36 465.434 349.32 470.634 352.36C471.794 353.04 473.114 354 474.154 355.4C474.994 356.48 475.634 357.96 475.634 359.92C475.634 364.2 472.554 367.36 467.714 367.36C465.034 367.36 462.474 366.44 460.354 364.84V359.88C461.154 360.88 463.594 363.88 467.714 363.88C469.754 363.88 471.954 362.6 471.954 360.28C471.954 358 469.634 356.32 468.354 355.56C464.034 352.96 462.794 352.2 461.594 350.68C460.754 349.6 460.234 348.32 460.234 346.6C460.234 342.48 463.354 339.36 468.274 339.36C470.514 339.36 472.674 340.04 474.554 341.28ZM517.194 339.72V343.16H507.674V367H503.754V343.16H494.394V339.72H517.194ZM545.15 339.56L557.35 367H553.35L549.71 358.96H538.11L534.67 367H530.67L542.39 339.56H545.15ZM539.63 355.44H548.11L543.71 345.56L539.63 355.44ZM599.249 339.72V355.2C599.249 357.84 599.249 361.64 596.169 364.4C593.729 366.56 590.689 367.36 587.569 367.36C583.729 367.36 579.489 366.04 577.329 362.6C575.809 360.2 575.809 357.04 575.809 355.2V339.72H579.729V355.2C579.729 358.8 580.049 360.2 581.449 361.6C582.609 362.8 584.409 363.88 587.569 363.88C591.969 363.88 593.889 361.6 594.609 360.28C595.129 359.32 595.369 357.88 595.369 355.2V339.72H599.249ZM621.609 339.72H628.449C629.729 339.72 631.409 339.84 633.129 340.6C636.049 341.84 637.409 344.56 637.409 347.32C637.409 350.48 635.809 352.88 632.849 354.04C635.329 355.68 636.849 358.2 638.929 361.56C640.089 363.44 640.769 364.36 642.649 367H638.009C637.089 365.68 633.289 359.72 632.409 358.56C629.729 355.12 628.409 355.12 626.529 355.12H625.489V367H621.609V339.72ZM626.689 343.04H625.489V351.64H627.009C627.609 351.64 629.729 351.64 630.809 351.24C632.649 350.52 633.409 348.8 633.409 347.32C633.409 345.76 632.609 344.28 631.329 343.68C630.329 343.2 629.049 343.04 626.689 343.04ZM673.91 339.56L686.11 367H682.11L678.47 358.96H666.87L663.43 367H659.43L671.15 339.56H673.91ZM668.39 355.44H676.87L672.47 345.56L668.39 355.44ZM731.309 339.72V367H727.949L709.709 346V367H706.029V339.72H709.189L727.589 360.88V339.72H731.309ZM774.439 339.72V343.16H764.919V367H760.999V343.16H751.639V339.72H774.439Z" fill="#BEB3B3"/>
<path d="M92.0561 292.012C104.415 292.012 114.28 288.332 121.652 280.973C129.024 273.615 132.71 263.767 132.71 251.43C132.71 242.989 129.783 235.738 123.929 229.678C118.292 223.401 111.245 217.557 102.789 212.146C94.3327 206.735 85.0093 201.324 74.8187 195.913C64.8449 190.502 55.6299 184.334 47.1738 177.408C38.7178 170.482 31.5626 162.473 25.7084 153.383C20.071 144.076 17.2523 132.93 17.2523 119.943C17.2523 112.152 18.8785 104.901 22.1308 98.1913C25.3832 91.2652 30.2617 85.205 36.7664 80.0105C43.4879 74.8159 51.8355 70.7036 61.8093 67.6735C71.7832 64.6433 83.4916 63.1283 96.9346 63.1283C104.523 63.1283 111.57 64.3187 118.075 66.6995C124.579 68.8639 130.108 71.2447 134.662 73.842C140.082 76.8721 144.852 80.3351 148.972 84.231C150.707 81.4173 152.55 78.9283 154.501 76.7639C156.669 74.3831 158.621 72.4351 160.355 70.92C162.523 69.1885 164.692 67.6735 166.86 66.3748H174.991V128.06H161.981C158.946 117.671 154.718 108.256 149.297 99.8146C144.744 92.6721 138.673 86.1789 131.084 80.3351C123.495 74.2748 114.28 71.2447 103.439 71.2447C99.3196 71.2447 95.4168 72.1105 91.7308 73.842C88.0449 75.5735 84.7925 78.0625 81.9738 81.3091C79.1551 84.3392 76.8785 88.1269 75.1439 92.6721C73.4093 97.0009 72.542 101.763 72.542 106.957C72.542 116.264 75.3607 124.272 80.9981 130.982C86.8523 137.475 94.0075 143.535 102.464 149.163C110.92 154.79 120.135 160.309 130.108 165.72C140.299 171.131 149.622 177.191 158.078 183.901C166.535 190.394 173.581 197.861 179.219 206.302C185.073 214.743 188 224.916 188 236.82C188 245.261 186.157 253.378 182.471 261.169C178.785 268.745 173.256 275.454 165.884 281.298C158.512 287.142 149.189 291.795 137.914 295.258C126.639 298.505 113.521 300.128 98.5607 300.128C89.0206 300.128 80.6729 299.046 73.5178 296.882C66.3626 294.717 60.2916 292.336 55.3047 289.739C49.4505 286.709 44.3551 283.138 40.0187 279.026C38.2841 282.056 36.3327 284.653 34.1645 286.817C32.2131 288.982 30.3701 290.821 28.6355 292.336C26.4673 294.068 24.2991 295.583 22.1308 296.882H14V235.197H27.0093C30.2617 245.802 34.815 255.326 40.6692 263.767C43.271 267.446 46.1981 271.017 49.4505 274.48C52.7028 277.727 56.3888 280.649 60.5084 283.246C64.8449 285.843 69.615 288.008 74.8187 289.739C80.0224 291.254 85.7682 292.012 92.0561 292.012Z" fill="#FCF1E7"/>
<path fill-rule="evenodd" clip-rule="evenodd" d="M288.159 128.988L293.027 140.509L293.057 140.438L328.687 225.628H328.525C329.681 228.391 330.814 231.096 331.915 233.726H331.927L348.446 272.595C351.469 279.938 356.436 286.416 363.346 292.03C370.257 297.429 379.758 300.128 391.851 300.128H430.721V295.27L414.525 290.411L322.209 70.1484H312.492L288.159 128.988Z" fill="#FCF1E7"/>
<path d="M193.376 294.946V299.804H253.3V294.946L229.007 285.228H219.289L193.376 294.946Z" fill="#805430"/>
<path d="M227.55 239.885C227.55 239.885 229.929 238.284 228.482 235.76C227.036 233.235 224.469 235.357 221.401 237.117C218.325 238.834 207.188 243.053 206.292 242.89C205.342 242.691 206.349 251.4 215.49 247.781C224.639 244.206 227.55 239.885 227.55 239.885Z" fill="#427037"/>
<path d="M227.968 226.389C227.968 226.389 231.958 222.691 229.361 220.67C227.439 219.161 227.04 219.585 224.764 220.722C222.487 221.859 207.595 230.495 204.073 231.394C200.55 232.293 197.979 236.379 202.889 237.702C207.799 239.025 215.821 235.325 219.482 233.155C223.189 230.976 227.968 226.389 227.968 226.389Z" fill="#427037"/>
<path d="M229.462 210.974C229.462 210.974 231.517 208.936 230.474 207.013C229.533 205.118 227.182 205.867 225.231 206.95C223.326 208.025 205.718 216.266 202.217 217.027C198.763 217.781 194.24 219.961 195.998 224.352C196.867 226.616 206.974 225.022 217.19 219.262C227.46 213.537 229.462 210.974 229.462 210.974Z" fill="#427037"/>
<path d="M236.867 192.879C236.867 192.879 238.809 190.504 237.739 187.694C236.686 184.97 232.807 186.508 230.709 187.571C228.61 188.634 210.655 197.066 205.25 198.903C199.845 200.74 188.233 202.495 189.963 207.738C191.702 213.024 203.359 211.752 211.833 208.155C220.314 204.602 234.005 194.962 236.867 192.879Z" fill="#427037"/>
<path d="M236.959 181.892C236.959 181.892 239.234 179.506 238.826 177.388C238.284 174.579 236.645 174.54 231.869 175.157C227.101 175.817 207.852 179.781 199.939 179.314C192.026 178.847 183.261 179.683 184.77 184.026C186.233 188.377 198.175 192.32 214.182 188.718C230.227 185.065 236.959 181.892 236.959 181.892Z" fill="#427037"/>
<path d="M236.944 170.118C236.944 170.118 241.24 169.001 240.903 165.757C240.511 162.476 239.826 162.412 235.969 162.073C232.104 161.691 203.25 158.645 196.531 157.4C189.811 156.155 179.525 152.337 178.236 158.35C176.995 164.356 191.391 171.816 210.176 172.167C228.952 172.475 236.944 170.118 236.944 170.118Z" fill="#427037"/>
<path d="M240.566 157.783C240.566 157.783 244.622 157.911 245.052 155.163C245.436 152.422 245.228 151.342 242.603 150.173C239.978 149.004 222.376 142.345 213.691 138.617C204.997 134.846 194.3 125.164 189.468 129.225C184.635 133.286 191.137 144.604 207.41 150.101C223.582 155.571 230.124 158.139 240.566 157.783Z" fill="#427037"/>
<path d="M243.915 145.539C243.915 145.539 249.456 146.4 250.41 142.138C251.683 138.536 246.863 136.93 245.268 136.125C243.673 135.32 232.865 129.046 226.403 124.903C226.403 124.903 214.52 117.783 209.489 112.599C204.45 107.371 197.192 107.063 197.143 114.03C197.102 121.04 216.629 135.943 227.776 140.242C238.961 144.49 243.915 145.539 243.915 145.539Z" fill="#427037"/>
<path d="M249.99 130.744C249.99 130.744 255.737 131.927 256.439 127.35C257.178 122.722 250.444 120.899 245.311 117.427C240.132 113.963 222.552 101.189 219.413 96.3592C214.173 88.8459 204.935 90.9642 206.666 99.1957C211.699 108.126 225.749 120.016 233.938 124.406C242.128 128.797 249.99 130.744 249.99 130.744Z" fill="#427037"/>
<path d="M254.728 117.733C254.728 117.733 264.42 119.464 259.716 110.746C254.453 103.861 242.416 97.4354 236.024 87.9282C229.679 78.4134 225.924 74.6226 221.82 79.722C217.67 84.8292 226.91 97.1628 235.96 105.023C245.01 112.883 253.63 117.514 254.728 117.733Z" fill="#427037"/>
<path d="M262.072 106.028C262.072 106.028 266.048 107.73 268.412 105.552C270.775 103.375 269.545 100.725 267.013 97.8008C264.482 94.8769 250.401 78.8442 247.237 70.896C243.796 59.0239 231.881 60.696 233.503 70.1054C233.501 78.3131 252.394 99.3879 262.072 106.028Z" fill="#427037"/>
<path d="M270.468 92.3187C270.468 92.3187 274.824 95.7417 276.919 91.4229C279.06 87.0964 269.438 81.2495 266.556 72.273C262.243 62.5981 259.679 51.7844 254.947 52.8846C250.216 53.9847 248.254 57.7462 252.849 67.6417C257.491 77.5296 265.529 89.3498 270.468 92.3187Z" fill="#427037"/>
<path d="M278.751 79.0284C278.751 79.0284 282.92 81.2336 285.136 79.0357C287.352 76.8378 284.992 74.5545 283.07 71.3061C281.148 68.0577 277.229 61.1719 275.41 55.7206C273.545 50.2771 272.83 44.3297 268.056 45.7046C263.282 47.0796 263.07 53.4489 265.78 60.536C268.443 67.6308 276.035 77.3843 278.751 79.0284Z" fill="#427037"/>
<path d="M286.237 68.3263C286.237 68.3263 288.136 70.9542 291.578 69.8903C294.974 68.8341 292.658 65.785 291.315 61.0575C289.964 56.2867 288.502 42.4793 288.499 38.7328C288.505 35.0295 278.869 29.8541 277.8 41.9865C276.732 54.1188 285.593 67.72 286.237 68.3263Z" fill="#427037"/>
<path d="M296.934 55.8393C296.934 55.8393 299.263 58.7077 302.149 57.2459C304.699 56.2859 303.688 52.0382 302.93 46.8565C302.162 41.6316 302.62 35.0429 303.552 30.9177C304.485 26.7925 305.283 23.7155 302.479 23.1119C299.676 22.5083 293.84 24.1045 293.543 37.0006C293.245 49.8966 296.934 55.8393 296.934 55.8393Z" fill="#427037"/>
<path d="M311.594 43.7623C311.594 43.7623 317.561 46.337 318.424 41.599C319.286 36.861 320.513 28.5384 322.545 24.1409C324.577 19.7434 326.726 17.1998 326.726 17.1998C326.726 17.1998 329.513 11.7398 323.458 11.9453C317.394 12.1076 314.447 18.977 311.118 29.3446C307.42 40.5321 311.594 43.7623 311.594 43.7623Z" fill="#427037"/>
<path d="M233.926 248.845C233.926 248.845 234.62 255.534 238.409 254.597C242.198 253.659 239.663 247.198 239.006 242.681C238.314 238.218 238.389 219.526 238.755 216.709C239.122 213.892 237.184 213.099 235.782 217.081C234.334 221.074 231.878 234.176 233.926 248.845Z" fill="#427037"/>
<path d="M241.138 214.717C241.138 214.717 241.272 220.493 243.983 220.446C246.701 220.432 246.303 215.543 245.499 211.563C244.731 205.319 244.053 196.161 244.17 194.321C244.287 192.481 244.081 188.402 242.762 189.465C241.456 190.592 240.03 207.653 241.138 214.717Z" fill="#427037"/>
<path d="M249.357 178.319C249.357 178.319 250.694 184.502 252.965 188.945C255.236 193.388 256.858 197.096 253.406 200.267C249.955 203.437 246.585 190.85 246.806 186.161C247.02 181.439 246.471 178.968 249.357 178.319Z" fill="#427037"/>
<path d="M254.083 182.522C254.083 182.522 258.391 187.368 261.108 184.151C263.825 180.934 261.239 178.431 258.827 176.271C256.409 174.078 254.226 170.092 253.895 168.563C253.57 167.066 250.664 167.044 251.325 173.104C251.902 179.11 254.083 182.522 254.083 182.522Z" fill="#427037"/>
<path d="M274.108 164.241C274.108 164.241 266.98 159.629 264.98 156.974C262.98 154.318 258.463 152.795 259.132 159.999C259.801 167.203 266.014 177.276 270.56 174.467C275.144 171.607 276.366 166.497 274.108 164.241Z" fill="#427037"/>
<path d="M264.971 147.698C264.971 147.698 268.225 154.873 274.461 153.612C280.697 152.35 283.21 143.724 278.969 143.137C274.69 142.6 268.843 140.898 267.73 140.102C266.578 139.357 263.192 139.965 264.971 147.698Z" fill="#427037"/>
<path d="M268.734 133.867C268.734 133.867 270.767 141.424 278.878 138.691C286.982 135.914 289.469 124.17 285.666 125.606C281.864 127.042 275.366 129.685 272.444 128.967C269.624 128.277 268.573 132.288 268.734 133.867Z" fill="#427037"/>
<path d="M278.57 124.646C278.57 124.646 272.297 124.219 274.379 120.08C276.46 115.942 279.474 117.135 283.427 114.737C287.38 112.34 293.079 108.045 291.146 113.452C289.213 118.859 284.182 124.38 278.57 124.646Z" fill="#427037"/>
<path d="M282.565 111.759C282.565 111.759 277.576 111.519 279.948 107.645C282.321 103.77 286.228 104.369 289.401 101.164C292.566 97.9156 295.932 96.9536 294.039 101.819C292.183 106.633 287.404 111.22 282.565 111.759Z" fill="#427037"/>
<path d="M287.245 99.6946C287.245 99.6946 281.35 101.479 285.067 95.8644C288.737 90.2573 294.152 87.9728 296.768 83.1212C299.392 78.3127 300.738 82.0585 297.922 87.6126C295.113 93.21 289.241 99.0946 287.245 99.6946Z" fill="#427037"/>
<path d="M288.659 84.1142C288.659 84.1142 284.137 90.5322 289.01 88.427C293.883 86.3219 303.719 72.8634 302.439 66.4748C301.482 64.4933 300.067 70.3492 296.391 74.9313C292.715 79.5134 288.659 84.1142 288.659 84.1142Z" fill="#427037"/>
<path d="M309.403 59.0261C309.403 59.0261 306.006 63.5617 307.036 59.1972C308.066 54.8326 314.938 46.9083 317.08 42.0909C319.223 37.2734 321.743 35.1588 319.154 42.6378C316.564 50.1167 309.403 59.0261 309.403 59.0261Z" fill="#427037"/>
<path d="M326.555 33.2422C326.555 33.2422 324.697 34.3099 325.89 29.2939C327.082 24.2778 329.384 21.5303 330.696 16.1376C332 10.7016 333.257 2.28476 334.916 4.41722C336.575 6.54968 332.541 19.9788 330.849 23.6506C329.111 27.3301 327.858 32.5345 326.555 33.2422Z" fill="#427037"/>
<path d="M228.325 233.199C228.325 233.199 227.202 234.1 225.34 235.392C224.408 236.037 223.346 236.75 222.144 237.485C220.942 238.22 219.647 238.971 218.343 239.679C217.688 240.011 216.994 240.395 216.329 240.684C215.665 240.973 215.009 241.305 214.345 241.594C213.673 241.84 213.055 242.121 212.429 242.359C211.795 242.554 211.215 242.784 210.72 242.956C210.171 243.092 209.676 243.264 209.219 243.384C208.763 243.505 208.344 243.575 208.027 243.672C208.344 243.575 208.771 243.548 209.228 243.427C209.684 243.307 210.187 243.178 210.737 243.042C211.287 242.906 211.866 242.676 212.5 242.481C213.135 242.286 213.753 242.005 214.425 241.759C215.098 241.513 215.753 241.181 216.464 240.884C217.175 240.587 217.831 240.255 218.533 239.915C219.891 239.243 221.241 238.527 222.443 237.792C223.7 237.092 224.762 236.38 225.702 235.777C227.581 234.572 228.797 233.656 228.797 233.656L228.325 233.199Z" fill="#70AC44"/>
<path d="M229.618 217.506C229.618 217.506 228.385 218.826 226.242 220.655C225.166 221.548 223.921 222.558 222.49 223.599C221.059 224.64 219.48 225.662 217.893 226.64C217.122 227.125 216.251 227.582 215.48 228.067C214.655 228.517 213.822 228.923 213.035 229.322C212.256 229.764 211.452 230.076 210.704 230.424C209.955 230.772 209.244 231.069 208.58 231.358C207.916 231.647 207.29 231.885 206.757 232.107C206.215 232.287 205.72 232.458 205.319 232.614C204.507 232.883 204.067 233.091 204.067 233.091C204.067 233.091 204.515 232.927 205.327 232.658C205.729 232.502 206.232 232.373 206.773 232.194C207.315 232.014 207.932 231.733 208.605 231.487C209.277 231.241 209.988 230.945 210.737 230.597C211.486 230.249 212.289 229.937 213.076 229.538C213.863 229.14 214.752 228.769 215.53 228.327C216.356 227.877 217.236 227.463 217.998 226.934C219.64 225.992 221.219 224.971 222.704 223.965C224.144 222.967 225.482 221.941 226.566 221.092C228.772 219.341 230.043 217.97 230.043 217.97L229.618 217.506Z" fill="#70AC44"/>
<path d="M233.252 203.251C233.252 203.251 225.641 208.087 217.698 212.443C215.701 213.534 213.695 214.581 211.813 215.519C210.848 215.992 209.921 216.414 209.041 216.828C208.153 217.199 207.319 217.606 206.516 217.918C205.712 218.23 205.001 218.527 204.321 218.73C203.64 218.932 203.052 219.119 202.595 219.24C201.627 219.446 201.023 219.546 201.023 219.546C201.023 219.546 201.581 219.453 202.604 219.283C203.107 219.155 203.695 218.968 204.375 218.765C205.056 218.562 205.767 218.266 206.579 217.997C207.383 217.684 208.224 217.321 209.159 216.942C210.039 216.528 211.012 216.099 211.985 215.669C213.923 214.766 215.984 213.754 217.989 212.706C226.059 208.508 233.85 203.865 233.85 203.865L233.252 203.251Z" fill="#70AC44"/>
<path d="M240.399 184.307C240.399 184.307 237.952 186.053 234.062 188.529C230.172 191.006 224.924 194.155 219.47 196.981C218.12 197.697 216.716 198.377 215.357 199.049C213.999 199.721 212.624 200.307 211.296 200.885C208.585 202.006 206.072 202.915 203.797 203.561C202.66 203.884 201.607 204.149 200.685 204.347C199.755 204.502 198.918 204.641 198.212 204.714C197.561 204.823 196.987 204.829 196.606 204.848C196.226 204.867 196.04 204.898 196.04 204.898C196.04 204.898 196.234 204.91 196.615 204.891C196.995 204.872 197.523 204.874 198.229 204.801C198.888 204.735 199.734 204.639 200.71 204.477C201.632 204.279 202.693 204.057 203.839 203.777C206.122 203.174 208.689 202.3 211.409 201.223C212.746 200.688 214.167 200.095 215.534 199.466C216.9 198.837 218.305 198.157 219.71 197.477C230.846 192.009 241.039 185.137 241.039 185.137L240.399 184.307Z" fill="#70AC44"/>
<path d="M244.422 174.048C244.422 174.048 241.152 175.261 236.086 176.863C231.066 178.458 224.233 180.354 217.3 181.731C215.541 182.069 213.82 182.355 212.1 182.642C210.379 182.928 208.642 183.129 206.99 183.27C205.337 183.411 203.731 183.545 202.202 183.577C200.672 183.608 199.235 183.625 197.913 183.488C196.561 183.445 195.379 183.285 194.289 183.11C193.791 183.015 193.292 182.919 192.794 182.824C192.342 182.721 191.937 182.61 191.578 182.491C190.822 182.305 190.252 182.087 189.885 181.925C190.29 182.036 190.822 182.305 191.578 182.491C191.975 182.559 192.342 182.721 192.794 182.824C193.246 182.927 193.744 183.022 194.289 183.11C195.332 183.293 196.561 183.445 197.875 183.539C199.189 183.632 200.634 183.659 202.172 183.671C203.701 183.639 205.316 183.549 206.977 183.451C208.629 183.309 210.366 183.109 212.057 182.917C213.786 182.673 215.553 182.379 217.32 182.085C224.325 180.829 231.175 179.019 236.258 177.504C241.341 175.988 244.665 174.81 244.665 174.81L244.422 174.048Z" fill="#70AC44"/>
<path d="M249.879 162.789C249.879 162.789 249.718 162.95 249.371 163.141C248.977 163.341 248.36 163.622 247.548 163.891C247.137 164.004 246.689 164.168 246.186 164.296C245.674 164.382 245.125 164.518 244.529 164.662C243.32 164.863 241.933 165.138 240.42 165.257C238.915 165.418 237.255 165.516 235.492 165.586C233.73 165.657 231.905 165.649 229.987 165.656C228.098 165.569 226.133 165.584 224.089 165.434C222.09 165.276 220.054 165.169 218.001 164.975C215.995 164.774 213.942 164.581 211.935 164.38C209.967 164.128 207.999 163.876 206.077 163.616C204.163 163.399 202.373 163.073 200.645 162.825C198.918 162.578 197.283 162.315 195.75 162.079C189.732 160.985 185.754 160.265 185.754 160.265C185.754 160.265 189.74 161.028 195.729 162.217C197.262 162.452 198.858 162.766 200.594 163.057C202.33 163.348 204.12 163.674 206.042 163.934C207.917 164.201 209.894 164.497 211.871 164.792C213.839 165.044 215.892 165.237 217.907 165.482C219.922 165.726 222.004 165.825 224.011 166.027C226.009 166.184 228.029 166.205 229.926 166.335C231.852 166.371 233.677 166.379 235.494 166.344C237.257 166.274 238.926 166.219 240.477 166.05C241.99 165.932 243.431 165.692 244.64 165.49C245.237 165.347 245.841 165.246 246.344 165.118C246.894 164.981 247.389 164.81 247.799 164.697C248.657 164.42 249.322 164.131 249.808 163.916C250.24 163.666 250.494 163.49 250.502 163.533L249.879 162.789Z" fill="#70AC44"/>
<path d="M253.61 155.745C253.61 155.745 252.613 155.554 250.877 155.263C249.142 154.972 246.705 154.53 243.753 153.907C237.904 152.695 230.114 150.87 222.587 148.421C220.699 147.843 218.842 147.171 216.985 146.499C215.174 145.819 213.401 145.089 211.684 144.393C210.004 143.647 208.371 142.893 206.877 142.116C205.384 141.339 203.991 140.589 202.785 139.809C201.532 139.036 200.474 138.276 199.517 137.543C199.061 137.173 198.661 136.838 198.26 136.503C197.86 136.169 197.561 135.862 197.262 135.554C196.625 134.991 196.238 134.476 195.939 134.169C195.631 133.819 195.505 133.661 195.505 133.661C195.505 133.661 195.678 133.811 195.939 134.169C196.238 134.476 196.634 135.035 197.262 135.554C197.552 135.818 197.906 136.161 198.26 136.503C198.661 136.838 199.061 137.173 199.517 137.543C200.474 138.276 201.494 139.087 202.747 139.86C203.953 140.64 205.354 141.433 206.809 142.261C208.303 143.038 209.898 143.843 211.577 144.59C213.257 145.336 215.03 146.067 216.849 146.79C218.66 147.469 220.525 148.185 222.421 148.806C229.964 151.341 237.687 153.311 243.552 154.609C246.458 155.241 248.958 155.761 250.647 156.059C252.345 156.401 253.341 156.592 253.341 156.592L253.61 155.745Z" fill="#70AC44"/>
<path d="M258.411 145.044C258.411 145.044 254.738 143.916 249.276 141.971C247.934 141.481 246.482 140.919 244.928 140.331C243.413 139.691 241.767 139.117 240.096 138.414C238.424 137.711 236.707 137.016 235.019 136.227C233.293 135.488 231.55 134.663 229.845 133.787C228.111 133.006 226.444 132.079 224.786 131.195C223.128 130.312 221.601 129.361 220.036 128.462C218.517 127.556 217.083 126.59 215.713 125.703C214.38 124.765 213.149 123.855 212.027 123.016C210.905 122.177 210.008 121.256 209.106 120.559C208.203 119.861 207.58 119.118 206.99 118.547C205.903 117.39 205.242 116.697 205.242 116.697C205.242 116.697 205.903 117.39 206.944 118.554C207.487 119.133 208.11 119.877 209.021 120.617C209.885 121.365 210.783 122.287 211.904 123.126C213.026 123.965 214.219 124.926 215.552 125.864C216.922 126.751 218.31 127.724 219.837 128.674C221.402 129.573 222.937 130.566 224.595 131.45C226.253 132.334 227.928 133.304 229.671 134.129C231.376 135.005 233.072 135.837 234.806 136.619C236.503 137.452 238.229 138.19 239.9 138.893C241.58 139.639 243.188 140.264 244.703 140.903C246.256 141.492 247.717 142.097 249.059 142.587C254.491 144.626 258.172 145.797 258.172 145.797L258.411 145.044Z" fill="#70AC44"/>
<path d="M264.174 131.862C264.174 131.862 263.245 131.526 261.628 130.859C260.012 130.191 257.754 129.185 255.02 127.945C253.69 127.274 252.222 126.627 250.682 125.857C249.142 125.088 247.547 124.283 245.935 123.391C244.285 122.551 242.61 121.581 240.936 120.611C239.223 119.692 237.616 118.577 235.933 117.563C234.288 116.499 232.681 115.384 231.036 114.32C229.476 113.197 227.962 112.066 226.541 110.92C225.167 109.766 223.755 108.663 222.528 107.529C221.302 106.395 220.138 105.34 219.123 104.304C218.146 103.218 217.286 102.246 216.499 101.396C216.309 101.16 216.128 100.967 215.947 100.774C215.766 100.581 215.623 100.338 215.442 100.145C215.172 99.7435 214.911 99.3855 214.65 99.0275C213.669 97.6742 213.093 96.9228 213.093 96.9228C213.093 96.9228 213.669 97.6742 214.604 99.0353C214.865 99.3932 215.126 99.7512 215.395 100.152C215.53 100.353 215.719 100.589 215.854 100.79C216.035 100.983 216.225 101.219 216.406 101.412C217.155 102.313 218.015 103.285 218.992 104.371C220.007 105.406 221.124 106.469 222.312 107.654C223.539 108.788 224.905 109.899 226.287 111.096C227.708 112.242 229.222 113.373 230.744 114.547C232.351 115.662 233.958 116.777 235.556 117.849C237.247 118.906 238.854 120.021 240.529 120.991C242.212 122.004 243.832 122.939 245.499 123.866C247.11 124.757 248.713 125.605 250.207 126.382C251.756 127.195 253.178 127.85 254.553 128.513C257.25 129.804 259.516 130.854 261.132 131.521C262.757 132.232 263.686 132.568 263.686 132.568L264.174 131.862Z" fill="#70AC44"/>
<path d="M270.221 119.926C270.221 119.926 270.019 119.871 269.605 119.717C269.2 119.606 268.63 119.388 267.904 119.108C267.178 118.827 266.296 118.484 265.249 118.033C264.249 117.575 263.101 117.098 261.881 116.498C261.248 116.202 260.615 115.906 259.974 115.566C259.333 115.227 258.691 114.888 257.995 114.513C256.611 113.807 255.241 112.92 253.785 112.092C253.072 111.631 252.36 111.169 251.647 110.708C250.934 110.247 250.166 109.75 249.492 109.238C248.088 108.179 246.645 107.17 245.271 106.016C244.588 105.461 243.905 104.905 243.222 104.35C242.577 103.743 241.932 103.137 241.296 102.574C240.698 101.96 240.015 101.405 239.463 100.783C238.911 100.161 238.313 99.547 237.769 98.9684C236.581 97.7835 235.672 96.5522 234.771 95.364C234.32 94.7699 233.87 94.1759 233.436 93.6682C233.04 93.1096 232.691 92.5433 232.342 91.977C231.652 90.8875 230.987 89.9277 230.424 88.9956C229.961 88.0913 229.516 87.2734 229.196 86.6128C228.511 85.2995 228.074 84.5248 228.074 84.5248C228.074 84.5248 228.456 85.2641 229.15 86.6206C229.469 87.2811 229.915 88.099 230.385 89.0466C230.894 89.9432 231.567 90.9462 232.211 92.0434C232.552 92.5665 232.909 93.1761 233.305 93.7347C233.701 94.2933 234.151 94.8873 234.601 95.4814C235.502 96.6696 236.42 97.9441 237.562 99.1368C238.114 99.7586 238.665 100.38 239.217 101.002C239.777 101.667 240.414 102.23 241.012 102.844C241.657 103.451 242.255 104.065 242.9 104.671C243.583 105.226 244.228 105.833 244.911 106.388C246.239 107.55 247.689 108.602 249.093 109.661C249.776 110.217 250.536 110.67 251.257 111.175C251.97 111.636 252.691 112.14 253.403 112.601C254.867 113.473 256.238 114.36 257.622 115.066C258.318 115.441 258.968 115.823 259.609 116.162C260.25 116.502 260.883 116.798 261.525 117.137C262.752 117.78 263.9 118.258 264.901 118.716C265.939 119.123 266.838 119.553 267.564 119.834C268.298 120.157 268.914 120.367 269.328 120.521C269.742 120.675 269.991 120.723 269.991 120.723L270.221 119.926Z" fill="#70AC44"/>
<path d="M275.78 110.169C275.78 110.169 272.903 108.194 268.869 104.941C267.887 104.078 266.765 103.239 265.657 102.22C265.083 101.735 264.51 101.251 263.928 100.723C263.347 100.195 262.765 99.6679 262.175 99.097C260.957 98.0063 259.815 96.8137 258.627 95.6288C257.439 94.4439 256.327 93.157 255.13 91.9289C254.018 90.6421 252.906 89.3553 251.841 88.0607C251.327 87.388 250.822 86.7584 250.355 86.0779C249.849 85.4483 249.336 84.7756 248.923 84.1306C248.465 83.4933 248.006 82.856 247.593 82.2109C247.135 81.5736 246.731 80.9718 246.42 80.3545C245.696 79.0922 244.952 77.9673 244.401 76.8546C243.851 75.7419 243.363 74.7079 242.939 73.7526C242.477 72.8482 242.264 71.9916 241.991 71.3233C241.492 69.979 241.194 69.1811 241.194 69.1811C241.194 69.1811 241.445 69.9868 241.945 71.3311C242.217 71.9993 242.431 72.856 242.855 73.8113C243.27 74.7233 243.766 75.8006 244.27 76.921C244.82 78.0337 245.527 79.2096 246.204 80.4797C246.57 81.1325 246.927 81.742 247.386 82.3793C247.798 83.0243 248.257 83.6616 248.678 84.3499C249.09 84.9949 249.604 85.6677 250.062 86.305C250.53 86.9855 251.035 87.615 251.549 88.2878C252.576 89.6333 253.688 90.9201 254.753 92.2147C255.912 93.4938 257.024 94.7806 258.212 95.9655C259.408 97.1936 260.55 98.3863 261.722 99.4847C262.312 100.056 262.893 100.583 263.475 101.111C264.057 101.638 264.638 102.166 265.165 102.658C266.274 103.678 267.357 104.568 268.339 105.43C272.344 108.778 275.182 110.803 275.182 110.803L275.78 110.169Z" fill="#70AC44"/>
<path d="M282.583 98.1515C282.583 98.1515 280.374 96.1551 277.396 92.9042C276.663 92.0896 275.867 91.1962 275.054 90.2164C274.203 89.2876 273.42 88.2136 272.498 87.1628C271.668 86.0966 270.784 84.9949 269.929 83.799C269.083 82.6464 268.182 81.4582 267.421 80.2468L266.209 78.4414C265.805 77.8396 265.448 77.23 265.044 76.6282C264.686 76.0186 264.282 75.4168 263.925 74.8073C263.567 74.1977 263.256 73.5804 262.907 73.0141C262.55 72.4045 262.247 71.8304 261.944 71.2563C261.642 70.6823 261.385 70.1004 261.091 69.5696C260.541 68.4569 260.007 67.4306 259.621 66.4243C259.189 65.4258 258.819 64.506 258.475 63.7158C258.177 62.9179 257.934 62.1554 257.725 61.5659C257.305 60.3867 257.079 59.7107 257.079 59.7107C257.079 59.7107 257.305 60.3867 257.678 61.5736C257.888 62.1632 258.122 62.8824 258.382 63.7313C258.68 64.5292 259.049 65.4491 259.481 66.4476C259.867 67.4538 260.363 68.5311 260.914 69.6438C261.17 70.2256 261.472 70.7997 261.728 71.3815C262.031 71.9556 262.342 72.5729 262.645 73.147C262.956 73.7643 263.313 74.3738 263.624 74.9911C263.982 75.6007 264.339 76.2103 264.697 76.8198C265.054 77.4294 265.411 78.0389 265.824 78.684L266.998 80.5404C267.767 81.795 268.622 82.9908 269.421 84.1513C270.221 85.3117 271.114 86.4566 271.951 87.566C272.827 88.6245 273.61 89.6985 274.423 90.6783C275.236 91.6581 275.985 92.5592 276.727 93.4171C279.629 96.7699 281.846 98.8095 281.846 98.8095L282.583 98.1515Z" fill="#70AC44"/>
<path d="M290.039 84.0633C290.039 84.0633 289.575 83.6499 288.813 82.9294C288.05 82.2089 286.933 81.1459 285.72 79.8314C285.113 79.1741 284.443 78.4381 283.765 77.6589C283.087 76.8797 282.392 76.0141 281.697 75.1485C281.003 74.2829 280.291 73.3308 279.58 72.3787C278.915 71.4189 278.157 70.4746 277.577 69.4561C276.95 68.4453 276.276 67.4423 275.743 66.416C275.457 65.9284 275.162 65.3975 274.876 64.9099C274.637 64.4145 274.389 63.8759 274.103 63.3882C273.864 62.8928 273.624 62.3975 273.385 61.9021C273.145 61.4067 272.961 60.9468 272.768 60.4436C272.398 59.5238 271.982 58.6117 271.778 57.7983C271.518 56.9494 271.229 56.1947 271.049 55.511C270.869 54.8272 270.752 54.2222 270.652 53.7035C270.414 52.7173 270.298 52.1122 270.298 52.1122C270.298 52.1122 270.406 52.674 270.598 53.6681C270.697 54.1867 270.814 54.7917 270.994 55.4755C271.174 56.1592 271.417 56.9217 271.676 57.7706C271.889 58.6272 272.25 59.5038 272.628 60.4669C272.813 60.9268 272.959 61.4377 273.199 61.933C273.392 62.4362 273.678 62.9238 273.871 63.427C274.11 63.9223 274.311 64.4687 274.597 64.9563C274.837 65.4517 275.131 65.9826 275.417 66.4702C275.959 67.5397 276.586 68.5505 277.166 69.569C277.755 70.6307 278.466 71.5828 279.093 72.5936C279.758 73.5534 280.47 74.5054 281.126 75.422C281.829 76.3309 282.478 77.2042 283.156 77.9834C283.787 78.7704 284.457 79.5063 285.072 80.2068C286.294 81.5646 287.364 82.6353 288.135 83.399C288.906 84.1627 289.37 84.5762 289.37 84.5762L290.039 84.0633Z" fill="#70AC44"/>
<path d="M295.794 76.3248C295.794 76.3248 294.507 74.1304 292.886 70.6981C292.071 68.9604 291.159 66.9711 290.253 64.7579C289.804 63.673 289.385 62.4938 288.974 61.3579C288.554 60.1788 288.181 58.9919 287.809 57.805C287.482 56.6104 287.101 55.3803 286.822 54.1779C286.542 52.9755 286.215 51.7809 286.045 50.6495C285.867 49.4748 285.604 48.3589 285.497 47.3062C285.39 46.2534 285.19 45.2162 285.201 44.2776C285.165 43.3468 285.138 42.4592 285.09 41.709C285.041 40.9588 285.149 40.2718 285.142 39.7377C285.102 40.2796 285.041 40.9588 285.043 41.7167C285.045 42.4747 285.072 43.3623 285.108 44.2931C285.097 45.2317 285.242 46.2334 285.357 47.3294C285.418 48.3899 285.634 49.5135 285.813 50.6882C285.945 51.8706 286.263 53.022 286.504 54.2753C286.784 55.4777 287.119 56.7155 287.399 57.9179C287.78 59.148 288.106 60.3426 288.525 61.5218C288.945 62.7009 289.317 63.8878 289.766 64.9728C290.58 67.2014 291.453 69.2417 292.222 70.9872C293.805 74.4704 295.054 76.7157 295.054 76.7157L295.794 76.3248Z" fill="#70AC44"/>
<path d="M305.245 63.5995C305.245 63.5995 304.202 61.6767 303.113 58.5127C302.815 57.7148 302.602 56.8582 302.287 55.9738C302.066 55.074 301.781 54.0954 301.543 53.1092C301.297 52.0797 301.097 51.0424 300.943 49.9974C300.89 49.4711 300.781 48.9092 300.728 48.3829L300.559 46.7606C300.444 45.6646 300.421 44.5532 300.361 43.4927C300.292 42.389 300.38 41.3485 300.374 40.3235C300.368 39.2985 300.511 38.2935 300.568 37.3472C300.626 36.4009 300.793 35.5255 300.922 34.7011C301.051 33.8767 301.142 33.1033 301.304 32.4518C301.466 31.8003 301.591 31.1997 301.693 30.7366C301.945 29.8025 302.031 29.2529 302.031 29.2529C302.031 29.2529 301.899 29.8102 301.647 30.7443C301.498 31.2152 301.365 31.7725 301.203 32.4241C301.04 33.0756 300.95 33.849 300.774 34.6812C300.645 35.5056 300.478 36.3809 300.374 37.335C300.316 38.2813 300.128 39.294 300.087 40.3268C300.046 41.3595 299.967 42.4432 299.981 43.5114C299.995 44.5796 299.97 45.6988 300.086 46.7948L300.216 48.468C300.27 48.9944 300.332 49.564 300.432 50.0826C300.547 51.1786 300.747 52.2158 300.947 53.253C301.147 54.2903 301.385 55.2766 301.606 56.1764C301.874 57.0685 302.049 57.9761 302.347 58.774C303.352 61.9967 304.365 64.0137 304.365 64.0137L305.245 63.5995Z" fill="#70AC44"/>
<path d="M313.536 51.3352C313.536 51.3352 313.546 49.1478 313.969 45.8657C314.052 45.0491 314.219 44.1737 314.37 43.2119C314.528 42.2933 314.717 41.2806 314.906 40.2678C315.33 38.2346 315.876 36.0916 316.525 33.9764C316.798 32.905 317.219 31.8535 317.547 30.8175C317.876 29.7815 318.305 28.7733 318.642 27.7805C318.978 26.7877 319.424 25.8659 319.832 24.9951C320.186 24.0887 320.61 23.3043 320.942 22.5354C321.328 21.8019 321.622 21.084 321.979 20.4447C322.297 19.8564 322.578 19.319 322.828 18.8759C323.283 17.9973 323.571 17.5031 323.571 17.5031C323.571 17.5031 323.283 17.9972 322.82 18.8326C322.561 19.2326 322.281 19.7699 321.916 20.366C321.597 20.9543 321.257 21.68 320.87 22.4135C320.484 23.1469 320.068 23.9746 319.66 24.8454C319.251 25.7163 318.805 26.6381 318.422 27.6386C318.039 28.6391 317.601 29.6042 317.227 30.6479C316.852 31.6916 316.431 32.7431 316.103 33.7791C315.408 35.902 314.815 38.0527 314.344 40.0937C314.109 41.1142 313.912 42.0837 313.715 43.0533C313.556 43.9718 313.351 44.8982 313.268 45.7148C312.706 49.0201 312.657 51.2585 312.657 51.2585L313.536 51.3352Z" fill="#70AC44"/>
<path d="M245.644 174.859C245.644 174.859 245.832 176.21 246.187 178.241C246.347 179.26 246.609 180.43 246.848 181.671C247.094 182.945 247.458 184.266 247.751 185.6C247.953 186.274 248.115 186.922 248.276 187.569C248.472 188.211 248.633 188.858 248.823 189.467C249.238 190.679 249.605 191.832 249.941 192.821C250.747 194.743 251.245 196.009 251.245 196.009C251.245 196.009 250.747 194.743 250.046 192.803C249.746 191.808 249.42 190.682 249.069 189.426C248.879 188.817 248.753 188.164 248.592 187.516C248.431 186.869 248.263 186.189 248.138 185.536C247.879 184.196 247.586 182.863 247.376 181.583C247.171 180.336 246.98 179.154 246.82 178.136C246.506 176.131 246.388 174.769 246.388 174.769L245.644 174.859Z" fill="#70AC44"/>
<path d="M250.635 163.88C250.635 163.88 250.622 164.186 250.687 164.715C250.702 164.982 250.73 165.314 250.8 165.673C250.869 166.033 250.909 166.431 250.997 166.888C251.114 167.307 251.209 167.797 251.338 168.281C251.433 168.771 251.604 169.282 251.781 169.825C251.959 170.369 252.136 170.913 252.313 171.456C252.561 171.988 252.78 172.558 253.027 173.09C253.275 173.622 253.459 174.198 253.741 174.724C254.024 175.251 254.307 175.777 254.583 176.27C254.825 176.769 255.101 177.263 255.33 177.696C255.6 178.157 255.858 178.553 256.115 178.948C257.098 180.47 257.763 181.472 257.763 181.472C257.763 181.472 257.127 180.431 256.214 178.898C255.992 178.496 255.734 178.101 255.464 177.64C255.229 177.174 254.994 176.707 254.747 176.175C254.505 175.676 254.258 175.144 253.975 174.618C253.727 174.086 253.544 173.51 253.331 172.972C253.112 172.402 252.9 171.864 252.722 171.321C252.58 170.771 252.403 170.228 252.226 169.684C252.048 169.14 251.919 168.656 251.853 168.128C251.759 167.638 251.635 167.186 251.547 166.729C251.465 166.304 251.425 165.907 251.391 165.541C251.321 165.182 251.335 164.876 251.291 164.648C251.267 164.146 251.28 163.84 251.28 163.84L250.635 163.88Z" fill="#70AC44"/>
<path d="M256.863 147.977C256.863 147.977 256.93 148.323 257.093 148.92C257.151 149.223 257.273 149.604 257.394 149.985C257.524 150.409 257.662 150.877 257.847 151.337C258.04 151.84 258.279 152.336 258.489 152.925C258.698 153.515 258.993 154.046 259.304 154.663C259.606 155.237 259.871 155.862 260.228 156.472C260.586 157.081 260.943 157.691 261.301 158.3C261.658 158.91 262.016 159.519 262.411 160.078C262.807 160.637 263.203 161.195 263.552 161.761C263.947 162.32 264.288 162.843 264.629 163.366C265.008 163.838 265.34 164.318 265.656 164.712C266.944 166.415 267.829 167.517 267.829 167.517C267.829 167.517 266.983 166.364 265.787 164.645C265.463 164.209 265.131 163.729 264.798 163.249C264.457 162.726 264.117 162.203 263.814 161.629C263.465 161.062 263.116 160.496 262.758 159.886C262.354 159.285 262.09 158.659 261.732 158.05C261.421 157.433 261.11 156.815 260.753 156.206C260.442 155.588 260.177 154.963 259.921 154.382C259.665 153.8 259.363 153.226 259.208 152.672C259.006 152.125 258.805 151.579 258.62 151.119C258.436 150.659 258.344 150.184 258.214 149.759C258.093 149.378 258.018 148.989 257.968 148.73C257.86 148.168 257.793 147.822 257.793 147.822L256.863 147.977Z" fill="#70AC44"/>
<path d="M261.877 138.133C261.877 138.133 262.208 139.103 262.986 140.401C263.192 140.724 263.407 141.089 263.621 141.455C263.836 141.821 264.143 142.171 264.459 142.565C265.082 143.308 265.761 144.088 266.515 144.765C266.916 145.1 267.27 145.442 267.717 145.769C268.117 146.104 268.547 146.344 268.986 146.628C269.378 146.92 269.847 147.109 270.222 147.315C270.433 147.413 270.598 147.52 270.809 147.618C271.02 147.717 271.222 147.772 271.378 147.836C271.737 147.954 272.104 148.116 272.408 148.199C272.712 148.283 273.016 148.366 273.219 148.421C273.671 148.524 273.928 148.615 273.928 148.615C273.928 148.615 273.671 148.524 273.257 148.37C273.055 148.315 272.751 148.232 272.438 148.105C272.134 148.022 271.814 147.852 271.446 147.691C271.235 147.592 271.079 147.529 270.868 147.43C270.704 147.324 270.493 147.225 270.328 147.118C269.953 146.913 269.522 146.673 269.13 146.381C268.747 146.133 268.308 145.849 267.954 145.507C267.562 145.215 267.208 144.873 266.845 144.487C266.137 143.802 265.506 143.015 264.976 142.256C264.715 141.898 264.445 141.496 264.277 141.123C264.063 140.757 263.857 140.435 263.697 140.104C263.012 138.791 262.79 137.891 262.79 137.891L261.877 138.133Z" fill="#70AC44"/>
<path d="M265.821 130.205C265.821 130.205 265.876 130.24 265.985 130.311C266.095 130.382 266.268 130.532 266.441 130.681C266.833 130.973 267.436 131.363 268.195 131.816C268.571 132.021 269.001 132.262 269.423 132.459C269.9 132.692 270.36 132.839 270.883 133.064C271.398 133.246 271.96 133.42 272.505 133.507C273.058 133.638 273.657 133.762 274.24 133.798C274.536 133.838 274.832 133.878 275.119 133.875C275.406 133.872 275.694 133.868 275.981 133.865C276.564 133.902 277.122 133.809 277.68 133.716C278.2 133.674 278.741 133.495 279.206 133.417C279.718 133.332 280.111 133.133 280.513 132.977C280.915 132.821 281.279 132.715 281.579 132.532C281.888 132.391 282.15 132.258 282.366 132.133C282.798 131.883 283.068 131.793 283.068 131.793C283.068 131.793 282.806 131.926 282.366 132.133C282.095 132.223 281.833 132.355 281.524 132.496C281.215 132.637 280.805 132.75 280.442 132.855C280.031 132.968 279.583 133.132 279.118 133.209C278.653 133.286 278.15 133.415 277.63 133.457C277.102 133.456 276.544 133.548 275.961 133.512C275.674 133.515 275.424 133.467 275.137 133.471C274.85 133.474 274.592 133.383 274.297 133.343C273.705 133.263 273.199 133.124 272.645 132.993C272.139 132.855 271.624 132.673 271.155 132.483C270.687 132.294 270.218 132.104 269.788 131.863C269.366 131.666 268.982 131.418 268.653 131.205C267.236 130.326 266.52 129.597 266.52 129.597L265.821 130.205Z" fill="#70AC44"/>
<path d="M270.674 120.03C270.674 120.03 270.729 120.065 270.876 120.085C271.033 120.148 271.235 120.204 271.493 120.295C272.008 120.477 272.81 120.655 273.752 120.811C274.694 120.966 275.775 121.098 276.979 121.121C277.554 121.114 278.221 121.092 278.834 121.035C279.439 120.934 280.098 120.869 280.694 120.725C281.011 120.628 281.29 120.581 281.608 120.484C281.925 120.386 282.187 120.253 282.504 120.156C283.092 119.969 283.608 119.66 284.133 119.394C284.658 119.128 285.065 118.748 285.496 118.498C285.92 118.204 286.28 117.832 286.602 117.511C286.924 117.19 287.262 116.955 287.445 116.657C287.636 116.402 287.873 116.139 288.026 115.936C287.873 116.139 287.674 116.351 287.437 116.614C287.254 116.912 286.869 117.154 286.539 117.432C286.208 117.71 285.848 118.083 285.416 118.333C284.985 118.583 284.578 118.963 284.045 119.186C283.512 119.408 283.042 119.71 282.454 119.897C282.184 119.986 281.913 120.076 281.596 120.173C281.325 120.263 281 120.317 280.674 120.372C280.078 120.515 279.465 120.573 278.899 120.623C278.286 120.68 277.711 120.687 277.128 120.65C276.009 120.569 274.928 120.436 274.07 120.222C272.263 119.81 271.255 119.308 271.255 119.308L270.674 120.03Z" fill="#70AC44"/>
<path d="M277.497 108.366C277.497 108.366 277.733 108.594 278.171 108.878C278.391 109.02 278.703 109.146 279.024 109.316C279.188 109.422 279.382 109.435 279.585 109.49C279.788 109.545 279.99 109.601 280.239 109.649C280.691 109.752 281.173 109.761 281.701 109.762C282.221 109.72 282.787 109.67 283.337 109.534C283.887 109.398 284.428 109.219 284.961 108.996C285.494 108.774 286.01 108.465 286.489 108.207C287.005 107.897 287.42 107.561 287.89 107.259C288.351 106.915 288.711 106.543 289.126 106.206C289.541 105.869 289.855 105.505 290.224 105.176C290.546 104.855 290.868 104.533 291.143 104.22C292.199 102.973 292.902 102.143 292.902 102.143C292.902 102.143 292.152 102.981 291.033 104.149C290.75 104.419 290.428 104.74 290.059 105.069C289.691 105.398 289.322 105.727 288.945 106.013C288.53 106.35 288.115 106.687 287.645 106.988C287.176 107.289 286.706 107.59 286.228 107.849C285.741 108.063 285.271 108.365 284.73 108.544C284.197 108.767 283.702 108.938 283.182 108.98C282.679 109.109 282.151 109.107 281.724 109.134C281.234 109.082 280.799 109.065 280.394 108.954C280.199 108.942 280.035 108.835 279.84 108.823C279.684 108.76 279.528 108.697 279.372 108.633C279.106 108.499 278.84 108.365 278.667 108.215C278.33 107.959 278.157 107.81 278.157 107.81L277.497 108.366Z" fill="#70AC44"/>
<path d="M283.456 97.2035C283.456 97.2035 283.511 97.2389 283.659 97.2589C283.815 97.3221 283.971 97.3853 284.221 97.4331C284.478 97.524 284.774 97.564 285.116 97.5962C285.458 97.6284 285.847 97.6529 286.274 97.6264C286.7 97.6 287.157 97.4793 287.614 97.3587C288.062 97.1948 288.51 97.0309 288.997 96.8161C289.437 96.609 289.86 96.3155 290.33 96.0142C290.753 95.7207 291.114 95.3484 291.529 95.0117C291.897 94.6827 292.249 94.2672 292.618 93.9382C292.931 93.5738 293.237 93.1661 293.504 92.8093C294.131 92.0804 294.509 91.3037 294.921 90.6999C295.681 89.4136 296.144 88.5782 296.144 88.5782C296.144 88.5782 295.588 89.4291 294.811 90.6289C294.345 91.1973 293.865 91.9462 293.23 92.632C292.916 92.9964 292.602 93.3609 292.28 93.6822C291.912 94.0112 291.552 94.3834 291.183 94.7124C290.806 94.9982 290.391 95.3349 290.006 95.5775C289.574 95.8278 289.143 96.0781 288.749 96.2775C288.309 96.4846 287.899 96.5975 287.489 96.7104C287.07 96.7801 286.652 96.8498 286.271 96.8685C285.891 96.8872 285.595 96.8473 285.3 96.8073C285.004 96.7673 284.747 96.6764 284.544 96.6209C284.388 96.5577 284.185 96.5022 284.13 96.4668C284.029 96.439 283.974 96.4036 283.974 96.4036L283.456 97.2035Z" fill="#70AC44"/>
<path d="M331.332 33.1167C331.332 33.1167 341.261 27.3596 350.008 23.9402C358.756 20.5209 366.51 17.1777 359.036 14.0064C351.506 10.7996 338.004 19.4269 333.147 24.607C328.236 29.7517 326.106 33.1396 331.332 33.1167Z" fill="#427037"/>
<path d="M328.388 34.2758C328.388 34.2758 328.418 34.1816 328.524 33.9855C328.639 33.8326 328.783 33.5856 329.012 33.2798C329.241 32.974 329.508 32.6173 329.86 32.2018C330.212 31.7864 330.602 31.32 331.039 30.8459C331.522 30.364 331.996 29.8389 332.619 29.3337C333.14 28.8009 333.809 28.288 334.47 27.7319C335.139 27.2191 335.854 26.6985 336.616 26.1701C337.387 25.685 338.102 25.1644 338.919 24.6715C339.744 24.2218 340.506 23.6935 341.293 23.2948C342.127 22.8883 342.859 22.4542 343.701 22.091C344.496 21.7355 345.245 21.3877 345.994 21.04C346.751 20.7355 347.462 20.4387 348.088 20.2007C349.378 19.6736 350.515 19.3503 351.272 19.0458C352.084 18.7768 352.486 18.6206 352.486 18.6206C352.486 18.6206 352.038 18.7845 351.264 19.0026C350.499 19.2639 349.306 19.5517 348.016 20.0788C347.344 20.3246 346.625 20.5781 345.867 20.8826C345.11 21.1871 344.315 21.5426 343.52 21.8981C342.716 22.2104 341.891 22.66 341.057 23.0665C340.224 23.4729 339.399 23.9226 338.573 24.3722C337.748 24.8219 336.986 25.3502 336.208 25.7921C335.437 26.2773 334.675 26.8056 334.006 27.3185C333.337 27.8314 332.622 28.352 332.054 28.8926C331.431 29.3977 330.91 29.9305 330.419 30.3692C329.936 30.8511 329.499 31.3252 329.148 31.7407C328.749 32.1639 328.482 32.5206 328.215 32.8773C327.994 33.2263 327.795 33.4379 327.689 33.634C327.583 33.8301 327.506 33.932 327.506 33.932L328.388 34.2758Z" fill="#70AC44"/>
<path d="M229.555 289.376C229.555 289.376 229.524 286.972 229.556 279.919C229.624 247.658 237.72 146.259 329.067 32.8244L328.488 31.315C328.488 31.315 221.203 143.478 218.554 279.61C218.495 282.787 218.571 285.674 218.651 288.828L229.555 289.376Z" fill="#805430"/>
<path d="M267.271 224.419H328.271L325.077 205.419H269.825L267.271 224.419Z" fill="#FCF1E7"/>
<path d="M403.869 82.8569L387.721 77.9926V73.1283H428.091C434.12 73.1283 439.395 73.885 443.916 75.3983C448.438 76.6954 452.421 78.5331 455.866 80.9111C459.311 83.2893 462.325 86.2078 464.909 89.6669C467.493 92.9097 469.753 96.585 471.691 100.693L519.49 196.357L568.58 87.7212L544.358 77.9926V73.1283H605.721V77.9926L579.884 87.7212L523.365 212.571V290.4L542.743 295.264V300.128H450.698V295.264L470.076 290.4V215.814L403.869 82.8569Z" fill="#FCF1E7"/>
<path d="M734.913 181.628C734.913 160.201 733.398 142.345 730.368 128.06C727.555 113.558 723.768 101.979 719.007 93.3214C714.462 84.6639 709.268 78.6036 703.425 75.1406C697.582 71.4611 691.847 69.6214 686.221 69.6214C680.594 69.6214 674.859 71.4611 669.016 75.1406C663.173 78.6036 657.871 84.6639 653.11 93.3214C648.565 101.979 644.778 113.558 641.748 128.06C638.935 142.345 637.528 160.201 637.528 181.628C637.528 203.056 638.935 221.02 641.748 235.521C644.778 249.806 648.565 261.278 653.11 269.935C657.871 278.593 663.173 284.761 669.016 288.441C674.859 291.904 680.594 293.635 686.221 293.635C691.847 293.635 697.582 291.904 703.425 288.441C709.268 284.761 714.462 278.593 719.007 269.935C723.768 261.278 727.555 249.806 730.368 235.521C733.398 221.02 734.913 203.056 734.913 181.628ZM791.721 181.628C791.721 200.675 789.124 217.557 783.93 232.275C778.952 246.993 771.811 259.438 762.505 269.61C753.416 279.567 742.379 287.142 729.395 292.336C716.41 297.531 702.019 300.128 686.221 300.128C670.423 300.128 656.031 297.531 643.047 292.336C630.062 287.142 618.917 279.567 609.611 269.61C600.522 259.438 593.381 246.993 588.187 232.275C583.209 217.557 580.721 200.675 580.721 181.628C580.721 162.582 583.209 145.699 588.187 130.982C593.381 116.264 600.522 103.927 609.611 93.9707C618.917 83.7981 630.062 76.1146 643.047 70.92C656.031 65.7255 670.423 63.1283 686.221 63.1283C702.019 63.1283 716.41 65.7255 729.395 70.92C742.379 76.1146 753.416 83.7981 762.505 93.9707C771.811 103.927 778.952 116.264 783.93 130.982C789.124 145.699 791.721 162.582 791.721 181.628Z" fill="#FCF1E7"/>
<path d="M759.825 72.7012H756.627V52.9014H763.487C765.912 52.9014 767.621 53.0967 768.614 53.4873C769.623 53.8617 770.429 54.4964 771.031 55.3916C771.633 56.2868 771.935 57.2389 771.935 58.248C771.935 59.7617 771.406 61.0394 770.348 62.0811C769.29 63.1227 767.931 63.7087 766.271 63.8389C767.019 64.1481 767.719 64.6608 768.37 65.377C769.037 66.0768 769.876 67.2324 770.885 68.8438L773.277 72.7012H769.371L767.638 69.6006C766.384 67.3708 765.392 65.9303 764.659 65.2793C763.927 64.612 762.95 64.2783 761.729 64.2783H759.825V72.7012ZM759.825 55.5869V61.5439H763.731C765.392 61.5439 766.604 61.3079 767.369 60.8359C768.134 60.3477 768.517 59.5827 768.517 58.541C768.517 57.4505 768.142 56.6855 767.394 56.2461C766.661 55.8066 765.359 55.5869 763.487 55.5869H759.825ZM764 44.4053C767.288 44.4053 770.356 45.2354 773.204 46.8955C776.052 48.5394 778.299 50.7855 779.942 53.6338C781.603 56.4658 782.433 59.5257 782.433 62.8135C782.433 66.1175 781.611 69.1855 779.967 72.0176C778.323 74.8496 776.077 77.0876 773.229 78.7314C770.38 80.3753 767.304 81.1973 764 81.1973C760.68 81.1973 757.595 80.3835 754.747 78.7559C751.899 77.112 749.653 74.874 748.009 72.042C746.365 69.1937 745.543 66.1175 745.543 62.8135C745.543 59.5094 746.365 56.4414 748.009 53.6094C749.669 50.7611 751.923 48.515 754.771 46.8711C757.62 45.2272 760.696 44.4053 764 44.4053ZM764 47.457C759.768 47.457 756.147 48.9626 753.136 51.9736C750.141 54.9684 748.644 58.5817 748.644 62.8135C748.644 67.0615 750.141 70.6829 753.136 73.6777C756.131 76.6562 759.752 78.1455 764 78.1455C768.232 78.1455 771.845 76.6481 774.84 73.6533C777.835 70.6585 779.332 67.0452 779.332 62.8135C779.332 58.5817 777.826 54.9684 774.815 51.9736C771.821 48.9626 768.215 47.457 764 47.457Z" fill="#7E7E7E"/>
</svg>
