<svg width="783" height="374" viewBox="0 0 783 374" fill="none" xmlns="http://www.w3.org/2000/svg">
<path d="M3.69999 337.72H10.74C13.98 337.72 16.5 337.72 18.78 340.04C19.98 341.24 20.9 342.96 20.9 345.44C20.9 346.8 20.66 349 18.62 350.96C16.9 352.6 14.74 353.16 10.5 353.16H7.61999V365H3.69999V337.72ZM10.58 341.16H7.61999V349.68H10.74C12.3 349.68 13.9 349.68 15.06 348.96C16.14 348.32 16.86 347.08 16.86 345.36C16.86 344.4 16.62 343.2 15.66 342.32C14.46 341.16 13.38 341.16 10.58 341.16ZM49.7581 337.56L61.9581 365H57.9581L54.3181 356.96H42.7181L39.2781 365H35.2781L46.9981 337.56H49.7581ZM44.2381 353.44H52.7181L48.3181 343.56L44.2381 353.44ZM107.158 337.72V365H103.798L85.5578 344V365H81.8778V337.72H85.0378L103.438 358.88V337.72H107.158ZM169.221 337.56L181.421 365H177.421L173.781 356.96H162.181L158.741 365H154.741L166.461 337.56H169.221ZM163.701 353.44H172.181L167.781 343.56L163.701 353.44ZM214.571 339.28V343.72C212.251 341.48 210.011 340.88 208.171 340.88C205.491 340.88 203.851 342.32 203.851 344.04C203.851 346.36 205.451 347.32 210.651 350.36C211.811 351.04 213.131 352 214.171 353.4C215.011 354.48 215.651 355.96 215.651 357.92C215.651 362.2 212.571 365.36 207.731 365.36C205.051 365.36 202.491 364.44 200.371 362.84V357.88C201.171 358.88 203.611 361.88 207.731 361.88C209.771 361.88 211.971 360.6 211.971 358.28C211.971 356 209.651 354.32 208.371 353.56C204.051 350.96 202.811 350.2 201.611 348.68C200.771 347.6 200.251 346.32 200.251 344.6C200.251 340.48 203.371 337.36 208.291 337.36C210.531 337.36 212.691 338.04 214.571 339.28ZM240.691 337.72V365H236.771V337.72H240.691ZM275.011 337.56L287.211 365H283.211L279.571 356.96H267.971L264.531 365H260.531L272.251 337.56H275.011ZM269.491 353.44H277.971L273.571 343.56L269.491 353.44ZM332.411 337.72V365H329.051L310.811 344V365H307.131V337.72H310.291L328.691 358.88V337.72H332.411ZM383.114 337.72H389.954C391.234 337.72 392.914 337.84 394.634 338.6C397.554 339.84 398.914 342.56 398.914 345.32C398.914 348.48 397.314 350.88 394.354 352.04C396.834 353.68 398.354 356.2 400.434 359.56C401.594 361.44 402.274 362.36 404.154 365H399.514C398.594 363.68 394.794 357.72 393.914 356.56C391.234 353.12 389.914 353.12 388.034 353.12H386.994V365H383.114V337.72ZM388.194 341.04H386.994V349.64H388.514C389.114 349.64 391.234 349.64 392.314 349.24C394.154 348.52 394.914 346.8 394.914 345.32C394.914 343.76 394.114 342.28 392.834 341.68C391.834 341.2 390.554 341.04 388.194 341.04ZM439.414 337.72V341.2H427.854V349.52H439.014V353H427.854V361.48H439.774V365H423.934V337.72H439.414ZM474.554 339.28V343.72C472.234 341.48 469.994 340.88 468.154 340.88C465.474 340.88 463.834 342.32 463.834 344.04C463.834 346.36 465.434 347.32 470.634 350.36C471.794 351.04 473.114 352 474.154 353.4C474.994 354.48 475.634 355.96 475.634 357.92C475.634 362.2 472.554 365.36 467.714 365.36C465.034 365.36 462.474 364.44 460.354 362.84V357.88C461.154 358.88 463.594 361.88 467.714 361.88C469.754 361.88 471.954 360.6 471.954 358.28C471.954 356 469.634 354.32 468.354 353.56C464.034 350.96 462.794 350.2 461.594 348.68C460.754 347.6 460.234 346.32 460.234 344.6C460.234 340.48 463.354 337.36 468.274 337.36C470.514 337.36 472.674 338.04 474.554 339.28ZM517.194 337.72V341.16H507.674V365H503.754V341.16H494.394V337.72H517.194ZM545.15 337.56L557.35 365H553.35L549.71 356.96H538.11L534.67 365H530.67L542.39 337.56H545.15ZM539.63 353.44H548.11L543.71 343.56L539.63 353.44ZM599.249 337.72V353.2C599.249 355.84 599.249 359.64 596.169 362.4C593.729 364.56 590.689 365.36 587.569 365.36C583.729 365.36 579.489 364.04 577.329 360.6C575.809 358.2 575.809 355.04 575.809 353.2V337.72H579.729V353.2C579.729 356.8 580.049 358.2 581.449 359.6C582.609 360.8 584.409 361.88 587.569 361.88C591.969 361.88 593.889 359.6 594.609 358.28C595.129 357.32 595.369 355.88 595.369 353.2V337.72H599.249ZM621.609 337.72H628.449C629.729 337.72 631.409 337.84 633.129 338.6C636.049 339.84 637.409 342.56 637.409 345.32C637.409 348.48 635.809 350.88 632.849 352.04C635.329 353.68 636.849 356.2 638.929 359.56C640.089 361.44 640.769 362.36 642.649 365H638.009C637.089 363.68 633.289 357.72 632.409 356.56C629.729 353.12 628.409 353.12 626.529 353.12H625.489V365H621.609V337.72ZM626.689 341.04H625.489V349.64H627.009C627.609 349.64 629.729 349.64 630.809 349.24C632.649 348.52 633.409 346.8 633.409 345.32C633.409 343.76 632.609 342.28 631.329 341.68C630.329 341.2 629.049 341.04 626.689 341.04ZM673.91 337.56L686.11 365H682.11L678.47 356.96H666.87L663.43 365H659.43L671.15 337.56H673.91ZM668.39 353.44H676.87L672.47 343.56L668.39 353.44ZM731.309 337.72V365H727.949L709.709 344V365H706.029V337.72H709.189L727.589 358.88V337.72H731.309ZM774.439 337.72V341.16H764.919V365H760.999V341.16H751.639V337.72H774.439Z" fill="#7E7E7E"/>
<path d="M81.0561 292.012C93.4149 292.012 103.28 288.332 110.652 280.973C118.024 273.615 121.71 263.767 121.71 251.43C121.71 242.989 118.783 235.738 112.929 229.678C107.292 223.401 100.245 217.557 91.7888 212.146C83.3327 206.735 74.0093 201.324 63.8187 195.913C53.8449 190.502 44.6299 184.334 36.1738 177.408C27.7178 170.482 20.5626 162.474 14.7084 153.383C9.07103 144.076 6.25234 132.93 6.25234 119.943C6.25234 112.152 7.8785 104.901 11.1308 98.1913C14.3832 91.2653 19.2617 85.205 25.7664 80.0105C32.4879 74.816 40.8355 70.7036 50.8093 67.6735C60.7832 64.6434 72.4916 63.1283 85.9346 63.1283C93.5234 63.1283 100.57 64.3187 107.075 66.6995C113.579 68.8639 119.108 71.2447 123.662 73.842C129.082 76.8721 133.852 80.3351 137.972 84.231C139.707 81.4173 141.55 78.9283 143.501 76.7639C145.669 74.3831 147.621 72.4351 149.355 70.9201C151.523 69.1886 153.692 67.6735 155.86 66.3749H163.991V128.06H150.981C147.946 117.671 143.718 108.256 138.297 99.8146C133.744 92.6721 127.673 86.179 120.084 80.3351C112.495 74.2749 103.28 71.2447 92.4392 71.2447C88.3196 71.2447 84.4168 72.1105 80.7308 73.842C77.0449 75.5735 73.7925 78.0625 70.9738 81.3091C68.1551 84.3393 65.8785 88.1269 64.1439 92.6721C62.4093 97.0009 61.542 101.763 61.542 106.957C61.542 116.264 64.3607 124.272 69.9981 130.982C75.8523 137.475 83.0075 143.535 91.4635 149.163C99.9196 154.79 109.135 160.309 119.108 165.72C129.299 171.131 138.622 177.191 147.078 183.901C155.535 190.394 162.581 197.861 168.219 206.302C174.073 214.743 177 224.916 177 236.82C177 245.261 175.157 253.378 171.471 261.169C167.785 268.745 162.256 275.454 154.884 281.298C147.512 287.142 138.189 291.795 126.914 295.258C115.639 298.505 102.521 300.128 87.5607 300.128C78.0206 300.128 69.6729 299.046 62.5178 296.882C55.3626 294.717 49.2916 292.337 44.3047 289.739C38.4505 286.709 33.3551 283.138 29.0187 279.026C27.2841 282.056 25.3327 284.653 23.1645 286.817C21.2131 288.982 19.3701 290.821 17.6355 292.337C15.4673 294.068 13.2991 295.583 11.1308 296.882H3V235.197H16.0093C19.2617 245.802 23.815 255.326 29.6692 263.767C32.271 267.446 35.1981 271.017 38.4505 274.48C41.7028 277.727 45.3888 280.649 49.5084 283.246C53.8449 285.843 58.615 288.008 63.8187 289.739C69.0224 291.254 74.7682 292.012 81.0561 292.012Z" fill="#5D3D22"/>
<path fill-rule="evenodd" clip-rule="evenodd" d="M277.159 128.988L282.027 140.509L282.057 140.438L317.687 225.628H317.525C318.681 228.391 319.814 231.096 320.915 233.726H320.927L337.446 272.595C340.469 279.938 345.436 286.416 352.346 292.03C359.257 297.429 368.758 300.128 380.851 300.128H419.721V295.27L403.525 290.411L311.209 70.1484H301.492L277.159 128.988Z" fill="#5D3D22"/>
<path d="M182.376 294.946V299.804H242.3V294.946L218.007 285.228H208.289L182.376 294.946Z" fill="#5D3D22"/>
<path d="M216.55 239.885C216.55 239.885 218.929 238.284 217.482 235.76C216.036 233.235 213.469 235.357 210.401 237.117C207.325 238.834 196.188 243.053 195.292 242.89C194.342 242.691 195.349 251.4 204.49 247.781C213.639 244.206 216.55 239.885 216.55 239.885Z" fill="#427037"/>
<path d="M216.968 226.389C216.968 226.389 220.958 222.691 218.361 220.67C216.439 219.162 216.04 219.585 213.764 220.722C211.487 221.859 196.595 230.495 193.073 231.394C189.55 232.293 186.979 236.379 191.889 237.702C196.799 239.025 204.821 235.326 208.482 233.155C212.189 230.976 216.968 226.389 216.968 226.389Z" fill="#427037"/>
<path d="M218.462 210.974C218.462 210.974 220.517 208.936 219.474 207.013C218.533 205.118 216.182 205.867 214.231 206.95C212.326 208.025 194.718 216.266 191.217 217.027C187.763 217.781 183.24 219.961 184.998 224.352C185.867 226.616 195.974 225.022 206.19 219.262C216.46 213.537 218.462 210.974 218.462 210.974Z" fill="#427037"/>
<path d="M225.867 192.879C225.867 192.879 227.809 190.504 226.739 187.694C225.686 184.97 221.807 186.508 219.709 187.571C217.61 188.634 199.655 197.066 194.25 198.903C188.845 200.74 177.233 202.495 178.963 207.738C180.702 213.024 192.359 211.752 200.833 208.155C209.314 204.602 223.005 194.962 225.867 192.879Z" fill="#427037"/>
<path d="M225.959 181.892C225.959 181.892 228.234 179.506 227.826 177.388C227.284 174.579 225.645 174.54 220.869 175.157C216.101 175.817 196.852 179.781 188.939 179.314C181.026 178.847 172.261 179.683 173.77 184.026C175.233 188.377 187.175 192.32 203.182 188.718C219.227 185.065 225.959 181.892 225.959 181.892Z" fill="#427037"/>
<path d="M225.944 170.118C225.944 170.118 230.24 169.001 229.903 165.757C229.511 162.476 228.826 162.412 224.969 162.073C221.104 161.691 192.25 158.645 185.531 157.4C178.811 156.155 168.525 152.337 167.236 158.35C165.995 164.356 180.391 171.816 199.176 172.167C217.952 172.475 225.944 170.118 225.944 170.118Z" fill="#427037"/>
<path d="M229.566 157.783C229.566 157.783 233.622 157.911 234.052 155.163C234.436 152.422 234.228 151.342 231.603 150.173C228.978 149.005 211.376 142.345 202.691 138.617C193.997 134.846 183.3 125.164 178.468 129.225C173.635 133.286 180.137 144.604 196.41 150.101C212.582 155.571 219.124 158.139 229.566 157.783Z" fill="#427037"/>
<path d="M232.915 145.539C232.915 145.539 238.456 146.401 239.41 142.138C240.683 138.536 235.863 136.93 234.268 136.125C232.673 135.32 221.865 129.046 215.403 124.903C215.403 124.903 203.52 117.783 198.489 112.599C193.45 107.371 186.192 107.064 186.143 114.03C186.102 121.04 205.629 135.943 216.776 140.242C227.961 144.491 232.915 145.539 232.915 145.539Z" fill="#427037"/>
<path d="M238.99 130.743C238.99 130.743 244.737 131.927 245.439 127.35C246.178 122.722 239.444 120.899 234.311 117.427C229.132 113.963 211.552 101.189 208.413 96.3592C203.173 88.8459 193.935 90.9642 195.666 99.1957C200.699 108.126 214.749 120.016 222.938 124.406C231.128 128.797 238.99 130.743 238.99 130.743Z" fill="#427037"/>
<path d="M243.728 117.733C243.728 117.733 253.42 119.464 248.716 110.746C243.453 103.861 231.416 97.4354 225.024 87.9283C218.679 78.4134 214.924 74.6226 210.82 79.7221C206.67 84.8293 215.91 97.1629 224.96 105.023C234.01 112.883 242.63 117.514 243.728 117.733Z" fill="#427037"/>
<path d="M251.072 106.028C251.072 106.028 255.048 107.73 257.412 105.553C259.775 103.375 258.545 100.725 256.013 97.8009C253.482 94.877 239.401 78.8443 236.237 70.8961C232.796 59.024 220.881 60.6961 222.503 70.1055C222.501 78.3132 241.394 99.388 251.072 106.028Z" fill="#427037"/>
<path d="M259.468 92.3186C259.468 92.3186 263.824 95.7417 265.919 91.4229C268.06 87.0963 258.438 81.2495 255.556 72.273C251.243 62.598 248.679 51.7844 243.947 52.8845C239.216 53.9847 237.254 57.7461 241.849 67.6417C246.491 77.5295 254.529 89.3497 259.468 92.3186Z" fill="#427037"/>
<path d="M267.751 79.0284C267.751 79.0284 271.92 81.2336 274.136 79.0357C276.352 76.8379 273.992 74.5545 272.07 71.3061C270.148 68.0577 266.229 61.172 264.41 55.7207C262.545 50.2771 261.83 44.3297 257.056 45.7047C252.282 47.0796 252.07 53.4489 254.78 60.536C257.443 67.6309 265.035 77.3843 267.751 79.0284Z" fill="#427037"/>
<path d="M275.237 68.3264C275.237 68.3264 277.136 70.9542 280.578 69.8903C283.974 68.8341 281.658 65.7851 280.315 61.0575C278.964 56.2867 277.502 42.4794 277.499 38.7328C277.505 35.0296 267.869 29.8542 266.8 41.9865C265.732 54.1189 274.593 67.7201 275.237 68.3264Z" fill="#427037"/>
<path d="M285.934 55.8394C285.934 55.8394 288.263 58.7078 291.149 57.246C293.699 56.2859 292.688 52.0383 291.93 46.8566C291.162 41.6316 291.62 35.043 292.552 30.9178C293.485 26.7925 294.283 23.7156 291.479 23.112C288.676 22.5084 282.84 24.1046 282.543 37.0007C282.245 49.8967 285.934 55.8394 285.934 55.8394Z" fill="#427037"/>
<path d="M300.594 43.7623C300.594 43.7623 306.561 46.337 307.424 41.599C308.286 36.8609 309.513 28.5383 311.545 24.1408C313.577 19.7433 315.726 17.1997 315.726 17.1997C315.726 17.1997 318.513 11.7398 312.458 11.9453C306.394 12.1076 303.447 18.977 300.118 29.3446C296.42 40.5321 300.594 43.7623 300.594 43.7623Z" fill="#427037"/>
<path d="M222.926 248.845C222.926 248.845 223.62 255.534 227.409 254.597C231.198 253.66 228.663 247.199 228.006 242.681C227.314 238.218 227.389 219.526 227.755 216.709C228.122 213.892 226.184 213.1 224.782 217.081C223.334 221.074 220.878 234.176 222.926 248.845Z" fill="#427037"/>
<path d="M230.138 214.717C230.138 214.717 230.272 220.493 232.983 220.446C235.701 220.432 235.303 215.543 234.499 211.563C233.731 205.319 233.053 196.161 233.17 194.321C233.287 192.481 233.081 188.402 231.762 189.465C230.456 190.593 229.03 207.653 230.138 214.717Z" fill="#427037"/>
<path d="M238.357 178.319C238.357 178.319 239.694 184.502 241.965 188.945C244.236 193.388 245.858 197.096 242.406 200.267C238.955 203.437 235.585 190.85 235.806 186.161C236.02 181.439 235.471 178.968 238.357 178.319Z" fill="#427037"/>
<path d="M243.083 182.522C243.083 182.522 247.391 187.368 250.108 184.151C252.825 180.934 250.239 178.431 247.827 176.271C245.409 174.078 243.226 170.092 242.895 168.563C242.57 167.066 239.664 167.044 240.325 173.104C240.902 179.11 243.083 182.522 243.083 182.522Z" fill="#427037"/>
<path d="M263.108 164.241C263.108 164.241 255.98 159.629 253.98 156.974C251.98 154.318 247.463 152.795 248.132 159.999C248.801 167.203 255.014 177.276 259.56 174.467C264.144 171.607 265.366 166.497 263.108 164.241Z" fill="#427037"/>
<path d="M253.971 147.698C253.971 147.698 257.225 154.873 263.461 153.612C269.697 152.35 272.21 143.724 267.969 143.137C263.69 142.6 257.843 140.898 256.73 140.102C255.578 139.357 252.192 139.965 253.971 147.698Z" fill="#427037"/>
<path d="M257.734 133.867C257.734 133.867 259.767 141.424 267.878 138.691C275.982 135.914 278.469 124.17 274.666 125.606C270.864 127.042 264.366 129.685 261.444 128.967C258.624 128.277 257.573 132.288 257.734 133.867Z" fill="#427037"/>
<path d="M267.57 124.646C267.57 124.646 261.297 124.219 263.379 120.08C265.46 115.942 268.474 117.135 272.427 114.738C276.38 112.34 282.079 108.045 280.146 113.452C278.213 118.859 273.182 124.38 267.57 124.646Z" fill="#427037"/>
<path d="M271.565 111.759C271.565 111.759 266.576 111.519 268.948 107.645C271.321 103.77 275.228 104.369 278.401 101.164C281.566 97.9156 284.932 96.9536 283.039 101.819C281.183 106.633 276.404 111.22 271.565 111.759Z" fill="#427037"/>
<path d="M276.245 99.6947C276.245 99.6947 270.35 101.479 274.067 95.8645C277.737 90.2574 283.152 87.9729 285.768 83.1212C288.392 78.3128 289.738 82.0586 286.922 87.6127C284.113 93.2101 278.241 99.0947 276.245 99.6947Z" fill="#427037"/>
<path d="M277.659 84.1142C277.659 84.1142 273.137 90.5322 278.01 88.4271C282.883 86.3219 292.719 72.8634 291.439 66.4749C290.482 64.4933 289.067 70.3492 285.391 74.9313C281.715 79.5134 277.659 84.1142 277.659 84.1142Z" fill="#427037"/>
<path d="M298.403 59.0261C298.403 59.0261 295.006 63.5618 296.036 59.1972C297.066 54.8327 303.938 46.9083 306.08 42.0909C308.223 37.2735 310.743 35.1588 308.154 42.6378C305.564 50.1168 298.403 59.0261 298.403 59.0261Z" fill="#427037"/>
<path d="M315.555 33.2423C315.555 33.2423 313.697 34.3099 314.89 29.2939C316.082 24.2778 318.384 21.5304 319.696 16.1376C321 10.7016 322.257 2.28479 323.916 4.41725C325.575 6.54971 321.541 19.9788 319.849 23.6506C318.111 27.3301 316.858 32.5345 315.555 33.2423Z" fill="#427037"/>
<path d="M217.325 233.2C217.325 233.2 216.202 234.1 214.34 235.392C213.408 236.037 212.346 236.75 211.144 237.485C209.942 238.22 208.647 238.971 207.343 239.679C206.688 240.011 205.994 240.395 205.329 240.684C204.665 240.973 204.009 241.305 203.345 241.594C202.673 241.84 202.055 242.121 201.429 242.359C200.795 242.554 200.215 242.784 199.72 242.956C199.171 243.092 198.676 243.264 198.219 243.384C197.763 243.505 197.344 243.575 197.027 243.672C197.344 243.575 197.771 243.548 198.228 243.427C198.684 243.307 199.187 243.178 199.737 243.042C200.287 242.906 200.866 242.676 201.5 242.481C202.135 242.286 202.753 242.005 203.425 241.759C204.098 241.513 204.753 241.181 205.464 240.884C206.175 240.587 206.831 240.255 207.533 239.915C208.891 239.243 210.241 238.528 211.443 237.792C212.7 237.092 213.762 236.38 214.702 235.777C216.581 234.572 217.797 233.656 217.797 233.656L217.325 233.2Z" fill="#70AC44"/>
<path d="M218.618 217.506C218.618 217.506 217.385 218.826 215.242 220.655C214.166 221.548 212.921 222.558 211.49 223.599C210.059 224.641 208.48 225.662 206.893 226.64C206.122 227.125 205.251 227.582 204.48 228.067C203.655 228.517 202.822 228.924 202.035 229.322C201.256 229.764 200.452 230.076 199.704 230.424C198.955 230.772 198.244 231.069 197.58 231.358C196.916 231.647 196.29 231.885 195.757 232.107C195.215 232.287 194.72 232.458 194.319 232.614C193.507 232.883 193.067 233.091 193.067 233.091C193.067 233.091 193.515 232.927 194.327 232.658C194.729 232.502 195.232 232.373 195.773 232.194C196.315 232.014 196.932 231.733 197.605 231.487C198.277 231.242 198.988 230.945 199.737 230.597C200.486 230.249 201.289 229.937 202.076 229.538C202.863 229.14 203.752 228.769 204.53 228.327C205.356 227.877 206.236 227.463 206.998 226.935C208.64 225.992 210.219 224.971 211.704 223.965C213.144 222.967 214.482 221.941 215.566 221.092C217.772 219.342 219.043 217.97 219.043 217.97L218.618 217.506Z" fill="#70AC44"/>
<path d="M222.252 203.251C222.252 203.251 214.641 208.087 206.698 212.443C204.701 213.533 202.695 214.581 200.813 215.519C199.848 215.992 198.921 216.414 198.041 216.828C197.153 217.199 196.319 217.606 195.516 217.918C194.712 218.23 194.001 218.527 193.321 218.729C192.64 218.932 192.052 219.119 191.595 219.24C190.627 219.446 190.023 219.546 190.023 219.546C190.023 219.546 190.581 219.453 191.604 219.283C192.107 219.155 192.695 218.968 193.375 218.765C194.056 218.562 194.767 218.266 195.579 217.997C196.383 217.684 197.224 217.321 198.159 216.942C199.039 216.528 200.012 216.099 200.985 215.669C202.923 214.766 204.984 213.754 206.989 212.706C215.059 208.508 222.85 203.865 222.85 203.865L222.252 203.251Z" fill="#70AC44"/>
<path d="M229.399 184.307C229.399 184.307 226.952 186.053 223.062 188.529C219.172 191.006 213.924 194.155 208.47 196.981C207.12 197.697 205.716 198.377 204.357 199.049C202.999 199.721 201.624 200.307 200.296 200.885C197.585 202.006 195.072 202.915 192.797 203.561C191.66 203.884 190.607 204.149 189.685 204.347C188.755 204.502 187.918 204.641 187.212 204.714C186.561 204.823 185.987 204.829 185.606 204.848C185.226 204.867 185.04 204.898 185.04 204.898C185.04 204.898 185.234 204.91 185.615 204.891C185.995 204.872 186.523 204.874 187.229 204.801C187.888 204.735 188.734 204.639 189.71 204.477C190.632 204.279 191.693 204.057 192.839 203.777C195.122 203.174 197.689 202.3 200.409 201.223C201.746 200.688 203.167 200.095 204.534 199.466C205.9 198.837 207.305 198.157 208.71 197.477C219.846 192.009 230.039 185.137 230.039 185.137L229.399 184.307Z" fill="#70AC44"/>
<path d="M233.422 174.048C233.422 174.048 230.152 175.261 225.086 176.863C220.066 178.458 213.233 180.354 206.3 181.731C204.541 182.069 202.82 182.355 201.1 182.642C199.379 182.929 197.642 183.129 195.99 183.27C194.337 183.411 192.731 183.545 191.202 183.577C189.672 183.608 188.235 183.625 186.913 183.488C185.561 183.445 184.379 183.286 183.289 183.11C182.791 183.015 182.292 182.919 181.794 182.824C181.342 182.721 180.937 182.61 180.578 182.491C179.822 182.305 179.252 182.087 178.885 181.925C179.29 182.036 179.822 182.305 180.578 182.491C180.975 182.559 181.342 182.721 181.794 182.824C182.246 182.927 182.744 183.022 183.289 183.11C184.332 183.293 185.561 183.445 186.875 183.539C188.189 183.632 189.634 183.659 191.172 183.671C192.701 183.639 194.316 183.549 195.977 183.451C197.629 183.309 199.366 183.109 201.057 182.917C202.786 182.674 204.553 182.379 206.32 182.085C213.325 180.829 220.175 179.019 225.258 177.504C230.341 175.988 233.665 174.81 233.665 174.81L233.422 174.048Z" fill="#70AC44"/>
<path d="M238.879 162.789C238.879 162.789 238.718 162.95 238.371 163.142C237.977 163.341 237.36 163.622 236.548 163.891C236.137 164.004 235.689 164.168 235.186 164.296C234.674 164.382 234.125 164.518 233.529 164.662C232.32 164.863 230.933 165.138 229.42 165.257C227.915 165.418 226.255 165.516 224.492 165.587C222.73 165.657 220.905 165.649 218.987 165.656C217.098 165.569 215.133 165.584 213.089 165.434C211.09 165.276 209.054 165.169 207.001 164.975C204.995 164.774 202.942 164.581 200.935 164.38C198.967 164.128 196.999 163.876 195.077 163.616C193.163 163.399 191.373 163.073 189.645 162.825C187.918 162.578 186.283 162.315 184.75 162.079C178.732 160.985 174.754 160.265 174.754 160.265C174.754 160.265 178.74 161.028 184.729 162.217C186.262 162.452 187.858 162.766 189.594 163.057C191.33 163.348 193.12 163.674 195.042 163.934C196.917 164.201 198.894 164.497 200.871 164.792C202.839 165.044 204.892 165.237 206.907 165.482C208.922 165.726 211.004 165.825 213.011 166.027C215.009 166.184 217.029 166.205 218.926 166.335C220.852 166.371 222.677 166.379 224.494 166.344C226.257 166.274 227.926 166.219 229.477 166.05C230.99 165.932 232.431 165.692 233.64 165.49C234.237 165.347 234.841 165.246 235.344 165.118C235.894 164.981 236.389 164.81 236.799 164.697C237.657 164.42 238.322 164.131 238.808 163.916C239.24 163.666 239.494 163.49 239.502 163.533L238.879 162.789Z" fill="#70AC44"/>
<path d="M242.61 155.745C242.61 155.745 241.613 155.554 239.877 155.263C238.142 154.972 235.705 154.53 232.753 153.907C226.904 152.695 219.114 150.87 211.587 148.421C209.699 147.843 207.842 147.171 205.985 146.499C204.174 145.82 202.401 145.089 200.684 144.393C199.004 143.647 197.371 142.893 195.877 142.116C194.384 141.339 192.991 140.589 191.785 139.809C190.532 139.036 189.474 138.276 188.517 137.543C188.061 137.173 187.661 136.838 187.26 136.503C186.86 136.169 186.561 135.862 186.262 135.555C185.625 134.991 185.238 134.476 184.939 134.169C184.631 133.819 184.505 133.661 184.505 133.661C184.505 133.661 184.678 133.811 184.939 134.169C185.238 134.476 185.634 135.035 186.262 135.555C186.552 135.818 186.906 136.161 187.26 136.503C187.661 136.838 188.061 137.173 188.517 137.543C189.474 138.276 190.494 139.087 191.747 139.86C192.953 140.64 194.354 141.433 195.809 142.261C197.303 143.038 198.898 143.843 200.577 144.59C202.257 145.336 204.03 146.067 205.849 146.79C207.66 147.469 209.525 148.185 211.421 148.806C218.964 151.341 226.687 153.311 232.552 154.609C235.458 155.241 237.958 155.761 239.647 156.06C241.345 156.401 242.341 156.592 242.341 156.592L242.61 155.745Z" fill="#70AC44"/>
<path d="M247.411 145.044C247.411 145.044 243.738 143.916 238.276 141.971C236.934 141.481 235.482 140.919 233.928 140.331C232.413 139.691 230.767 139.117 229.096 138.414C227.424 137.711 225.707 137.016 224.019 136.227C222.293 135.488 220.55 134.663 218.845 133.787C217.111 133.006 215.444 132.079 213.786 131.195C212.128 130.312 210.601 129.362 209.036 128.462C207.517 127.556 206.083 126.59 204.713 125.703C203.38 124.765 202.149 123.855 201.027 123.016C199.905 122.177 199.008 121.256 198.106 120.559C197.203 119.861 196.58 119.118 195.99 118.547C194.903 117.39 194.242 116.697 194.242 116.697C194.242 116.697 194.903 117.39 195.944 118.554C196.487 119.133 197.11 119.877 198.021 120.617C198.885 121.365 199.783 122.287 200.904 123.126C202.026 123.965 203.219 124.926 204.552 125.864C205.922 126.751 207.31 127.724 208.837 128.674C210.402 129.573 211.937 130.566 213.595 131.45C215.253 132.334 216.928 133.304 218.671 134.129C220.376 135.005 222.072 135.837 223.806 136.619C225.503 137.452 227.229 138.19 228.9 138.893C230.58 139.639 232.188 140.264 233.703 140.903C235.256 141.492 236.717 142.097 238.059 142.587C243.491 144.626 247.172 145.797 247.172 145.797L247.411 145.044Z" fill="#70AC44"/>
<path d="M253.174 131.862C253.174 131.862 252.245 131.526 250.628 130.859C249.012 130.191 246.754 129.185 244.02 127.945C242.69 127.274 241.222 126.627 239.682 125.857C238.142 125.088 236.547 124.283 234.935 123.391C233.285 122.551 231.61 121.581 229.936 120.611C228.223 119.692 226.616 118.577 224.933 117.563C223.288 116.499 221.681 115.384 220.036 114.32C218.476 113.197 216.962 112.066 215.541 110.92C214.167 109.766 212.755 108.663 211.528 107.529C210.302 106.395 209.138 105.34 208.123 104.304C207.146 103.218 206.286 102.246 205.499 101.396C205.309 101.16 205.128 100.967 204.947 100.774C204.766 100.581 204.623 100.338 204.442 100.145C204.172 99.7435 203.911 99.3855 203.65 99.0275C202.669 97.6743 202.093 96.9228 202.093 96.9228C202.093 96.9228 202.669 97.6743 203.604 99.0353C203.865 99.3933 204.126 99.7513 204.395 100.152C204.53 100.353 204.719 100.589 204.854 100.79C205.035 100.983 205.225 101.219 205.406 101.412C206.155 102.313 207.015 103.285 207.992 104.371C209.007 105.406 210.124 106.469 211.312 107.654C212.539 108.788 213.905 109.899 215.287 111.096C216.708 112.242 218.222 113.373 219.744 114.547C221.351 115.662 222.958 116.777 224.556 117.849C226.247 118.906 227.854 120.021 229.529 120.991C231.212 122.004 232.832 122.939 234.499 123.866C236.11 124.757 237.713 125.605 239.207 126.382C240.756 127.195 242.178 127.85 243.553 128.513C246.25 129.804 248.516 130.854 250.132 131.521C251.757 132.232 252.686 132.568 252.686 132.568L253.174 131.862Z" fill="#70AC44"/>
<path d="M259.221 119.926C259.221 119.926 259.019 119.871 258.605 119.717C258.2 119.606 257.63 119.388 256.904 119.108C256.178 118.827 255.296 118.484 254.249 118.033C253.249 117.575 252.101 117.098 250.881 116.498C250.248 116.202 249.615 115.906 248.974 115.566C248.333 115.227 247.691 114.888 246.995 114.513C245.611 113.807 244.241 112.92 242.785 112.092C242.072 111.631 241.36 111.169 240.647 110.708C239.934 110.247 239.166 109.75 238.492 109.238C237.088 108.179 235.645 107.17 234.271 106.016C233.588 105.461 232.905 104.905 232.222 104.35C231.577 103.744 230.932 103.137 230.296 102.574C229.698 101.96 229.015 101.405 228.463 100.783C227.911 100.161 227.313 99.547 226.769 98.9684C225.581 97.7835 224.672 96.5522 223.771 95.364C223.32 94.77 222.87 94.1759 222.436 93.6683C222.04 93.1097 221.691 92.5433 221.342 91.977C220.652 90.8875 219.987 89.9277 219.424 88.9956C218.961 88.0913 218.516 87.2734 218.196 86.6129C217.511 85.2996 217.074 84.5249 217.074 84.5249C217.074 84.5249 217.456 85.2641 218.15 86.6206C218.469 87.2811 218.915 88.099 219.385 89.0466C219.894 89.9432 220.567 90.9462 221.211 92.0434C221.552 92.5666 221.909 93.1761 222.305 93.7347C222.701 94.2933 223.151 94.8874 223.601 95.4814C224.502 96.6696 225.42 97.9442 226.562 99.1368C227.114 99.7586 227.665 100.38 228.217 101.002C228.777 101.667 229.414 102.23 230.012 102.844C230.657 103.451 231.255 104.065 231.9 104.671C232.583 105.226 233.228 105.833 233.911 106.388C235.239 107.55 236.689 108.602 238.093 109.662C238.776 110.217 239.536 110.67 240.257 111.175C240.97 111.636 241.691 112.14 242.403 112.601C243.867 113.473 245.238 114.36 246.622 115.066C247.318 115.441 247.968 115.823 248.609 116.162C249.25 116.502 249.883 116.798 250.525 117.137C251.752 117.78 252.9 118.258 253.901 118.716C254.939 119.123 255.838 119.553 256.564 119.834C257.298 120.157 257.914 120.367 258.328 120.521C258.742 120.675 258.991 120.723 258.991 120.723L259.221 119.926Z" fill="#70AC44"/>
<path d="M264.78 110.169C264.78 110.169 261.903 108.194 257.869 104.941C256.887 104.079 255.765 103.239 254.657 102.22C254.083 101.735 253.51 101.251 252.928 100.723C252.347 100.196 251.765 99.6679 251.175 99.0971C249.957 98.0064 248.815 96.8137 247.627 95.6288C246.439 94.4439 245.327 93.1571 244.13 91.929C243.018 90.6422 241.906 89.3553 240.841 88.0608C240.327 87.388 239.822 86.7585 239.355 86.078C238.849 85.4484 238.336 84.7756 237.923 84.1306C237.465 83.4933 237.006 82.856 236.593 82.211C236.135 81.5737 235.731 80.9719 235.42 80.3546C234.696 79.0922 233.952 77.9673 233.401 76.8546C232.851 75.7419 232.363 74.7079 231.939 73.7526C231.477 72.8483 231.264 71.9916 230.991 71.3234C230.492 69.9791 230.194 69.1812 230.194 69.1812C230.194 69.1812 230.445 69.9869 230.945 71.3311C231.217 71.9994 231.431 72.856 231.855 73.8113C232.27 74.7234 232.766 75.8006 233.27 76.9211C233.82 78.0338 234.527 79.2097 235.204 80.4797C235.57 81.1325 235.927 81.7421 236.386 82.3794C236.798 83.0244 237.257 83.6617 237.678 84.3499C238.09 84.995 238.604 85.6677 239.062 86.305C239.53 86.9855 240.035 87.6151 240.549 88.2878C241.576 89.6334 242.688 90.9202 243.753 92.2148C244.912 93.4939 246.024 94.7807 247.212 95.9656C248.408 97.1937 249.55 98.3863 250.722 99.4848C251.312 100.056 251.893 100.583 252.475 101.111C253.057 101.639 253.638 102.166 254.165 102.658C255.274 103.678 256.357 104.568 257.339 105.431C261.344 108.778 264.182 110.803 264.182 110.803L264.78 110.169Z" fill="#70AC44"/>
<path d="M271.583 98.1515C271.583 98.1515 269.374 96.1551 266.396 92.9042C265.663 92.0896 264.867 91.1962 264.054 90.2164C263.203 89.2876 262.42 88.2136 261.498 87.1628C260.668 86.0966 259.784 84.9949 258.929 83.799C258.083 82.6464 257.182 81.4582 256.421 80.2468L255.209 78.4414C254.805 77.8396 254.448 77.23 254.044 76.6282C253.686 76.0186 253.282 75.4168 252.925 74.8073C252.567 74.1977 252.256 73.5804 251.907 73.0141C251.55 72.4045 251.247 71.8304 250.944 71.2563C250.642 70.6823 250.385 70.1004 250.091 69.5696C249.541 68.4569 249.007 67.4306 248.621 66.4243C248.189 65.4258 247.819 64.506 247.475 63.7158C247.177 62.9179 246.934 62.1554 246.725 61.5659C246.305 60.3867 246.079 59.7107 246.079 59.7107C246.079 59.7107 246.305 60.3867 246.678 61.5736C246.888 62.1632 247.122 62.8824 247.382 63.7313C247.68 64.5292 248.049 65.4491 248.481 66.4476C248.867 67.4538 249.363 68.5311 249.914 69.6438C250.17 70.2256 250.472 70.7997 250.728 71.3815C251.031 71.9556 251.342 72.5729 251.645 73.147C251.956 73.7643 252.313 74.3738 252.624 74.9911C252.982 75.6007 253.339 76.2103 253.697 76.8198C254.054 77.4294 254.411 78.0389 254.824 78.684L255.998 80.5404C256.767 81.795 257.622 82.9908 258.421 84.1513C259.221 85.3117 260.114 86.4566 260.951 87.566C261.827 88.6245 262.61 89.6985 263.423 90.6783C264.236 91.6581 264.985 92.5592 265.727 93.4171C268.629 96.7699 270.846 98.8095 270.846 98.8095L271.583 98.1515Z" fill="#70AC44"/>
<path d="M279.039 84.0634C279.039 84.0634 278.575 83.6499 277.813 82.9294C277.05 82.2089 275.933 81.1459 274.72 79.8314C274.113 79.1741 273.443 78.4382 272.765 77.659C272.087 76.8798 271.392 76.0141 270.697 75.1485C270.003 74.2829 269.291 73.3308 268.58 72.3788C267.915 71.419 267.157 70.4746 266.577 69.4561C265.95 68.4454 265.276 67.4423 264.743 66.4161C264.457 65.9284 264.162 65.3976 263.876 64.9099C263.637 64.4145 263.389 63.8759 263.103 63.3883C262.864 62.8929 262.624 62.3975 262.385 61.9021C262.145 61.4067 261.961 60.9468 261.768 60.4437C261.398 59.5238 260.982 58.6117 260.778 57.7983C260.518 56.9495 260.229 56.1947 260.049 55.511C259.869 54.8272 259.752 54.2222 259.652 53.7036C259.414 52.7173 259.298 52.1122 259.298 52.1122C259.298 52.1122 259.406 52.6741 259.598 53.6681C259.697 54.1867 259.814 54.7918 259.994 55.4755C260.174 56.1593 260.417 56.9217 260.676 57.7706C260.889 58.6272 261.25 59.5038 261.628 60.4669C261.813 60.9268 261.959 61.4377 262.199 61.9331C262.392 62.4362 262.678 62.9239 262.871 63.427C263.11 63.9224 263.311 64.4687 263.597 64.9564C263.837 65.4518 264.131 65.9826 264.417 66.4703C264.959 67.5398 265.586 68.5505 266.166 69.569C266.755 70.6308 267.466 71.5828 268.093 72.5936C268.758 73.5534 269.47 74.5055 270.126 75.4221C270.829 76.3309 271.478 77.2043 272.156 77.9835C272.787 78.7704 273.457 79.5064 274.072 80.2069C275.294 81.5646 276.364 82.6354 277.135 83.3991C277.906 84.1628 278.37 84.5762 278.37 84.5762L279.039 84.0634Z" fill="#70AC44"/>
<path d="M284.794 76.3247C284.794 76.3247 283.507 74.1303 281.886 70.698C281.071 68.9603 280.159 66.971 279.253 64.7579C278.804 63.6729 278.385 62.4937 277.974 61.3578C277.554 60.1787 277.181 58.9918 276.809 57.8049C276.482 56.6103 276.101 55.3802 275.822 54.1778C275.542 52.9754 275.215 51.7808 275.045 50.6494C274.867 49.4747 274.604 48.3588 274.497 47.3061C274.39 46.2533 274.19 45.2161 274.201 44.2775C274.165 43.3467 274.138 42.4591 274.09 41.7089C274.041 40.9587 274.149 40.2717 274.142 39.7376C274.102 40.2795 274.041 40.9587 274.043 41.7167C274.045 42.4746 274.072 43.3622 274.108 44.293C274.097 45.2316 274.242 46.2333 274.357 47.3293C274.418 48.3898 274.634 49.5134 274.813 50.6881C274.945 51.8705 275.263 53.0219 275.504 54.2752C275.784 55.4776 276.119 56.7154 276.399 57.9178C276.78 59.1479 277.106 60.3425 277.525 61.5217C277.945 62.7008 278.317 63.8877 278.766 64.9727C279.58 67.2013 280.453 69.2416 281.222 70.9871C282.805 74.4703 284.054 76.7157 284.054 76.7157L284.794 76.3247Z" fill="#70AC44"/>
<path d="M294.245 63.5996C294.245 63.5996 293.202 61.6767 292.113 58.5128C291.815 57.7148 291.602 56.8582 291.287 55.9739C291.066 55.074 290.781 54.0955 290.543 53.1092C290.297 52.0797 290.097 51.0425 289.943 49.9975C289.89 49.4711 289.781 48.9093 289.728 48.3829L289.559 46.7606C289.444 45.6646 289.421 44.5532 289.361 43.4927C289.292 42.389 289.38 41.3485 289.374 40.3235C289.368 39.2985 289.511 38.2935 289.568 37.3472C289.626 36.4009 289.793 35.5256 289.922 34.7012C290.051 33.8768 290.142 33.1033 290.304 32.4518C290.466 31.8003 290.591 31.1998 290.693 30.7366C290.945 29.8025 291.031 29.2529 291.031 29.2529C291.031 29.2529 290.899 29.8103 290.647 30.7443C290.498 31.2152 290.365 31.7726 290.203 32.4241C290.04 33.0756 289.95 33.849 289.774 34.6812C289.645 35.5056 289.478 36.3809 289.374 37.335C289.316 38.2813 289.128 39.294 289.087 40.3268C289.046 41.3595 288.967 42.4432 288.981 43.5115C288.995 44.5797 288.97 45.6988 289.086 46.7948L289.216 48.4681C289.27 48.9944 289.332 49.564 289.432 50.0826C289.547 51.1786 289.747 52.2158 289.947 53.2531C290.147 54.2903 290.385 55.2766 290.606 56.1764C290.874 57.0686 291.049 57.9761 291.347 58.774C292.352 61.9967 293.365 64.0137 293.365 64.0137L294.245 63.5996Z" fill="#70AC44"/>
<path d="M302.536 51.3351C302.536 51.3351 302.546 49.1477 302.969 45.8656C303.052 45.049 303.219 44.1736 303.37 43.2118C303.528 42.2933 303.717 41.2805 303.906 40.2677C304.33 38.2345 304.876 36.0916 305.525 33.9764C305.798 32.9049 306.219 31.8534 306.547 30.8175C306.876 29.7815 307.305 28.7732 307.642 27.7805C307.978 26.7877 308.424 25.8659 308.832 24.995C309.186 24.0887 309.61 23.3043 309.942 22.5353C310.328 21.8019 310.622 21.0839 310.979 20.4446C311.297 19.8563 311.578 19.319 311.828 18.8758C312.283 17.9972 312.571 17.5031 312.571 17.5031C312.571 17.5031 312.283 17.9972 311.82 18.8326C311.561 19.2325 311.281 19.7699 310.916 20.3659C310.597 20.9542 310.257 21.68 309.87 22.4134C309.484 23.1469 309.068 23.9745 308.66 24.8454C308.251 25.7162 307.805 26.638 307.422 27.6386C307.039 28.6391 306.601 29.6041 306.227 30.6478C305.852 31.6916 305.431 32.743 305.103 33.779C304.408 35.902 303.815 38.0526 303.344 40.0936C303.109 41.1141 302.912 42.0837 302.715 43.0532C302.556 43.9718 302.351 44.8981 302.268 45.7147C301.706 49.0201 301.657 51.2584 301.657 51.2584L302.536 51.3351Z" fill="#70AC44"/>
<path d="M234.644 174.859C234.644 174.859 234.832 176.21 235.187 178.241C235.347 179.26 235.609 180.43 235.848 181.671C236.094 182.945 236.458 184.267 236.751 185.6C236.953 186.274 237.115 186.922 237.276 187.569C237.472 188.211 237.633 188.858 237.823 189.467C238.238 190.679 238.605 191.832 238.941 192.821C239.747 194.743 240.245 196.009 240.245 196.009C240.245 196.009 239.747 194.743 239.046 192.803C238.746 191.808 238.42 190.682 238.069 189.426C237.879 188.817 237.753 188.164 237.592 187.516C237.431 186.869 237.263 186.189 237.138 185.536C236.879 184.196 236.586 182.863 236.376 181.583C236.171 180.336 235.98 179.154 235.82 178.136C235.506 176.132 235.388 174.769 235.388 174.769L234.644 174.859Z" fill="#70AC44"/>
<path d="M239.635 163.88C239.635 163.88 239.622 164.186 239.687 164.715C239.702 164.982 239.73 165.314 239.8 165.674C239.869 166.033 239.909 166.431 239.997 166.888C240.114 167.307 240.209 167.797 240.338 168.281C240.433 168.771 240.604 169.282 240.781 169.825C240.959 170.369 241.136 170.913 241.313 171.456C241.561 171.988 241.78 172.558 242.027 173.09C242.275 173.622 242.459 174.199 242.741 174.725C243.024 175.251 243.307 175.777 243.583 176.27C243.825 176.769 244.101 177.263 244.33 177.697C244.6 178.157 244.858 178.553 245.115 178.948C246.098 180.47 246.763 181.472 246.763 181.472C246.763 181.472 246.127 180.431 245.214 178.898C244.992 178.497 244.734 178.101 244.464 177.64C244.229 177.174 243.994 176.707 243.747 176.175C243.505 175.676 243.258 175.144 242.975 174.618C242.727 174.086 242.544 173.51 242.331 172.972C242.112 172.402 241.9 171.864 241.722 171.321C241.58 170.771 241.403 170.228 241.226 169.684C241.048 169.14 240.919 168.656 240.853 168.128C240.759 167.638 240.635 167.186 240.547 166.729C240.465 166.304 240.425 165.907 240.391 165.541C240.321 165.182 240.335 164.876 240.291 164.648C240.267 164.146 240.28 163.84 240.28 163.84L239.635 163.88Z" fill="#70AC44"/>
<path d="M245.863 147.977C245.863 147.977 245.93 148.323 246.093 148.92C246.151 149.223 246.273 149.604 246.394 149.985C246.524 150.409 246.662 150.877 246.847 151.337C247.04 151.84 247.279 152.336 247.489 152.925C247.698 153.515 247.993 154.046 248.304 154.663C248.606 155.237 248.871 155.862 249.228 156.472C249.586 157.081 249.943 157.691 250.301 158.3C250.658 158.91 251.016 159.519 251.411 160.078C251.807 160.637 252.203 161.195 252.552 161.761C252.947 162.32 253.288 162.843 253.629 163.366C254.008 163.838 254.34 164.318 254.656 164.712C255.944 166.415 256.829 167.517 256.829 167.517C256.829 167.517 255.983 166.364 254.787 164.645C254.463 164.209 254.131 163.729 253.798 163.249C253.457 162.726 253.117 162.203 252.814 161.629C252.465 161.062 252.116 160.496 251.758 159.886C251.354 159.285 251.09 158.659 250.732 158.05C250.421 157.433 250.11 156.815 249.753 156.206C249.442 155.588 249.177 154.963 248.921 154.382C248.665 153.8 248.363 153.226 248.208 152.672C248.006 152.125 247.805 151.579 247.62 151.119C247.436 150.659 247.344 150.184 247.214 149.759C247.093 149.378 247.018 148.989 246.968 148.73C246.86 148.168 246.793 147.822 246.793 147.822L245.863 147.977Z" fill="#70AC44"/>
<path d="M250.877 138.133C250.877 138.133 251.208 139.103 251.986 140.401C252.192 140.724 252.407 141.089 252.621 141.455C252.836 141.821 253.143 142.171 253.459 142.565C254.082 143.308 254.761 144.088 255.515 144.765C255.916 145.1 256.27 145.442 256.717 145.769C257.117 146.104 257.547 146.344 257.986 146.628C258.378 146.92 258.847 147.109 259.222 147.314C259.433 147.413 259.598 147.52 259.809 147.618C260.02 147.717 260.222 147.772 260.378 147.836C260.737 147.954 261.104 148.116 261.408 148.199C261.712 148.283 262.016 148.366 262.219 148.421C262.671 148.524 262.928 148.615 262.928 148.615C262.928 148.615 262.671 148.524 262.257 148.37C262.055 148.315 261.751 148.232 261.438 148.105C261.134 148.022 260.814 147.852 260.446 147.69C260.235 147.592 260.079 147.529 259.868 147.43C259.704 147.323 259.493 147.225 259.328 147.118C258.953 146.913 258.522 146.673 258.13 146.381C257.747 146.133 257.308 145.849 256.954 145.507C256.562 145.215 256.208 144.872 255.845 144.487C255.137 143.802 254.506 143.015 253.976 142.256C253.715 141.898 253.445 141.496 253.277 141.123C253.063 140.757 252.857 140.435 252.697 140.104C252.012 138.791 251.79 137.891 251.79 137.891L250.877 138.133Z" fill="#70AC44"/>
<path d="M254.821 130.204C254.821 130.204 254.876 130.24 254.985 130.311C255.095 130.382 255.268 130.532 255.441 130.681C255.833 130.973 256.436 131.363 257.195 131.816C257.571 132.021 258.001 132.262 258.423 132.459C258.9 132.692 259.36 132.839 259.883 133.064C260.398 133.246 260.96 133.42 261.505 133.507C262.058 133.638 262.657 133.762 263.24 133.798C263.536 133.838 263.832 133.878 264.119 133.875C264.406 133.872 264.694 133.868 264.981 133.865C265.564 133.902 266.122 133.809 266.68 133.716C267.2 133.674 267.741 133.495 268.206 133.417C268.718 133.332 269.111 133.133 269.513 132.977C269.915 132.821 270.279 132.715 270.579 132.532C270.888 132.391 271.15 132.258 271.366 132.133C271.798 131.883 272.068 131.793 272.068 131.793C272.068 131.793 271.806 131.926 271.366 132.133C271.095 132.223 270.833 132.355 270.524 132.496C270.215 132.637 269.805 132.75 269.442 132.855C269.031 132.968 268.583 133.132 268.118 133.209C267.653 133.286 267.15 133.415 266.63 133.457C266.102 133.456 265.544 133.548 264.961 133.512C264.674 133.515 264.424 133.467 264.137 133.47C263.85 133.474 263.592 133.383 263.297 133.343C262.705 133.263 262.199 133.124 261.645 132.993C261.139 132.855 260.624 132.673 260.155 132.483C259.687 132.294 259.218 132.104 258.788 131.863C258.366 131.666 257.982 131.418 257.653 131.205C256.236 130.326 255.52 129.597 255.52 129.597L254.821 130.204Z" fill="#70AC44"/>
<path d="M259.674 120.03C259.674 120.03 259.729 120.065 259.876 120.085C260.033 120.148 260.235 120.204 260.493 120.295C261.008 120.477 261.81 120.655 262.752 120.811C263.694 120.966 264.775 121.098 265.979 121.121C266.554 121.114 267.221 121.092 267.834 121.035C268.439 120.934 269.098 120.869 269.694 120.725C270.011 120.628 270.29 120.581 270.608 120.484C270.925 120.386 271.187 120.253 271.504 120.156C272.092 119.969 272.608 119.66 273.133 119.394C273.658 119.128 274.065 118.748 274.496 118.498C274.92 118.204 275.28 117.832 275.602 117.511C275.924 117.19 276.262 116.955 276.445 116.657C276.636 116.402 276.873 116.14 277.026 115.936C276.873 116.14 276.674 116.351 276.437 116.614C276.254 116.912 275.869 117.154 275.539 117.432C275.208 117.71 274.848 118.083 274.416 118.333C273.985 118.583 273.578 118.963 273.045 119.186C272.512 119.408 272.042 119.71 271.454 119.897C271.184 119.986 270.913 120.076 270.596 120.173C270.325 120.263 270 120.317 269.674 120.372C269.078 120.515 268.465 120.573 267.899 120.623C267.286 120.68 266.711 120.687 266.128 120.65C265.009 120.569 263.928 120.436 263.07 120.222C261.263 119.81 260.255 119.308 260.255 119.308L259.674 120.03Z" fill="#70AC44"/>
<path d="M266.497 108.366C266.497 108.366 266.733 108.594 267.171 108.878C267.391 109.02 267.703 109.146 268.024 109.316C268.188 109.422 268.382 109.435 268.585 109.49C268.788 109.545 268.99 109.601 269.239 109.649C269.691 109.752 270.173 109.761 270.701 109.762C271.221 109.72 271.787 109.67 272.337 109.534C272.887 109.398 273.428 109.219 273.961 108.996C274.494 108.774 275.01 108.465 275.489 108.207C276.005 107.898 276.42 107.561 276.89 107.26C277.351 106.915 277.711 106.543 278.126 106.206C278.541 105.869 278.855 105.505 279.224 105.176C279.546 104.855 279.868 104.533 280.143 104.22C281.199 102.973 281.902 102.143 281.902 102.143C281.902 102.143 281.152 102.981 280.033 104.149C279.75 104.419 279.428 104.74 279.059 105.069C278.691 105.398 278.322 105.727 277.945 106.013C277.53 106.35 277.115 106.687 276.645 106.988C276.176 107.289 275.706 107.59 275.228 107.849C274.741 108.063 274.271 108.365 273.73 108.544C273.197 108.767 272.702 108.938 272.182 108.98C271.679 109.109 271.151 109.107 270.724 109.134C270.234 109.082 269.799 109.065 269.394 108.954C269.199 108.942 269.035 108.835 268.84 108.823C268.684 108.76 268.528 108.697 268.372 108.633C268.106 108.499 267.84 108.365 267.667 108.215C267.33 107.959 267.157 107.81 267.157 107.81L266.497 108.366Z" fill="#70AC44"/>
<path d="M272.456 97.2035C272.456 97.2035 272.511 97.239 272.659 97.259C272.815 97.3222 272.971 97.3854 273.221 97.4331C273.478 97.524 273.774 97.564 274.116 97.5962C274.458 97.6285 274.847 97.6529 275.274 97.6265C275.7 97.6 276.157 97.4793 276.614 97.3587C277.062 97.1948 277.51 97.0309 277.997 96.8161C278.437 96.609 278.86 96.3155 279.33 96.0142C279.753 95.7207 280.114 95.3485 280.529 95.0117C280.897 94.6827 281.249 94.2673 281.618 93.9383C281.931 93.5738 282.237 93.1661 282.504 92.8094C283.131 92.0804 283.509 91.3037 283.921 90.6999C284.681 89.4136 285.144 88.5782 285.144 88.5782C285.144 88.5782 284.588 89.4291 283.811 90.629C283.345 91.1973 282.865 91.9462 282.23 92.632C281.916 92.9965 281.602 93.3609 281.28 93.6822C280.912 94.0112 280.552 94.3834 280.183 94.7124C279.806 94.9982 279.391 95.335 279.006 95.5775C278.574 95.8279 278.143 96.0781 277.749 96.2775C277.309 96.4846 276.899 96.5975 276.489 96.7104C276.07 96.7801 275.652 96.8498 275.271 96.8685C274.891 96.8873 274.595 96.8473 274.3 96.8073C274.004 96.7673 273.747 96.6764 273.544 96.6209C273.388 96.5577 273.185 96.5023 273.13 96.4668C273.029 96.4391 272.974 96.4036 272.974 96.4036L272.456 97.2035Z" fill="#70AC44"/>
<path d="M320.332 33.1167C320.332 33.1167 330.261 27.3596 339.008 23.9402C347.756 20.5208 355.51 17.1777 348.036 14.0064C340.506 10.7996 327.004 19.4268 322.147 24.607C317.236 29.7516 315.106 33.1396 320.332 33.1167Z" fill="#427037"/>
<path d="M317.388 34.2758C317.388 34.2758 317.418 34.1816 317.524 33.9855C317.639 33.8326 317.783 33.5855 318.012 33.2798C318.241 32.974 318.508 32.6173 318.86 32.2018C319.212 31.7864 319.602 31.32 320.039 30.8458C320.522 30.3639 320.996 29.8388 321.619 29.3337C322.14 28.8009 322.809 28.288 323.47 27.7319C324.139 27.2191 324.854 26.6984 325.616 26.1701C326.387 25.685 327.102 25.1643 327.919 24.6715C328.744 24.2218 329.506 23.6935 330.293 23.2948C331.127 22.8883 331.859 22.4542 332.701 22.0909C333.496 21.7355 334.245 21.3877 334.994 21.04C335.751 20.7355 336.462 20.4387 337.088 20.2006C338.378 19.6735 339.515 19.3503 340.272 19.0458C341.084 18.7767 341.486 18.6206 341.486 18.6206C341.486 18.6206 341.038 18.7845 340.264 19.0026C339.499 19.2639 338.306 19.5516 337.016 20.0787C336.344 20.3245 335.625 20.5781 334.867 20.8826C334.11 21.1871 333.315 21.5426 332.52 21.8981C331.716 22.2103 330.891 22.66 330.057 23.0664C329.224 23.4729 328.399 23.9225 327.573 24.3722C326.748 24.8218 325.986 25.3502 325.208 25.7921C324.437 26.2772 323.675 26.8056 323.006 27.3185C322.337 27.8313 321.622 28.3519 321.054 28.8925C320.431 29.3976 319.91 29.9305 319.419 30.3692C318.936 30.8511 318.499 31.3252 318.148 31.7406C317.749 32.1638 317.482 32.5206 317.215 32.8773C316.994 33.2263 316.795 33.4379 316.689 33.634C316.583 33.8301 316.506 33.932 316.506 33.932L317.388 34.2758Z" fill="#70AC44"/>
<path d="M218.555 289.376C218.555 289.376 218.524 286.972 218.556 279.919C218.624 247.658 226.72 146.259 318.067 32.8244L317.488 31.315C317.488 31.315 210.203 143.478 207.554 279.61C207.495 282.787 207.571 285.674 207.651 288.828L218.555 289.376Z" fill="#5D3D22"/>
<path d="M256.271 224.419H317.271L314.077 205.419H258.825L256.271 224.419Z" fill="#5D3D22"/>
<path d="M392.869 82.8569L376.721 77.9926V73.1283H417.091C423.12 73.1283 428.395 73.885 432.916 75.3983C437.438 76.6954 441.421 78.5331 444.866 80.9111C448.311 83.2893 451.325 86.2078 453.909 89.6669C456.493 92.9097 458.753 96.585 460.691 100.693L508.49 196.357L557.58 87.7212L533.358 77.9926V73.1283H594.721V77.9926L568.884 87.7212L512.365 212.571V290.4L531.743 295.264V300.128H439.698V295.264L459.076 290.4V215.814L392.869 82.8569Z" fill="#5D3D22"/>
<path d="M723.913 181.628C723.913 160.201 722.398 142.345 719.368 128.06C716.555 113.558 712.768 101.979 708.007 93.3214C703.462 84.6639 698.268 78.6036 692.425 75.1406C686.582 71.4612 680.847 69.6214 675.221 69.6214C669.594 69.6214 663.859 71.4612 658.016 75.1406C652.173 78.6036 646.871 84.6639 642.11 93.3214C637.565 101.979 633.778 113.558 630.748 128.06C627.935 142.345 626.528 160.201 626.528 181.628C626.528 203.056 627.935 221.02 630.748 235.521C633.778 249.806 637.565 261.278 642.11 269.935C646.871 278.593 652.173 284.761 658.016 288.441C663.859 291.904 669.594 293.635 675.221 293.635C680.847 293.635 686.582 291.904 692.425 288.441C698.268 284.761 703.462 278.593 708.007 269.935C712.768 261.278 716.555 249.806 719.368 235.521C722.398 221.02 723.913 203.056 723.913 181.628ZM780.721 181.628C780.721 200.675 778.124 217.557 772.93 232.275C767.952 246.993 760.811 259.438 751.505 269.61C742.416 279.567 731.379 287.142 718.395 292.337C705.41 297.531 691.019 300.128 675.221 300.128C659.423 300.128 645.031 297.531 632.047 292.337C619.062 287.142 607.917 279.567 598.611 269.61C589.522 259.438 582.381 246.993 577.187 232.275C572.209 217.557 569.721 200.675 569.721 181.628C569.721 162.582 572.209 145.7 577.187 130.982C582.381 116.264 589.522 103.927 598.611 93.9708C607.917 83.7982 619.062 76.1146 632.047 70.9201C645.031 65.7256 659.423 63.1283 675.221 63.1283C691.019 63.1283 705.41 65.7256 718.395 70.9201C731.379 76.1146 742.416 83.7982 751.505 93.9708C760.811 103.927 767.952 116.264 772.93 130.982C778.124 145.7 780.721 162.582 780.721 181.628Z" fill="#5D3D22"/>
<path d="M759.825 72.7012H756.627V52.9014H763.487C765.912 52.9014 767.621 53.0967 768.614 53.4873C769.623 53.8617 770.429 54.4964 771.031 55.3916C771.633 56.2868 771.935 57.2389 771.935 58.248C771.935 59.7617 771.406 61.0394 770.348 62.0811C769.29 63.1227 767.931 63.7087 766.271 63.8389C767.019 64.1481 767.719 64.6608 768.37 65.377C769.037 66.0768 769.876 67.2324 770.885 68.8438L773.277 72.7012H769.371L767.638 69.6006C766.384 67.3708 765.392 65.9303 764.659 65.2793C763.927 64.612 762.95 64.2783 761.729 64.2783H759.825V72.7012ZM759.825 55.5869V61.5439H763.731C765.392 61.5439 766.604 61.3079 767.369 60.8359C768.134 60.3477 768.517 59.5827 768.517 58.541C768.517 57.4505 768.142 56.6855 767.394 56.2461C766.661 55.8066 765.359 55.5869 763.487 55.5869H759.825ZM764 44.4053C767.288 44.4053 770.356 45.2354 773.204 46.8955C776.052 48.5394 778.299 50.7855 779.942 53.6338C781.603 56.4658 782.433 59.5257 782.433 62.8135C782.433 66.1175 781.611 69.1855 779.967 72.0176C778.323 74.8496 776.077 77.0876 773.229 78.7314C770.38 80.3753 767.304 81.1973 764 81.1973C760.68 81.1973 757.595 80.3835 754.747 78.7559C751.899 77.112 749.653 74.874 748.009 72.042C746.365 69.1937 745.543 66.1175 745.543 62.8135C745.543 59.5094 746.365 56.4414 748.009 53.6094C749.669 50.7611 751.923 48.515 754.771 46.8711C757.62 45.2272 760.696 44.4053 764 44.4053ZM764 47.457C759.768 47.457 756.147 48.9626 753.136 51.9736C750.141 54.9684 748.644 58.5817 748.644 62.8135C748.644 67.0615 750.141 70.6829 753.136 73.6777C756.131 76.6562 759.752 78.1455 764 78.1455C768.232 78.1455 771.845 76.6481 774.84 73.6533C777.835 70.6585 779.332 67.0452 779.332 62.8135C779.332 58.5817 777.826 54.9684 774.815 51.9736C771.821 48.9626 768.215 47.457 764 47.457Z" fill="#7E7E7E"/>
</svg>
