<svg width="633" height="372" viewBox="0 0 633 372" fill="none" xmlns="http://www.w3.org/2000/svg">
<path d="M163.513 215.969H124.691C121.73 234.064 114.821 248.54 103.306 260.055C90.804 272.886 75.012 279.137 55.601 279.137C38.822 279.137 25.991 276.176 17.108 270.583L3.29 240.315C21.714 248.54 38.822 252.488 54.943 251.83C75.67 251.501 90.804 235.38 93.436 215.969H67.774C45.731 215.64 28.623 209.06 16.779 196.229C5.593 184.385 0 168.593 0 148.853C0 127.139 4.935 109.702 14.476 96.2132C25.991 80.0922 43.099 71.8672 65.471 71.8672C107.254 71.8672 128.31 97.5292 128.31 148.853C128.31 159.052 127.981 172.541 127.652 188.991H163.513V215.969ZM97.055 148.853C97.055 133.39 95.739 122.533 92.778 115.624C88.172 104.767 78.96 99.1742 65.471 99.1742C42.77 99.1742 31.255 115.624 31.255 148.853C31.255 175.502 43.428 188.991 67.774 188.991H96.726L97.055 148.853Z" fill="#FCF1E7"/>
<path d="M242.861 157.736C242.861 174.515 237.268 188.662 226.082 199.519C214.896 210.376 199.762 215.969 181.009 215.969H155.676V188.991H179.364C201.078 188.991 211.935 177.805 211.935 155.433V76.8022L242.861 67.5901V157.736ZM235.952 262.029C235.952 271.241 228.385 279.137 219.173 279.137C209.632 279.137 201.736 271.241 201.736 262.029C201.736 252.817 209.632 245.25 219.173 245.25C228.385 245.25 235.952 252.817 235.952 262.029ZM191.537 262.029C191.537 271.241 183.641 279.137 174.758 279.137C165.546 279.137 157.65 271.241 157.65 262.029C157.65 252.817 165.546 245.25 174.758 245.25C183.641 245.25 191.537 252.817 191.537 262.029Z" fill="#FCF1E7"/>
<path d="M291.949 159.289C291.949 159.289 290.8 157.652 291.744 156.472C292.616 155.298 294.124 156.094 295.318 157.069C296.482 158.033 307.45 165.789 309.738 166.735C311.995 167.669 314.805 169.705 313.073 172.476C312.205 173.91 305.526 171.591 299.282 166.425C292.997 161.277 291.949 159.289 291.949 159.289Z" fill="#427037"/>
<path d="M289.122 146.078C289.122 146.078 288.092 144.226 289.163 142.445C290.212 140.721 292.662 142.241 293.959 143.221C295.257 144.2 306.438 152.129 309.889 154.038C313.341 155.948 321.024 158.56 319.206 161.915C317.377 165.297 309.605 163.008 304.282 159.526C298.948 156.073 290.814 147.844 289.122 146.078Z" fill="#427037"/>
<path d="M290.4 138.594C290.4 138.594 289.144 136.693 289.68 135.303C290.392 133.458 291.511 133.632 294.684 134.635C297.846 135.667 310.453 140.714 315.891 141.364C321.33 142.013 327.189 143.652 325.632 146.422C324.106 149.202 315.502 150.425 305.056 146.019C294.59 141.574 290.4 138.594 290.4 138.594Z" fill="#427037"/>
<path d="M291.852 130.589C291.852 130.589 289.067 129.305 289.693 127.14C290.36 124.957 290.834 124.996 293.498 125.237C296.173 125.449 316.17 126.904 320.891 126.878C325.613 126.852 333.075 125.512 333.217 129.759C333.328 133.995 322.625 137.31 309.807 135.254C297 133.169 291.852 130.589 291.852 130.589Z" fill="#427037"/>
<path d="M290.895 121.757C290.895 121.757 288.121 121.348 288.164 119.427C288.238 117.516 288.511 116.807 290.439 116.333C292.367 115.859 305.152 113.481 311.514 112.006C317.887 110.504 326.346 105.226 329.136 108.578C331.926 111.931 326.122 118.833 314.383 120.584C302.716 122.328 297.952 123.275 290.895 121.757Z" fill="#427037"/>
<path d="M290.112 113.021C290.112 113.021 286.239 112.93 286.111 109.914C285.685 107.309 289.16 106.806 290.343 106.453C291.526 106.101 299.643 103.155 304.544 101.127C304.544 101.127 313.495 97.7357 317.55 94.8247C321.616 91.8854 326.59 92.5628 325.772 97.3068C324.943 102.079 309.842 109.829 301.736 111.391C293.609 112.913 290.112 113.021 290.112 113.021Z" fill="#427037"/>
<path d="M287.789 102.217C287.789 102.217 283.735 102.32 283.818 99.1209C283.88 95.8828 288.683 95.4661 292.598 93.7319C296.544 92.0087 310.06 85.4693 312.785 82.568C317.267 78.0984 323.291 80.6678 321.108 86.0545C316.594 91.5132 305.586 97.8825 299.48 99.8679C293.374 101.853 287.789 102.217 287.789 102.217Z" fill="#427037"/>
<path d="M286.158 92.7892C286.158 92.7892 279.354 92.7824 283.619 87.4283C288.039 83.3888 297.011 80.4893 302.519 74.8045C307.998 69.1088 311.014 66.9894 313.182 70.959C315.381 74.9395 307.59 82.1985 300.474 86.4384C293.359 90.6783 286.931 92.7747 286.158 92.7892Z" fill="#427037"/>
<path d="M282.591 83.9315C282.591 83.9315 279.679 84.6033 278.338 82.8333C276.996 81.0634 278.157 79.4116 280.236 77.7324C282.315 76.0531 293.85 66.8697 296.973 61.8508C300.763 54.1969 308.663 56.79 306.41 62.9911C305.409 68.5734 289.985 80.598 282.591 83.9315Z" fill="#427037"/>
<path d="M278.557 73.5821C278.557 73.5821 275.177 75.3779 274.28 72.1848C273.352 68.9806 280.61 66.1798 283.667 60.4271C287.782 54.3741 290.848 47.3331 293.931 48.6594C297.014 49.9856 297.889 52.7836 293.555 58.9521C289.19 65.1096 282.279 72.1665 278.557 73.5821Z" fill="#427037"/>
<path d="M274.547 63.531C274.547 63.531 271.443 64.5215 270.204 62.756C268.966 60.9905 270.85 59.7259 272.554 57.7515C274.258 55.7771 277.764 51.5729 279.667 48.0878C281.601 44.6135 282.814 40.656 285.893 42.1744C288.971 43.6928 288.337 48.0505 285.628 52.5393C282.95 57.039 276.595 62.7448 274.547 63.531Z" fill="#427037"/>
<path d="M270.765 55.338C270.765 55.338 269.153 56.8933 266.942 55.7491C264.761 54.6159 266.708 52.8252 268.2 49.7741C269.702 46.6947 272.383 37.4829 272.842 34.9352C273.291 32.4159 280.477 30.0735 279.721 38.4553C278.966 46.837 271.278 55.0045 270.765 55.338Z" fill="#427037"/>
<path d="M265.012 45.538C265.012 45.538 263.078 47.2043 261.294 45.8575C259.677 44.893 260.883 42.1276 262.033 38.6963C263.193 35.2366 263.687 30.6997 263.556 27.7802C263.426 24.8608 263.259 22.6705 265.24 22.6026C267.221 22.5347 270.994 24.3333 269.621 33.1402C268.247 41.9471 265.012 45.538 265.012 45.538Z" fill="#427037"/>
<path d="M256.518 35.5336C256.518 35.5336 252.145 36.5555 252.137 33.2278C252.13 29.9001 252.312 24.09 251.468 20.851C250.623 17.612 249.472 15.6195 249.472 15.6195C249.472 15.6195 248.244 11.5657 252.337 12.4454C256.441 13.2966 257.606 18.3286 258.603 25.7863C259.752 33.8467 256.518 35.5336 256.518 35.5336Z" fill="#427037"/>
<path d="M283.551 160.409C283.551 160.409 282.754 164.321 280.916 163.958C279.069 163.616 279.938 160.339 280.97 157.731C282.256 153.579 283.835 147.433 283.981 146.167C284.126 144.901 284.764 142.153 285.531 143.036C286.282 143.963 285.168 155.74 283.551 160.409Z" fill="#427037"/>
<path d="M282.408 134.65C282.408 134.65 280.743 138.692 278.656 141.436C276.568 144.18 275.012 146.503 276.972 149.081C278.932 151.66 282.762 143.511 283.184 140.295C283.616 137.057 284.291 135.444 282.408 134.65Z" fill="#427037"/>
<path d="M278.678 136.931C278.678 136.931 275.156 139.7 273.702 137.18C272.247 134.66 274.312 133.274 276.216 132.099C278.128 130.903 280.1 128.459 280.512 127.46C280.915 126.481 282.894 126.822 281.705 130.862C280.578 134.876 278.678 136.931 278.678 136.931Z" fill="#427037"/>
<path d="M267.293 122.051C267.293 122.051 272.704 119.786 274.389 118.224C276.073 116.662 279.331 116.179 277.996 120.996C276.661 125.814 271.205 131.905 268.457 129.439C265.689 126.934 265.482 123.31 267.293 122.051Z" fill="#427037"/>
<path d="M275.528 111.917C275.528 111.917 272.437 116.398 268.35 114.779C264.264 113.159 263.609 106.985 266.565 107.104C269.54 107.262 273.725 106.818 274.579 106.413C275.454 106.047 277.682 106.875 275.528 111.917Z" fill="#427037"/>
<path d="M274.661 102.051C274.661 102.051 272.355 106.942 267.172 104.092C262.001 101.213 261.744 92.9222 264.155 94.3635C266.565 95.8048 270.661 98.3964 272.736 98.2652C274.739 98.1406 274.963 100.997 274.661 102.051Z" fill="#427037"/>
<path d="M269.099 94.5781C269.099 94.5781 273.418 95.054 272.508 91.9852C271.598 88.9165 269.402 89.3598 267.007 87.246C264.611 85.1321 261.26 81.5151 261.914 85.4286C262.568 89.3421 265.315 93.7118 269.099 94.5781Z" fill="#427037"/>
<path d="M267.953 85.3243C267.953 85.3243 271.376 85.771 270.236 82.8461C269.095 79.9213 266.365 79.8509 264.598 77.2835C262.843 74.6878 260.671 73.6222 261.364 77.1624C262.038 80.6632 264.728 84.3669 267.953 85.3243Z" fill="#427037"/>
<path d="M266.243 76.5479C266.243 76.5479 270.035 78.4819 268.193 74.2091C266.382 69.9473 262.978 67.732 261.792 64.1128C260.594 60.5219 259.221 62.9049 260.458 67.0264C261.684 71.1763 264.959 75.8959 266.243 76.5479Z" fill="#427037"/>
<path d="M267.189 65.7797C267.189 65.7797 269.481 70.6971 266.423 68.6699C263.366 66.6428 258.321 56.288 259.972 52.0994C260.866 50.8688 261.113 55.0243 263.053 58.5897C264.993 62.1551 267.189 65.7797 267.189 65.7797Z" fill="#427037"/>
<path d="M256.146 46.1828C256.146 46.1828 257.902 49.6826 257.734 46.5884C257.567 43.4942 253.862 37.2653 252.993 33.7272C252.125 30.189 250.669 28.443 251.517 33.8458C252.364 39.2486 256.146 46.1828 256.146 46.1828Z" fill="#427037"/>
<path d="M247.627 26.5506C247.627 26.5506 248.76 27.5037 248.562 23.9465C248.364 20.3894 247.134 18.2396 246.9 14.4117C246.678 10.5554 246.851 4.67757 245.463 5.92516C244.074 7.17276 245.177 16.7988 245.879 19.5026C246.611 22.2175 246.827 25.91 247.627 26.5506Z" fill="#427037"/>
<path d="M290.315 153.572C290.315 153.572 294.9 157.79 299.77 161.723C300.995 162.709 302.231 163.667 303.397 164.535C303.995 164.974 304.574 165.374 305.122 165.764C305.68 166.124 306.198 166.503 306.706 166.813C307.215 167.124 307.662 167.412 308.1 167.633C308.538 167.854 308.915 168.053 309.211 168.191C309.844 168.45 310.243 168.592 310.243 168.592C310.243 168.592 309.875 168.461 309.2 168.22C308.873 168.071 308.497 167.872 308.058 167.651C307.62 167.43 307.173 167.141 306.654 166.859C306.145 166.549 305.617 166.199 305.027 165.827C304.48 165.438 303.87 165.027 303.261 164.615C302.054 163.765 300.776 162.825 299.54 161.867C294.565 158.026 289.833 153.916 289.833 153.916L290.315 153.572Z" fill="#70AC44"/>
<path d="M287.768 139.815C287.768 139.815 289.219 141.301 291.562 143.461C293.905 145.62 297.089 148.403 300.453 150.992C301.284 151.643 302.156 152.277 302.998 152.901C303.839 153.524 304.703 154.09 305.536 154.645C307.243 155.739 308.84 156.664 310.309 157.382C311.043 157.741 311.727 158.049 312.329 158.296C312.943 158.515 313.495 158.712 313.966 158.848C314.396 159.002 314.786 159.076 315.042 159.135C315.298 159.195 315.421 159.238 315.421 159.238C315.421 159.238 315.287 159.223 315.031 159.164C314.775 159.105 314.415 159.041 313.944 158.905C313.504 158.78 312.941 158.612 312.296 158.382C311.694 158.134 310.999 157.854 310.254 157.524C308.775 156.834 307.136 155.927 305.417 154.862C304.574 154.334 303.68 153.757 302.827 153.162C301.975 152.568 301.102 151.934 300.23 151.299C293.325 146.22 287.232 140.301 287.232 140.301L287.768 139.815Z" fill="#70AC44"/>
<path d="M286.283 132.346C286.283 132.346 288.359 133.57 291.609 135.279C294.828 136.976 299.243 139.101 303.79 140.885C304.945 141.33 306.08 141.735 307.215 142.14C308.351 142.545 309.508 142.893 310.614 143.191C311.721 143.489 312.797 143.776 313.833 143.985C314.87 144.193 315.845 144.38 316.761 144.448C317.685 144.585 318.509 144.62 319.272 144.634C319.622 144.63 319.973 144.626 320.323 144.622C320.643 144.607 320.932 144.581 321.191 144.544C321.728 144.51 322.142 144.432 322.411 144.367C322.122 144.392 321.728 144.51 321.191 144.544C320.913 144.542 320.643 144.607 320.323 144.622C320.003 144.637 319.653 144.641 319.272 144.634C318.54 144.631 317.685 144.585 316.78 144.488C315.875 144.391 314.889 144.232 313.842 144.052C312.805 143.844 311.719 143.585 310.601 143.316C309.494 143.017 308.338 142.669 307.211 142.332C306.065 141.955 304.899 141.539 303.734 141.123C299.123 139.413 294.686 137.345 291.414 135.694C288.142 134.042 286.025 132.834 286.025 132.834L286.283 132.346Z" fill="#70AC44"/>
<path d="M283.947 124.022C283.947 124.022 284.037 124.151 284.25 124.324C284.493 124.507 284.879 124.774 285.398 125.056C285.663 125.183 285.948 125.349 286.275 125.498C286.612 125.618 286.969 125.778 287.357 125.949C288.155 126.234 289.064 126.59 290.079 126.856C291.082 127.149 292.2 127.419 293.39 127.682C294.58 127.945 295.822 128.163 297.126 128.402C298.421 128.574 299.755 128.824 301.164 128.971C302.542 129.108 303.94 129.284 305.36 129.404C306.749 129.512 308.169 129.631 309.558 129.74C310.928 129.809 312.297 129.878 313.636 129.936C314.964 130.022 316.222 130.019 317.427 130.062C318.632 130.104 319.775 130.125 320.847 130.153C325.073 130.144 327.867 130.14 327.867 130.14C327.867 130.14 325.063 130.172 320.845 130.249C319.773 130.221 318.649 130.24 317.433 130.226C316.217 130.211 314.96 130.214 313.621 130.156C312.313 130.109 310.932 130.069 309.552 130.028C308.182 129.959 306.763 129.839 305.362 129.759C303.962 129.679 302.534 129.492 301.145 129.384C299.766 129.247 298.39 129.015 297.084 128.871C295.77 128.66 294.527 128.443 293.296 128.197C292.106 127.934 290.977 127.693 289.943 127.388C288.929 127.123 287.978 126.784 287.18 126.499C286.792 126.328 286.393 126.186 286.067 126.037C285.71 125.877 285.394 125.7 285.129 125.573C284.579 125.28 284.162 125.002 283.858 124.797C283.595 124.574 283.444 124.423 283.433 124.452L283.947 124.022Z" fill="#70AC44"/>
<path d="M282.272 118.776C282.272 118.776 282.973 118.768 284.189 118.782C285.405 118.797 287.116 118.794 289.2 118.731C293.326 118.621 298.847 118.332 304.265 117.586C305.619 117.424 306.965 117.193 308.31 116.963C309.625 116.722 310.919 116.442 312.173 116.179C313.406 115.877 314.609 115.563 315.72 115.217C316.83 114.871 317.869 114.532 318.785 114.148C319.731 113.776 320.544 113.388 321.284 113.007C321.639 112.81 321.952 112.632 322.266 112.453C322.579 112.274 322.82 112.102 323.061 111.93C323.563 111.624 323.889 111.321 324.13 111.149C324.382 110.948 324.487 110.857 324.487 110.857C324.487 110.857 324.351 110.937 324.13 111.149C323.889 111.321 323.552 111.653 323.061 111.93C322.831 112.074 322.548 112.263 322.266 112.453C321.952 112.632 321.639 112.81 321.284 113.007C320.544 113.388 319.751 113.815 318.804 114.188C317.889 114.571 316.839 114.939 315.748 115.324C314.637 115.67 313.454 116.023 312.221 116.325C310.987 116.628 309.693 116.908 308.367 117.177C307.052 117.418 305.696 117.677 304.331 117.868C298.891 118.67 293.398 119.067 289.25 119.233C287.197 119.307 285.434 119.356 284.248 119.352C283.052 119.377 282.351 119.385 282.351 119.385L282.272 118.776Z" fill="#70AC44"/>
<path d="M280.314 110.913C280.314 110.913 282.95 110.595 286.902 109.939C287.875 109.77 288.931 109.565 290.06 109.355C291.168 109.105 292.358 108.916 293.58 108.642C294.803 108.368 296.056 108.105 297.301 107.775C298.565 107.483 299.851 107.135 301.117 106.748C302.392 106.428 303.639 106.001 304.875 105.603C306.11 105.205 307.265 104.745 308.439 104.325C309.583 103.893 310.676 103.412 311.716 102.976C312.737 102.501 313.686 102.033 314.551 101.599C315.417 101.165 316.14 100.649 316.838 100.285C317.537 99.9208 318.052 99.4912 318.523 99.175C319.404 98.5208 319.938 98.1305 319.938 98.1305C319.938 98.1305 319.404 98.5208 318.554 99.186C318.113 99.5131 317.599 99.9427 316.889 100.335C316.21 100.738 315.487 101.255 314.621 101.689C313.756 102.122 312.827 102.63 311.806 103.105C310.766 103.541 309.703 104.033 308.549 104.493C307.374 104.913 306.209 105.401 304.973 105.799C303.738 106.198 302.48 106.653 301.194 107.001C299.928 107.388 298.672 107.748 297.397 108.067C296.142 108.426 294.878 108.718 293.655 108.992C292.422 109.294 291.252 109.522 290.143 109.772C289.015 109.983 287.948 110.215 286.975 110.385C283.031 111.108 280.385 111.455 280.385 111.455L280.314 110.913Z" fill="#70AC44"/>
<path d="M278.004 101.245C278.004 101.245 278.677 101.13 279.858 100.873C281.039 100.617 282.697 100.208 284.709 99.699C285.694 99.4052 286.772 99.1442 287.914 98.8091C289.055 98.474 290.238 98.1214 291.443 97.7121C292.668 97.3421 293.926 96.887 295.183 96.4319C296.46 96.0161 297.689 95.454 298.958 94.9705C300.207 94.4477 301.436 93.8855 302.684 93.3627C303.883 92.7897 305.05 92.2056 306.157 91.5997C307.232 90.9828 308.328 90.4053 309.3 89.784C310.273 89.1626 311.193 88.5871 312.01 88.0071C312.808 87.3877 313.511 86.8316 314.15 86.3497C314.308 86.2123 314.455 86.1033 314.602 85.9943C314.748 85.8852 314.875 85.7369 315.022 85.6278C315.254 85.3879 315.476 85.1763 315.697 84.9647C316.529 84.1642 317.013 83.7236 317.013 83.7236C317.013 83.7236 316.529 84.1642 315.728 84.9757C315.506 85.1872 315.285 85.3988 315.053 85.6388C314.937 85.7588 314.779 85.8962 314.663 86.0161C314.516 86.1252 314.358 86.2626 314.212 86.3716C313.592 86.8928 312.889 87.449 312.091 88.0683C311.274 88.6483 310.385 89.2348 309.432 89.8954C308.459 90.5168 307.395 91.1053 306.308 91.7505C305.202 92.3564 304.034 92.9405 302.855 93.5529C301.626 94.115 300.397 94.6771 299.179 95.2109C297.9 95.7227 296.671 96.2849 295.413 96.74C294.145 97.2235 292.929 97.6612 291.682 98.0879C290.477 98.4972 289.283 98.8781 288.172 99.2242C287.02 99.5877 285.973 99.8596 284.956 100.142C282.965 100.691 281.295 101.128 280.114 101.384C278.923 101.669 278.25 101.784 278.25 101.784L278.004 101.245Z" fill="#70AC44"/>
<path d="M275.354 92.3886C275.354 92.3886 275.499 92.3756 275.799 92.3213C276.088 92.2954 276.502 92.2172 277.03 92.1151C277.558 92.013 278.2 91.887 278.967 91.7087C279.703 91.5195 280.542 91.3347 281.445 91.0757C281.912 90.9518 282.378 90.8277 282.856 90.6754C283.334 90.523 283.811 90.3706 284.33 90.2008C285.358 89.8896 286.399 89.4539 287.49 89.0685C288.031 88.842 288.572 88.6154 289.113 88.3889C289.654 88.1623 290.237 87.9183 290.758 87.6525C291.843 87.1033 292.947 86.5935 294.022 85.9766C294.555 85.6823 295.087 85.3881 295.619 85.0938C296.132 84.7603 296.645 84.4267 297.146 84.1215C297.628 83.777 298.161 83.4827 298.612 83.1273C299.063 82.7718 299.545 82.4273 299.985 82.1002C300.938 81.4395 301.707 80.7132 302.465 80.0152C302.844 79.6662 303.223 79.3172 303.58 79.025C303.917 78.6934 304.224 78.3509 304.531 78.0084C305.133 77.3518 305.702 76.7803 306.2 76.2152C306.625 75.6567 307.028 75.1549 307.325 74.7446C307.952 73.9352 308.344 73.4617 308.344 73.4617C308.344 73.4617 307.993 73.9178 307.356 74.7556C307.058 75.1658 306.655 75.6676 306.219 76.2545C305.764 76.8022 305.183 77.4021 304.612 78.0696C304.316 78.3838 303.998 78.7547 303.661 79.0862C303.324 79.4178 302.945 79.7668 302.566 80.1157C301.808 80.8137 301.028 81.5684 300.106 82.2401C299.655 82.5955 299.203 82.951 298.752 83.3065C298.29 83.6903 297.788 83.9955 297.306 84.34C296.794 84.6736 296.312 85.0181 295.799 85.3517C295.267 85.6459 294.754 85.9795 294.222 86.2737C293.177 86.9015 292.062 87.4398 290.977 87.9889C290.445 88.2832 289.873 88.4988 289.321 88.7537C288.78 88.9803 288.228 89.2352 287.687 89.4618C286.585 89.8755 285.544 90.3112 284.517 90.6224C283.998 90.7922 283.509 90.973 283.031 91.1254C282.554 91.2777 282.087 91.4017 281.609 91.5541C280.696 91.8414 279.857 92.0262 279.121 92.2154C278.365 92.3653 277.701 92.5481 277.173 92.6502C276.634 92.7807 276.189 92.8479 275.889 92.9022C275.589 92.9565 275.414 92.9585 275.414 92.9585L275.354 92.3886Z" fill="#70AC44"/>
<path d="M272.765 85.0729C272.765 85.0729 274.962 84.0816 278.103 82.3619C278.877 81.8954 279.742 81.4617 280.62 80.9036C281.07 80.6442 281.519 80.3848 281.979 80.097C282.439 79.8093 282.899 79.5215 283.37 79.2054C284.331 78.6124 285.254 77.9408 286.207 77.2801C287.16 76.6195 288.073 75.8802 289.037 75.1911C289.95 74.4518 290.864 73.7125 291.747 72.9623C292.178 72.5675 292.599 72.2011 292.999 71.7953C293.42 71.4289 293.852 71.0341 294.211 70.6458C294.601 70.2685 294.991 69.8911 295.35 69.5028C295.74 69.1254 296.088 68.7655 296.375 68.3836C297.021 67.6135 297.665 66.9394 298.175 66.25C298.686 65.5605 299.143 64.9168 299.549 64.3189C299.973 63.7603 300.223 63.2038 300.49 62.7826C300.994 61.9294 301.294 61.4231 301.294 61.4231C301.294 61.4231 301.025 61.9403 300.521 62.7936C300.254 63.2147 300.004 63.7713 299.599 64.3692C299.205 64.9387 298.736 65.6107 298.256 66.3112C297.746 67.0007 297.122 67.714 296.506 68.4951C296.178 68.8944 295.86 69.2653 295.47 69.6426C295.111 70.031 294.721 70.4083 294.351 70.825C293.992 71.2133 293.56 71.6081 293.17 71.9855C292.77 72.3912 292.349 72.7576 291.918 73.1524C291.054 73.942 290.141 74.6813 289.258 75.4315C288.314 76.1599 287.401 76.8992 286.448 77.5599C285.484 78.2489 284.562 78.9205 283.631 79.5244C283.16 79.8406 282.7 80.1283 282.24 80.4161C281.78 80.7039 281.319 80.9916 280.901 81.262C280.023 81.8201 279.177 82.2931 278.404 82.7596C275.271 84.547 273.093 85.5776 273.093 85.5776L272.765 85.0729Z" fill="#70AC44"/>
<path d="M269.606 76.0691C269.606 76.0691 271.352 74.9813 273.775 73.1342C274.373 72.6697 275.023 72.1594 275.696 71.5924C276.388 71.0647 277.052 70.4299 277.807 69.828C278.502 69.2042 279.238 68.563 279.965 67.8541C280.681 67.1735 281.439 66.4756 282.105 65.7447L283.15 64.6649C283.498 64.305 283.816 63.9341 284.164 63.5742C284.482 63.2033 284.83 62.8434 285.148 62.4725C285.465 62.1016 285.752 61.7198 286.059 61.3773C286.376 61.0064 286.652 60.6529 286.928 60.2995C287.204 59.946 287.449 59.5816 287.714 59.2565C288.225 58.567 288.713 57.9343 289.099 57.2971C289.515 56.6708 289.878 56.0904 290.209 55.5951C290.509 55.0888 290.767 54.5999 290.982 54.2246C291.411 53.4739 291.648 53.0418 291.648 53.0418C291.648 53.0418 291.411 53.4739 291.013 54.2355C290.798 54.6109 290.551 55.0714 290.27 55.617C289.97 56.1232 289.607 56.7037 289.191 57.3299C288.805 57.9671 288.337 58.6392 287.826 59.3287C287.581 59.6931 287.305 60.0465 287.06 60.411C286.784 60.7644 286.497 61.1462 286.221 61.4997C285.934 61.8815 285.616 62.2524 285.329 62.6342C285.012 63.0051 284.694 63.376 284.377 63.7469C284.059 64.1178 283.741 64.4887 283.382 64.877L282.357 65.9961C281.68 66.7553 280.953 67.4642 280.268 68.1557C279.582 68.8472 278.835 69.5168 278.13 70.169C277.405 70.7818 276.741 71.4166 276.068 71.9836C275.396 72.5507 274.776 73.0719 274.167 73.5648C271.784 75.4905 270.027 76.6067 270.027 76.6067L269.606 76.0691Z" fill="#70AC44"/>
<path d="M266.256 65.5764C266.256 65.5764 266.622 65.3519 267.229 64.9551C267.836 64.5583 268.725 63.9718 269.711 63.226C270.204 62.8531 270.749 62.4345 271.306 61.9874C271.862 61.5403 272.44 61.0365 273.019 60.5327C273.597 60.0288 274.197 59.4683 274.797 58.9077C275.367 58.3362 275.998 57.7866 276.517 57.1648C277.067 56.5539 277.647 55.9541 278.135 55.3213C278.389 55.0246 278.655 54.6995 278.909 54.4028C279.132 54.0952 279.366 53.7591 279.62 53.4624C279.844 53.1548 280.067 52.8471 280.291 52.5395C280.514 52.2318 280.696 51.9416 280.888 51.623C281.252 51.0425 281.646 50.473 281.885 49.9449C282.165 49.3993 282.454 48.9213 282.66 48.4783C282.866 48.0353 283.019 47.638 283.151 47.2975C283.433 46.6558 283.586 46.2586 283.586 46.2586C283.586 46.2586 283.444 46.6275 283.192 47.2801C283.061 47.6206 282.908 48.0178 282.702 48.4609C282.496 48.9039 282.238 49.3928 281.957 49.9384C281.708 50.4949 281.355 51.047 280.981 51.6558C280.799 51.9461 280.637 52.2756 280.413 52.5833C280.221 52.9019 279.967 53.1986 279.774 53.5172C279.55 53.8248 279.347 54.1718 279.093 54.4685C278.869 54.7762 278.604 55.1012 278.35 55.398C277.851 56.0591 277.301 56.6699 276.782 57.2917C276.252 57.9419 275.652 58.5024 275.102 59.1133C274.532 59.6848 273.932 60.2454 273.374 60.7885C272.784 61.3207 272.237 61.8355 271.68 62.2825C271.155 62.7405 270.609 63.1592 270.105 63.5605C269.109 64.3347 268.25 64.9321 267.632 65.3573C267.014 65.7825 266.649 66.007 266.649 66.007L266.256 65.5764Z" fill="#70AC44"/>
<path d="M263.288 59.6108C263.288 59.6108 264.432 58.2756 265.954 56.1395C266.72 55.0572 267.583 53.8157 268.47 52.4213C268.908 51.7383 269.338 50.9876 269.756 50.2652C270.185 49.5145 270.584 48.7529 270.982 47.9912C271.35 47.2186 271.76 46.4286 272.097 45.6451C272.434 44.8615 272.802 44.0889 273.056 43.3402C273.321 42.5631 273.636 41.8363 273.837 41.1335C274.039 40.4306 274.301 39.7496 274.409 39.1099C274.546 38.4812 274.673 37.8808 274.798 37.3766C274.923 36.8723 274.934 36.392 275.004 36.0296C274.964 36.4029 274.923 36.8723 274.829 37.3875C274.735 37.9027 274.608 38.5031 274.47 39.1318C274.363 39.7715 274.142 40.435 273.929 41.1663C273.759 41.8801 273.474 42.6179 273.209 43.3949C272.975 44.183 272.618 44.9272 272.301 45.7501C271.963 46.5336 271.585 47.3346 271.247 48.1181C270.838 48.9081 270.47 49.6807 270.041 50.4314C269.612 51.1822 269.213 51.9438 268.775 52.6268C267.949 54.0431 267.106 55.324 266.37 56.4172C264.868 58.5927 263.744 59.9672 263.744 59.9672L263.288 59.6108Z" fill="#70AC44"/>
<path d="M258.411 49.8005C258.411 49.8005 259.355 48.6202 260.483 46.6015C260.783 46.0952 261.033 45.5387 261.355 44.9757C261.615 44.3908 261.928 43.76 262.211 43.1183C262.504 42.4483 262.767 41.7673 262.999 41.0754C263.1 40.7239 263.242 40.355 263.343 40.0036L263.656 38.9209C263.868 38.1896 264.019 37.4365 264.19 36.7226C264.371 35.9804 264.439 35.2621 264.568 34.5657C264.697 33.8693 264.723 33.1684 264.8 32.5178C264.876 31.8672 264.869 31.2514 264.882 30.675C264.895 30.0986 264.928 29.5614 264.897 29.0985C264.866 28.6356 264.855 28.212 264.842 27.8844C264.785 27.2184 264.793 26.8341 264.793 26.8341C264.793 26.8341 264.815 27.2293 264.873 27.8954C264.917 28.2339 264.939 28.6291 264.969 29.092C265 29.555 264.968 30.0921 264.985 30.6795C264.972 31.2559 264.979 31.8716 264.933 32.5332C264.857 33.1838 264.861 33.8956 264.763 34.603C264.665 35.3104 264.586 36.0571 264.446 36.7818C264.306 37.5066 264.186 38.2707 263.973 39.002L263.68 40.124C263.579 40.4755 263.468 40.8553 263.336 41.1958C263.124 41.9271 262.861 42.608 262.599 43.289C262.336 43.97 262.053 44.6117 261.793 45.1966C261.502 45.7706 261.272 46.3665 260.972 46.8728C259.894 48.9417 258.959 50.1897 258.959 50.1897L258.411 49.8005Z" fill="#70AC44"/>
<path d="M254.274 40.4468C254.274 40.4468 254.534 38.9579 254.647 36.6741C254.691 36.1086 254.684 35.4928 254.699 34.8203C254.704 34.1762 254.699 33.4644 254.694 32.7525C254.655 31.3179 254.545 29.7937 254.362 28.276C254.307 27.5139 254.149 26.7473 254.053 26.0027C253.956 25.258 253.787 24.5198 253.679 23.8035C253.572 23.0872 253.381 22.4058 253.21 21.7636C253.081 21.1041 252.888 20.5187 252.756 19.9552C252.583 19.4092 252.471 18.885 252.306 18.4067C252.161 17.9677 252.036 17.568 251.92 17.236C251.718 16.5829 251.583 16.2115 251.583 16.2115C251.583 16.2115 251.718 16.5829 251.931 17.2076C252.058 17.5112 252.183 17.9109 252.359 18.3609C252.504 18.7999 252.646 19.335 252.819 19.8811C252.993 20.4271 253.175 21.0409 253.346 21.683C253.517 22.3251 253.708 23.0066 253.846 23.7338C253.984 24.461 254.164 25.1709 254.291 25.9265C254.419 26.6821 254.577 27.4487 254.673 28.1933C254.886 29.722 255.027 31.2572 255.098 32.7027C255.133 33.4255 255.148 34.1089 255.164 34.7924C255.16 35.4365 255.186 36.0916 255.143 36.6571C255.121 38.9738 254.881 40.502 254.881 40.502L254.274 40.4468Z" fill="#70AC44"/>
<path d="M285.354 132.748C285.354 132.748 285.061 133.644 284.571 134.982C284.338 135.655 284.017 136.419 283.702 137.233C283.38 138.07 282.971 138.924 282.609 139.795C282.388 140.229 282.2 140.65 282.011 141.07C281.799 141.483 281.611 141.903 281.407 142.294C280.977 143.068 280.586 143.807 280.237 144.439C279.454 145.648 278.961 146.447 278.961 146.447C278.961 146.447 279.454 145.648 280.167 144.414C280.493 143.774 280.852 143.048 281.245 142.236C281.448 141.846 281.614 141.417 281.802 140.996C281.991 140.575 282.188 140.133 282.353 139.704C282.693 138.825 283.055 137.954 283.355 137.109C283.646 136.286 283.92 135.506 284.154 134.833C284.612 133.508 284.859 132.596 284.859 132.596L285.354 132.748Z" fill="#70AC44"/>
<path d="M283.3 124.672C283.3 124.672 283.272 124.881 283.163 125.233C283.12 125.412 283.061 125.635 282.969 125.871C282.878 126.107 282.802 126.373 282.687 126.673C282.556 126.943 282.432 127.265 282.284 127.578C282.16 127.9 281.982 128.227 281.795 128.575C281.608 128.923 281.42 129.271 281.233 129.619C281 129.95 280.782 130.312 280.548 130.643C280.315 130.975 280.119 131.344 279.863 131.667C279.606 131.99 279.35 132.314 279.101 132.615C278.876 132.925 278.628 133.227 278.419 133.494C278.179 133.775 277.956 134.012 277.732 134.25C276.878 135.165 276.304 135.765 276.304 135.765C276.304 135.765 276.863 135.135 277.671 134.203C277.871 133.958 278.095 133.72 278.335 133.44C278.552 133.151 278.769 132.863 279.002 132.531C279.227 132.221 279.461 131.89 279.717 131.566C279.951 131.235 280.146 130.865 280.356 130.526C280.575 130.164 280.785 129.825 280.972 129.477C281.136 129.12 281.323 128.772 281.51 128.424C281.697 128.076 281.844 127.763 281.953 127.411C282.077 127.09 282.216 126.798 282.332 126.498C282.44 126.219 282.516 125.953 282.584 125.709C282.675 125.473 282.703 125.264 282.761 125.113C282.838 124.775 282.866 124.566 282.866 124.566L283.3 124.672Z" fill="#70AC44"/>
<path d="M281.009 113.096C281.009 113.096 280.922 113.323 280.738 113.709C280.661 113.907 280.532 114.152 280.403 114.396C280.263 114.669 280.112 114.97 279.93 115.261C279.737 115.579 279.514 115.887 279.299 116.262C279.085 116.637 278.82 116.963 278.533 117.344C278.257 117.698 278 118.091 277.683 118.461C277.365 118.832 277.048 119.203 276.73 119.574C276.412 119.945 276.095 120.316 275.758 120.647C275.42 120.979 275.083 121.311 274.776 121.653C274.439 121.985 274.143 122.299 273.848 122.613C273.532 122.888 273.247 123.173 272.984 123.402C271.9 124.404 271.164 125.045 271.164 125.045C271.164 125.045 271.88 124.364 272.903 123.341C273.177 123.084 273.462 122.798 273.747 122.512C274.042 122.198 274.338 121.884 274.614 121.531C274.921 121.188 275.227 120.846 275.545 120.475C275.893 120.115 276.149 119.722 276.467 119.351C276.754 118.969 277.041 118.588 277.358 118.217C277.645 117.835 277.902 117.442 278.147 117.078C278.392 116.713 278.668 116.36 278.841 116.002C279.045 115.655 279.248 115.308 279.43 115.018C279.612 114.727 279.732 114.415 279.873 114.142C280.002 113.898 280.1 113.643 280.166 113.472C280.308 113.104 280.396 112.877 280.396 112.877L281.009 113.096Z" fill="#70AC44"/>
<path d="M278.802 105.787C278.802 105.787 278.458 106.407 277.77 107.195C277.591 107.389 277.4 107.611 277.21 107.834C277.019 108.056 276.767 108.257 276.504 108.486C275.99 108.916 275.433 109.363 274.837 109.731C274.524 109.91 274.241 110.1 273.898 110.267C273.584 110.446 273.262 110.557 272.929 110.697C272.627 110.847 272.285 110.919 272.005 111.012C271.849 111.054 271.724 111.106 271.569 111.147C271.413 111.189 271.269 111.202 271.155 111.225C270.896 111.262 270.627 111.328 270.41 111.347C270.193 111.366 269.976 111.386 269.831 111.399C269.511 111.414 269.325 111.444 269.325 111.444C269.325 111.444 269.511 111.414 269.811 111.36C269.956 111.347 270.173 111.327 270.401 111.279C270.618 111.26 270.857 111.184 271.126 111.118C271.282 111.077 271.396 111.053 271.551 111.012C271.676 110.96 271.832 110.918 271.956 110.866C272.237 110.772 272.559 110.661 272.861 110.511C273.153 110.389 273.486 110.25 273.768 110.06C274.071 109.91 274.353 109.72 274.647 109.502C275.212 109.122 275.738 108.664 276.191 108.213C276.412 108.001 276.644 107.761 276.804 107.528C276.995 107.305 277.174 107.111 277.323 106.906C277.95 106.097 278.21 105.512 278.21 105.512L278.802 105.787Z" fill="#70AC44"/>
<path d="M277.087 99.9134C277.087 99.9134 277.045 99.9308 276.962 99.9657C276.879 100.001 276.743 100.081 276.607 100.162C276.305 100.312 275.847 100.504 275.275 100.72C274.995 100.813 274.673 100.924 274.362 101.007C274.009 101.107 273.678 101.15 273.295 101.239C272.922 101.3 272.519 101.35 272.138 101.343C271.746 101.365 271.323 101.375 270.922 101.329C270.716 101.32 270.51 101.311 270.315 101.274C270.12 101.236 269.925 101.199 269.73 101.162C269.329 101.115 268.961 100.984 268.592 100.853C268.244 100.761 267.898 100.572 267.591 100.463C267.254 100.343 267.01 100.159 266.756 100.004C266.502 99.8484 266.267 99.7324 266.085 99.5706C265.893 99.4373 265.73 99.3148 265.599 99.2033C265.336 98.9804 265.163 98.8863 265.163 98.8863C265.163 98.8863 265.325 99.0087 265.599 99.2033C265.772 99.2974 265.934 99.4198 266.127 99.5532C266.32 99.6866 266.585 99.8135 266.82 99.9295C267.085 100.056 267.37 100.223 267.676 100.332C267.983 100.442 268.31 100.59 268.658 100.682C269.017 100.746 269.386 100.877 269.787 100.924C269.982 100.961 270.157 100.959 270.352 100.996C270.547 101.034 270.733 101.003 270.939 101.012C271.351 101.03 271.713 100.998 272.105 100.976C272.466 100.944 272.839 100.883 273.181 100.811C273.522 100.74 273.864 100.668 274.186 100.557C274.497 100.474 274.789 100.352 275.038 100.248C276.11 99.8229 276.686 99.4152 276.686 99.4152L277.087 99.9134Z" fill="#70AC44"/>
<path d="M275.031 92.4015C275.031 92.4015 274.989 92.4189 274.886 92.4145C274.772 92.4384 274.628 92.4513 274.441 92.4817C274.069 92.5425 273.501 92.566 272.842 92.5566C272.182 92.5472 271.431 92.505 270.609 92.3731C270.219 92.2985 269.768 92.202 269.358 92.088C268.959 91.9457 268.519 91.8208 268.131 91.6501C267.927 91.5451 267.743 91.4794 267.539 91.3744C267.335 91.2694 267.173 91.147 266.969 91.042C266.592 90.8429 266.279 90.5696 265.955 90.3248C265.63 90.0799 265.4 89.7718 265.137 89.5488C264.885 89.2975 264.686 89.0003 264.506 88.7425C264.326 88.4846 264.124 88.2836 264.037 88.0586C263.938 87.862 263.809 87.6544 263.73 87.4971C263.809 87.6544 263.918 87.8226 264.048 88.0302C264.135 88.2552 264.368 88.4672 264.558 88.6967C264.749 88.9261 264.949 89.2233 265.212 89.4463C265.475 89.6692 265.705 89.9773 266.04 90.1938C266.375 90.4103 266.658 90.6726 267.035 90.8717C267.208 90.9658 267.381 91.0598 267.585 91.1648C267.758 91.2589 267.973 91.3355 268.188 91.4122C268.576 91.5829 268.985 91.6968 269.364 91.7998C269.774 91.9138 270.164 91.9884 270.565 92.0346C271.336 92.1162 272.088 92.1584 272.697 92.1175C273.977 92.0577 274.724 91.8401 274.724 91.8401L275.031 92.4015Z" fill="#70AC44"/>
<path d="M271.819 83.6368C271.819 83.6368 271.631 83.7632 271.298 83.9026C271.131 83.9723 270.903 84.0202 270.665 84.0963C270.54 84.1486 270.406 84.1332 270.261 84.1462C270.117 84.1591 269.972 84.1721 269.797 84.1741C269.477 84.1891 269.148 84.1363 268.789 84.0727C268.441 83.9806 268.062 83.8776 267.704 83.7179C267.347 83.5581 267.001 83.37 266.666 83.1535C266.33 82.937 266.017 82.6637 265.723 82.4298C265.41 82.1566 265.169 81.8768 264.886 81.6145C264.614 81.3239 264.415 81.0267 264.174 80.747C263.932 80.4672 263.764 80.181 263.553 79.9123C263.374 79.6544 263.194 79.3966 263.045 79.1497C262.479 78.1731 262.102 77.5221 262.102 77.5221C262.102 77.5221 262.51 78.1841 263.128 79.1149C263.288 79.3334 263.468 79.5912 263.678 79.86C263.889 80.1288 264.099 80.3975 264.32 80.6379C264.561 80.9177 264.803 81.1974 265.085 81.4597C265.368 81.722 265.651 81.9843 265.944 82.2182C266.249 82.4238 266.532 82.6861 266.878 82.8742C267.213 83.0907 267.529 83.2679 267.877 83.3599C268.204 83.5087 268.563 83.5724 268.85 83.6426C269.19 83.6669 269.488 83.7087 269.777 83.6828C269.911 83.6982 270.036 83.6459 270.169 83.6613C270.283 83.6374 270.397 83.6135 270.511 83.5896C270.708 83.5309 270.905 83.4721 271.041 83.3914C271.302 83.2585 271.438 83.1779 271.438 83.1779L271.819 83.6368Z" fill="#70AC44"/>
<path d="M269.127 75.3177C269.127 75.3177 269.086 75.3351 268.983 75.3307C268.869 75.3546 268.755 75.3785 268.58 75.3805C268.393 75.4109 268.187 75.4019 267.951 75.382C267.714 75.3622 267.447 75.3313 267.16 75.2612C266.873 75.191 266.577 75.0531 266.281 74.9153C265.996 74.7491 265.711 74.5828 265.407 74.3773C265.133 74.1827 264.881 73.9313 264.598 73.669C264.346 73.4177 264.146 73.1205 263.905 72.8408C263.695 72.572 263.506 72.2465 263.296 71.9777C263.127 71.6915 262.969 71.3769 262.831 71.1017C262.494 70.5292 262.331 69.9548 262.125 69.4939C261.765 68.5263 261.553 67.9016 261.553 67.9016C261.553 67.9016 261.827 68.5481 262.208 69.459C262.456 69.9025 262.691 70.4705 263.039 71.0145C263.208 71.3007 263.377 71.5869 263.557 71.8448C263.767 72.1136 263.966 72.4107 264.177 72.6795C264.398 72.9199 264.639 73.1996 264.872 73.4117C265.135 73.6346 265.398 73.8576 265.641 74.0413C265.915 74.2359 266.18 74.3628 266.445 74.4897C266.721 74.5882 266.997 74.6867 267.254 74.746C267.51 74.8052 267.716 74.8141 267.922 74.823C268.128 74.832 268.314 74.8016 268.459 74.7886C268.573 74.7647 268.717 74.7518 268.759 74.7343C268.831 74.7279 268.873 74.7104 268.873 74.7104L269.127 75.3177Z" fill="#70AC44"/>
<path d="M244.4 25.8828C244.4 25.8828 238.352 20.7543 232.82 17.3601C227.289 13.9658 222.424 10.7447 227.895 9.50111C233.407 8.24012 241.536 15.7573 244.206 19.8736C246.917 23.9726 247.952 26.537 244.4 25.8828Z" fill="#427037"/>
<path d="M246.257 27.0303C246.257 27.0303 246.249 26.9626 246.2 26.8163C246.141 26.6983 246.073 26.5126 245.955 26.2767C245.836 26.0408 245.698 25.7655 245.51 25.44C245.321 25.1144 245.113 24.7496 244.874 24.3738C244.604 23.987 244.346 23.5719 243.984 23.1523C243.695 22.7263 243.302 22.2957 242.921 21.8368C242.529 21.4063 242.106 20.9648 241.652 20.5124C241.187 20.0883 240.764 19.6468 240.269 19.2118C239.763 18.8052 239.309 18.3527 238.823 17.9854C238.305 17.6072 237.86 17.2224 237.332 16.8725C236.835 16.5336 236.368 16.2056 235.901 15.8776C235.423 15.578 234.976 15.2893 234.58 15.0509C233.767 14.5348 233.033 14.176 232.555 13.8764C232.035 13.5942 231.781 13.4389 231.781 13.4389C231.781 13.4389 232.066 13.6052 232.566 13.848C233.054 14.1193 233.83 14.4607 234.643 14.9768C235.071 15.2261 235.529 15.4864 236.006 15.786C236.484 16.0856 236.982 16.4246 237.479 16.7635C237.987 17.0741 238.494 17.4807 239.011 17.859C239.528 18.2372 240.034 18.6438 240.541 19.0505C241.047 19.4571 241.501 19.9095 241.976 20.3052C242.441 20.7293 242.895 21.1817 243.287 21.6123C243.679 22.0428 244.102 22.4843 244.422 22.9213C244.784 23.3409 245.073 23.767 245.354 24.1254C245.623 24.5121 245.862 24.8879 246.051 25.2134C246.27 25.5499 246.408 25.8252 246.546 26.1004C246.654 26.3647 246.763 26.533 246.812 26.6793C246.86 26.8257 246.899 26.9043 246.899 26.9043L246.257 27.0303Z" fill="#70AC44"/>
<path d="M246.333 25.0547C246.474 25.2592 301.393 105.237 294.675 192.636L282.128 187.47C285.335 155.521 284.562 96.622 245.757 26.0117L246.333 25.0547Z" fill="#805430"/>
<path d="M343.496 216.795H308.622C281.997 216.795 280 205.09 282.997 174.59L283.102 173.59H290.194H295.199C295 189.09 301.713 189.159 312.57 189.159H343.496V216.795Z" fill="#FCF1E7"/>
<path d="M598.738 160.207C598.738 194.094 574.721 216.795 536.886 216.795H335.867V189.159H374.689V105.922L405.944 97.0392V189.817H470.428V91.7752L501.683 82.5632V189.159H535.241C556.626 189.159 567.483 178.302 567.483 156.917V77.2992L598.738 67.7582V160.207Z" fill="#FCF1E7"/>
<path d="M612.243 55.9211H609.364V38.1013H615.539C617.721 38.1013 619.259 38.2771 620.153 38.6287C621.061 38.9656 621.786 39.5369 622.328 40.3425C622.87 41.1482 623.141 42.0051 623.141 42.9133C623.141 44.2756 622.665 45.4255 621.713 46.363C620.761 47.3005 619.538 47.8279 618.043 47.9451C618.717 48.2234 619.347 48.6848 619.933 49.3293C620.534 49.9592 621.288 50.9993 622.196 52.4495L624.35 55.9211H620.834L619.274 53.1306C618.146 51.1238 617.252 49.8274 616.593 49.2415C615.934 48.6409 615.055 48.3406 613.957 48.3406H612.243V55.9211ZM612.243 40.5183V45.8796H615.758C617.252 45.8796 618.344 45.6672 619.032 45.2424C619.721 44.803 620.065 44.1145 620.065 43.177C620.065 42.1956 619.728 41.5071 619.054 41.1116C618.395 40.7161 617.223 40.5183 615.539 40.5183H612.243ZM616 30.4548C618.959 30.4548 621.72 31.2019 624.284 32.696C626.847 34.1755 628.869 36.197 630.348 38.7605C631.842 41.3093 632.589 44.0632 632.589 47.0222C632.589 49.9958 631.85 52.7571 630.37 55.3059C628.891 57.8547 626.869 59.8689 624.306 61.3484C621.742 62.8279 618.974 63.5676 616 63.5676C613.012 63.5676 610.236 62.8352 607.672 61.3704C605.109 59.8909 603.087 57.8767 601.608 55.3279C600.128 52.7644 599.389 49.9958 599.389 47.0222C599.389 44.0486 600.128 41.2874 601.608 38.7385C603.102 36.175 605.131 34.1536 607.694 32.6741C610.258 31.1946 613.026 30.4548 616 30.4548ZM616 33.2014C612.191 33.2014 608.932 34.5564 606.222 37.2664C603.527 39.9617 602.179 43.2136 602.179 47.0222C602.179 50.8455 603.527 54.1047 606.222 56.8C608.917 59.4807 612.177 60.821 616 60.821C619.809 60.821 623.061 59.4734 625.756 56.7781C628.451 54.0828 629.799 50.8308 629.799 47.0222C629.799 43.2136 628.444 39.9617 625.734 37.2664C623.039 34.5564 619.794 33.2014 616 33.2014Z" fill="#7E7E7E"/>
<path d="M20.0599 359.88C17.6999 359.88 15.4999 359.54 13.4599 358.86C11.4599 358.18 9.69992 357.24 8.17992 356.04C6.65992 354.88 5.45992 353.46 4.57992 351.78C3.73992 350.14 3.31992 348.32 3.31992 346.32C3.31992 345.52 3.37992 344.48 3.49992 343.2C3.65992 341.88 3.83992 340.4 4.03992 338.76C4.27992 337.12 4.53992 335.44 4.81992 333.72L9.85992 334.44C9.45992 337.08 9.11992 339.48 8.83992 341.64C8.59992 343.8 8.47992 345.34 8.47992 346.26C8.47992 348.02 8.95992 349.58 9.91992 350.94C10.9199 352.3 12.2799 353.36 13.9999 354.12C15.7599 354.88 17.7799 355.26 20.0599 355.26H37.0399C40.0399 355.26 42.2999 354.44 43.8199 352.8C45.3799 351.2 46.1599 348.76 46.1599 345.48C46.1599 343.88 45.8999 342.62 45.3799 341.7C44.8999 340.78 44.0399 340.02 42.7999 339.42C41.5599 338.78 39.7999 338.12 37.5199 337.44C35.3999 336.84 33.4999 336.26 31.8199 335.7C30.1799 335.1 28.7799 334.42 27.6199 333.66C26.4599 332.86 25.5799 331.88 24.9799 330.72C24.3799 329.52 24.0799 327.96 24.0799 326.04C24.0799 323.56 24.5999 321.5 25.6399 319.86C26.6799 318.22 28.1599 317 30.0799 316.2C32.0399 315.4 34.3999 315 37.1599 315C38.5199 315 40.0799 315.1 41.8399 315.3C43.6399 315.5 46.1199 315.84 49.2799 316.32L48.6799 320.64C45.8799 320.32 43.5399 320.08 41.6599 319.92C39.7799 319.72 38.2199 319.62 36.9799 319.62C35.1799 319.62 33.6999 319.84 32.5399 320.28C31.3799 320.72 30.5199 321.4 29.9599 322.32C29.3999 323.2 29.1199 324.36 29.1199 325.8C29.1199 326.96 29.3199 327.92 29.7199 328.68C30.1199 329.4 30.7399 330 31.5799 330.48C32.4199 330.96 33.4399 331.4 34.6399 331.8C35.8799 332.16 37.2999 332.56 38.8999 333C40.8199 333.56 42.5399 334.16 44.0599 334.8C45.5799 335.44 46.8599 336.22 47.8999 337.14C48.9799 338.06 49.7999 339.22 50.3599 340.62C50.9199 341.98 51.1999 343.68 51.1999 345.72C51.1999 348.48 50.6399 350.92 49.5199 353.04C48.4399 355.2 46.8399 356.88 44.7199 358.08C42.6399 359.28 40.0799 359.88 37.0399 359.88H20.0599ZM20.4799 371.1V365.52H25.5799V371.1H20.4799ZM29.0599 371.1V365.52H34.1599V371.1H29.0599ZM83.6791 345V340.38H90.1591V345H83.6791ZM69.2191 358.5C67.7791 358.5 66.2591 358.38 64.6591 358.14C63.0991 357.94 61.3791 357.64 59.4991 357.24L60.2791 353.1C62.3991 353.38 64.1591 353.58 65.5591 353.7C66.9991 353.82 68.2191 353.88 69.2191 353.88C72.4591 353.88 74.8191 353.26 76.2991 352.02C77.7791 350.78 78.5191 348.98 78.5191 346.62V318.06L80.8591 319.62H71.0791C68.8791 319.62 67.1591 319.9 65.9191 320.46C64.7191 320.98 63.8791 321.98 63.3991 323.46C62.9191 324.94 62.6791 327.12 62.6791 330C62.6791 332.88 62.8991 335.06 63.3391 336.54C63.8191 338.02 64.6791 339.04 65.9191 339.6C67.1591 340.12 68.8791 340.38 71.0791 340.38H78.5191V345H71.0791C67.6391 345 64.9191 344.48 62.9191 343.44C60.9591 342.36 59.5591 340.72 58.7191 338.52C57.9191 336.28 57.5191 333.44 57.5191 330C57.5191 326.6 57.9191 323.78 58.7191 321.54C59.5591 319.3 60.9591 317.66 62.9191 316.62C64.9191 315.54 67.6391 315 71.0791 315H83.6791V346.56C83.6791 349.08 83.0991 351.24 81.9391 353.04C80.7791 354.84 79.1191 356.2 76.9591 357.12C74.7991 358.04 72.2191 358.5 69.2191 358.5ZM90.1591 345V340.38C90.3991 340.38 90.5991 340.44 90.7591 340.56C90.9191 340.64 91.0391 340.78 91.1191 340.98C91.1991 341.18 91.2591 341.42 91.2991 341.7C91.3391 341.98 91.3591 342.3 91.3591 342.66C91.3591 343.02 91.3391 343.36 91.2991 343.68C91.2591 343.96 91.1991 344.2 91.1191 344.4C91.0391 344.6 90.9191 344.76 90.7591 344.88C90.5991 344.96 90.3991 345 90.1591 345ZM102.218 345V340.38H108.818V345H102.218ZM108.818 345V340.38C109.058 340.38 109.258 340.44 109.418 340.56C109.578 340.64 109.698 340.78 109.778 340.98C109.858 341.18 109.918 341.42 109.958 341.7C109.998 341.98 110.018 342.3 110.018 342.66C110.018 343.02 109.998 343.36 109.958 343.68C109.918 343.96 109.858 344.2 109.778 344.4C109.698 344.6 109.578 344.76 109.418 344.88C109.258 344.96 109.058 345 108.818 345ZM90.1582 345C89.9182 345 89.7182 344.96 89.5582 344.88C89.3982 344.76 89.2782 344.6 89.1982 344.4C89.1182 344.2 89.0582 343.96 89.0182 343.68C88.9782 343.36 88.9582 343.02 88.9582 342.66C88.9582 342.18 88.9982 341.78 89.0782 341.46C89.1182 341.14 89.2382 340.88 89.4382 340.68C89.5982 340.48 89.8382 340.38 90.1582 340.38V345ZM90.1582 345V340.38H99.5782L97.0582 342.42V315H102.218V345H90.1582ZM92.5582 356.1V350.52H97.6582V356.1H92.5582ZM101.138 356.1V350.52H106.238V356.1H101.138ZM140.891 345C139.491 345 138.111 344.74 136.751 344.22C135.391 343.66 134.111 342.82 132.911 341.7L136.211 338.22C137.131 338.98 137.951 339.54 138.671 339.9C139.391 340.22 140.131 340.38 140.891 340.38H151.631L149.471 342.54V328.32C149.471 327.64 149.391 326.64 149.231 325.32C149.111 324 148.911 322.52 148.631 320.88C148.391 319.2 148.091 317.52 147.731 315.84L152.771 315C153.051 316.4 153.331 317.96 153.611 319.68C153.891 321.4 154.131 323.04 154.331 324.6C154.531 326.16 154.631 327.4 154.631 328.32V345H140.891ZM108.791 345V340.38H117.551L116.291 341.64V321H121.331V345H108.791ZM121.331 345V340.38H127.871C129.231 340.38 130.251 340.18 130.931 339.78C131.651 339.38 132.151 338.58 132.431 337.38C132.711 336.18 132.851 334.42 132.851 332.1V318H137.951V332.1C137.951 335.26 137.611 337.8 136.931 339.72C136.251 341.6 135.171 342.96 133.691 343.8C132.211 344.6 130.271 345 127.871 345H121.331ZM108.791 345C108.551 345 108.351 344.96 108.191 344.88C108.031 344.76 107.911 344.6 107.831 344.4C107.751 344.2 107.691 343.96 107.651 343.68C107.611 343.36 107.591 343.02 107.591 342.66C107.591 342.18 107.631 341.78 107.711 341.46C107.751 341.14 107.871 340.88 108.071 340.68C108.231 340.48 108.471 340.38 108.791 340.38V345ZM161.464 345V340.38H190.984L188.164 343.26V302.04H193.324V345H161.464ZM170.884 340.38V310.56H175.984V340.38H170.884ZM167.764 306.54L165.724 304.92L168.424 301.14H171.724C172.124 301.62 172.664 301.98 173.344 302.22C174.064 302.46 174.744 302.58 175.384 302.58C176.104 302.58 176.764 302.48 177.364 302.28C178.004 302.04 178.544 301.7 178.984 301.26L180.724 302.7C180.324 303.34 179.824 303.94 179.224 304.5C178.664 305.02 178.004 305.44 177.244 305.76C176.484 306.08 175.624 306.24 174.664 306.24C173.784 306.24 172.904 306.1 172.024 305.82C171.184 305.5 170.464 305.06 169.864 304.5L167.764 306.54ZM203.788 345V302.04H208.888V345H203.788ZM259.235 345V340.38H265.715V345H259.235ZM253.595 358.74L254.375 362.88C252.495 363.28 250.755 363.58 249.155 363.78C247.595 364.02 246.095 364.14 244.655 364.14C241.695 364.14 239.115 363.68 236.915 362.76C234.755 361.84 233.095 360.48 231.935 358.68C230.775 356.88 230.195 354.72 230.195 352.2C230.195 349.68 230.775 347.54 231.935 345.78C233.095 344.02 234.755 342.68 236.915 341.76C239.115 340.84 241.715 340.38 244.715 340.38H254.195V345H244.715C241.475 345 239.095 345.6 237.575 346.8C236.095 348.04 235.355 349.86 235.355 352.26C235.355 354.62 236.095 356.42 237.575 357.66C239.095 358.9 241.455 359.52 244.655 359.52C245.655 359.52 246.875 359.46 248.315 359.34C249.755 359.22 251.515 359.02 253.595 358.74ZM233.795 320.7L233.255 316.5C234.895 316.1 236.695 315.76 238.655 315.48C240.615 315.16 242.515 315 244.355 315C247.395 315 250.035 315.48 252.275 316.44C254.515 317.4 256.235 318.8 257.435 320.64C258.635 322.48 259.235 324.74 259.235 327.42V345H254.195V327.42C254.195 324.82 253.375 322.88 251.735 321.6C250.095 320.32 247.635 319.68 244.355 319.68C243.315 319.68 241.835 319.78 239.915 319.98C237.995 320.14 235.955 320.38 233.795 320.7ZM265.715 345V340.38C265.955 340.38 266.155 340.44 266.315 340.56C266.475 340.64 266.595 340.78 266.675 340.98C266.755 341.18 266.815 341.42 266.855 341.7C266.895 341.98 266.915 342.3 266.915 342.66C266.915 343.02 266.895 343.36 266.855 343.68C266.815 343.96 266.755 344.2 266.675 344.4C266.595 344.6 266.475 344.76 266.315 344.88C266.155 344.96 265.955 345 265.715 345ZM241.775 310.56V304.98H246.935V310.56H241.775ZM277.285 345V340.38H283.765V345H277.285ZM265.705 345C265.465 345 265.265 344.96 265.105 344.88C264.945 344.76 264.825 344.6 264.745 344.4C264.665 344.2 264.605 343.96 264.565 343.68C264.525 343.36 264.505 343.02 264.505 342.66C264.505 342.18 264.545 341.78 264.625 341.46C264.665 341.14 264.785 340.88 264.985 340.68C265.145 340.48 265.385 340.38 265.705 340.38V345ZM265.705 345V340.38H274.645L272.185 342.42V315H277.285V345H265.705ZM283.765 345V340.38C284.005 340.38 284.205 340.44 284.365 340.56C284.525 340.64 284.645 340.78 284.725 340.98C284.805 341.18 284.865 341.42 284.905 341.7C284.945 341.98 284.965 342.3 284.965 342.66C284.965 343.02 284.945 343.36 284.905 343.68C284.865 343.96 284.805 344.2 284.725 344.4C284.645 344.6 284.525 344.76 284.365 344.88C284.205 344.96 284.005 345 283.765 345ZM272.185 356.1V350.52H277.345V356.1H272.185ZM322.692 345V340.38H329.112V345H322.692ZM283.752 345V340.38H323.832L319.152 344.52V330.66C319.152 328.18 318.812 326.14 318.132 324.54C317.452 322.9 316.432 321.68 315.072 320.88C313.752 320.04 312.072 319.62 310.032 319.62C308.272 319.62 306.632 319.92 305.112 320.52C303.632 321.12 302.252 321.9 300.972 322.86C299.692 323.82 298.492 324.88 297.372 326.04C296.292 327.16 295.292 328.3 294.372 329.46C293.452 330.62 292.612 331.68 291.852 332.64L290.292 328.14C291.572 326.5 292.852 324.9 294.132 323.34C295.452 321.78 296.872 320.38 298.392 319.14C299.912 317.9 301.632 316.9 303.552 316.14C305.472 315.38 307.672 315 310.152 315C312.992 315 315.312 315.48 317.112 316.44C318.952 317.36 320.392 318.62 321.432 320.22C322.472 321.78 323.192 323.48 323.592 325.32C324.032 327.12 324.252 328.9 324.252 330.66V345H283.752ZM287.712 340.38V302.04H292.872V340.38H287.712ZM283.752 345C283.512 345 283.312 344.96 283.152 344.88C282.992 344.76 282.872 344.6 282.792 344.4C282.712 344.2 282.652 343.96 282.612 343.68C282.572 343.36 282.552 343.02 282.552 342.66C282.552 342.18 282.592 341.78 282.672 341.46C282.712 341.14 282.832 340.88 283.032 340.68C283.192 340.48 283.432 340.38 283.752 340.38V345ZM329.112 345V340.38C329.352 340.38 329.552 340.44 329.712 340.56C329.872 340.64 329.992 340.78 330.072 340.98C330.152 341.18 330.212 341.42 330.252 341.7C330.292 341.98 330.312 342.3 330.312 342.66C330.312 343.02 330.292 343.36 330.252 343.68C330.212 343.96 330.152 344.2 330.072 344.4C329.992 344.6 329.872 344.76 329.712 344.88C329.552 344.96 329.352 345 329.112 345ZM363.304 345V340.38H369.784V345H363.304ZM329.104 345C328.864 345 328.664 344.96 328.504 344.88C328.344 344.76 328.224 344.6 328.144 344.4C328.064 344.2 328.004 343.96 327.964 343.68C327.924 343.36 327.904 343.02 327.904 342.66C327.904 342.18 327.944 341.78 328.024 341.46C328.064 341.14 328.184 340.88 328.384 340.68C328.544 340.48 328.784 340.38 329.104 340.38V345ZM329.104 345V340.38H361.684L358.204 342.9V330.3C358.204 327.58 357.884 325.44 357.244 323.88C356.644 322.32 355.584 321.22 354.064 320.58C352.584 319.94 350.564 319.62 348.004 319.62C346.324 319.62 344.664 319.74 343.024 319.98C341.384 320.18 340.104 320.48 339.184 320.88L342.304 317.76C342.064 318.72 341.824 319.94 341.584 321.42C341.344 322.86 341.144 324.42 340.984 326.1C340.824 327.74 340.744 329.38 340.744 331.02C340.744 332.7 340.824 334.36 340.984 336C341.144 337.64 341.324 339.06 341.524 340.26C341.724 341.42 341.884 342.24 342.004 342.72L337.144 344.1C336.984 343.58 336.784 342.68 336.544 341.4C336.304 340.12 336.084 338.58 335.884 336.78C335.724 334.98 335.644 333.06 335.644 331.02C335.644 329.06 335.744 327.16 335.944 325.32C336.144 323.44 336.364 321.74 336.604 320.22C336.884 318.7 337.144 317.48 337.384 316.56C338.264 316.2 339.664 315.84 341.584 315.48C343.544 315.12 345.684 314.94 348.004 314.94C351.404 314.94 354.244 315.44 356.524 316.44C358.804 317.44 360.504 319.06 361.624 321.3C362.744 323.54 363.304 326.54 363.304 330.3V345H329.104ZM369.784 345V340.38C370.024 340.38 370.224 340.44 370.384 340.56C370.544 340.64 370.664 340.78 370.744 340.98C370.824 341.18 370.884 341.42 370.924 341.7C370.964 341.98 370.984 342.3 370.984 342.66C370.984 343.02 370.964 343.36 370.924 343.68C370.884 343.96 370.824 344.2 370.744 344.4C370.664 344.6 370.544 344.76 370.384 344.88C370.224 344.96 370.024 345 369.784 345ZM376.968 345V302.04H382.128V345H376.968ZM369.768 345V340.38H376.968V345H369.768ZM369.768 345C369.528 345 369.328 344.96 369.168 344.88C369.008 344.76 368.888 344.6 368.808 344.4C368.728 344.2 368.668 343.96 368.628 343.68C368.588 343.36 368.568 343.02 368.568 342.66C368.568 342.18 368.608 341.78 368.688 341.46C368.728 341.14 368.848 340.88 369.048 340.68C369.208 340.48 369.448 340.38 369.768 340.38V345ZM392.343 345V302.04H397.443V345H392.343ZM441.31 345V315H446.47V342.42L443.95 340.38H452.89V345H441.31ZM428.41 325.56V320.88H441.31V325.56H428.41ZM417.13 358.5C416.61 358.5 416.07 358.46 415.51 358.38C414.91 358.34 414.33 358.3 413.77 358.26L414.25 353.64C414.81 353.68 415.35 353.72 415.87 353.76C416.35 353.84 416.77 353.88 417.13 353.88C418.97 353.88 420.45 353.18 421.57 351.78C422.69 350.38 423.25 348.44 423.25 345.96V315H428.41V345.96C428.41 348.44 427.93 350.62 426.97 352.5C426.01 354.42 424.67 355.9 422.95 356.94C421.27 357.98 419.33 358.5 417.13 358.5ZM452.89 345V340.38C453.13 340.38 453.33 340.44 453.49 340.56C453.65 340.64 453.77 340.78 453.85 340.98C453.93 341.18 453.99 341.42 454.03 341.7C454.07 341.98 454.09 342.3 454.09 342.66C454.09 343.02 454.07 343.36 454.03 343.68C453.99 343.96 453.93 344.2 453.85 344.4C453.77 344.6 453.65 344.76 453.49 344.88C453.33 344.96 453.13 345 452.89 345ZM441.31 356.1V350.52H446.47V356.1H441.31ZM465.692 344.7C463.532 342.86 461.892 340.76 460.772 338.4C459.652 336.04 459.092 333.54 459.092 330.9C459.092 328.62 459.492 326.52 460.292 324.6C461.132 322.64 462.252 320.94 463.652 319.5C465.092 318.06 466.772 316.96 468.692 316.2C470.612 315.4 472.672 315 474.872 315C476.072 315 477.332 315.12 478.652 315.36C479.972 315.6 481.252 315.94 482.492 316.38L480.812 320.7C479.812 320.38 478.812 320.12 477.812 319.92C476.812 319.72 475.872 319.62 474.992 319.62C472.912 319.62 471.052 320.1 469.412 321.06C467.772 322.02 466.492 323.36 465.572 325.08C464.692 326.76 464.252 328.7 464.252 330.9C464.252 332.9 464.652 334.78 465.452 336.54C466.292 338.3 467.512 339.88 469.112 341.28L465.692 344.7ZM452.912 345V340.38H483.212V345H452.912ZM452.912 345C452.672 345 452.472 344.96 452.312 344.88C452.152 344.76 452.032 344.6 451.952 344.4C451.872 344.2 451.812 343.96 451.772 343.68C451.732 343.36 451.712 343.02 451.712 342.66C451.712 342.18 451.752 341.78 451.832 341.46C451.872 341.14 451.992 340.88 452.192 340.68C452.352 340.48 452.592 340.38 452.912 340.38V345ZM517.446 345C514.006 345 511.286 344.48 509.286 343.44C507.326 342.36 505.926 340.72 505.086 338.52C504.286 336.28 503.886 333.44 503.886 330C503.886 326.6 504.286 323.78 505.086 321.54C505.926 319.3 507.326 317.66 509.286 316.62C511.286 315.54 514.006 315 517.446 315H530.046V342.42H524.886V317.64L527.226 319.62H517.446C515.246 319.62 513.526 319.9 512.286 320.46C511.086 320.98 510.246 321.98 509.766 323.46C509.286 324.94 509.046 327.12 509.046 330C509.046 332.88 509.266 335.06 509.706 336.54C510.186 338.02 511.046 339.04 512.286 339.6C513.526 340.12 515.246 340.38 517.446 340.38H536.526V345H517.446ZM536.526 345V340.38C536.766 340.38 536.966 340.44 537.126 340.56C537.286 340.64 537.406 340.78 537.486 340.98C537.566 341.18 537.626 341.42 537.666 341.7C537.706 341.98 537.726 342.3 537.726 342.66C537.726 343.02 537.706 343.36 537.666 343.68C537.626 343.96 537.566 344.2 537.486 344.4C537.406 344.6 537.286 344.76 537.126 344.88C536.966 344.96 536.766 345 536.526 345ZM511.266 309.6V304.02H516.366V309.6H511.266ZM519.846 309.6V304.02H524.946V309.6H519.846ZM548.885 345V340.38H555.305V345H548.885ZM536.525 345C536.285 345 536.085 344.96 535.925 344.88C535.765 344.76 535.645 344.6 535.565 344.4C535.485 344.2 535.425 343.96 535.385 343.68C535.345 343.36 535.325 343.02 535.325 342.66C535.325 342.18 535.365 341.78 535.445 341.46C535.485 341.14 535.605 340.88 535.805 340.68C535.965 340.48 536.205 340.38 536.525 340.38V345ZM543.725 345V302.04H548.885V345H543.725ZM536.525 345V340.38H543.725V345H536.525ZM555.305 345V340.38C555.545 340.38 555.745 340.44 555.905 340.56C556.065 340.64 556.185 340.78 556.265 340.98C556.345 341.18 556.405 341.42 556.445 341.7C556.485 341.98 556.505 342.3 556.505 342.66C556.505 343.02 556.485 343.36 556.445 343.68C556.405 343.96 556.345 344.2 556.265 344.4C556.185 344.6 556.065 344.76 555.905 344.88C555.745 344.96 555.545 345 555.305 345ZM555.334 345V340.38H581.674L580.114 341.76V327.42C580.114 324.82 579.294 322.88 577.654 321.6C576.054 320.32 573.614 319.68 570.334 319.68C569.294 319.68 567.814 319.78 565.894 319.98C564.014 320.14 562.014 320.36 559.894 320.64L559.294 316.5C560.934 316.1 562.714 315.76 564.634 315.48C566.594 315.16 568.494 315 570.334 315C573.374 315 576.014 315.48 578.254 316.44C580.494 317.4 582.214 318.8 583.414 320.64C584.614 322.48 585.214 324.74 585.214 327.42V345H555.334ZM555.334 345C555.094 345 554.894 344.96 554.734 344.88C554.574 344.76 554.454 344.6 554.374 344.4C554.294 344.2 554.234 343.96 554.194 343.68C554.154 343.36 554.134 343.02 554.134 342.66C554.134 342.18 554.174 341.78 554.254 341.46C554.294 341.14 554.414 340.88 554.614 340.68C554.774 340.48 555.014 340.38 555.334 340.38V345ZM589.571 358.5C589.051 358.5 588.511 358.46 587.951 358.38C587.351 358.34 586.771 358.3 586.211 358.26L586.691 353.64C587.251 353.68 587.791 353.72 588.311 353.76C588.791 353.84 589.211 353.88 589.571 353.88C591.411 353.88 592.891 353.18 594.011 351.78C595.131 350.38 595.691 348.44 595.691 345.96V315H600.851V345.96C600.851 348.44 600.371 350.62 599.411 352.5C598.451 354.42 597.111 355.9 595.391 356.94C593.711 357.98 591.771 358.5 589.571 358.5Z" fill="#BEB3B3"/>
</svg>
